{"glyphs":{"0":{"ha":1878,"x_min":-31,"x_max":1886,"o":"m 1886 642 l 1810 374 l 68 374 l 144 642 l 819 642 q 919 772 847 719 q 1068 825 990 825 q 1175 785 1135 825 q 1215 683 1215 746 q 1211 642 1215 663 l 1886 642 m 1167 760 q 1063 806 1128 806 q 931 760 994 806 l 1167 760 m 1115 515 q 1188 628 1169 565 q 1196 678 1196 656 q 1178 746 1196 714 l 881 515 l 1115 515 m 906 740 q 833 628 851 690 q 826 581 826 600 q 846 510 826 540 l 1143 740 l 906 740 m 1253 421 q 1326 446 1292 421 q 1371 510 1360 471 q 1374 533 1374 518 q 1355 580 1374 563 q 1304 597 1336 597 q 1222 563 1258 597 q 1185 483 1185 529 q 1203 438 1185 456 q 1253 421 1222 421 m 243 544 l 282 544 l 296 593 l 163 593 l 149 544 l 189 544 l 154 425 l 208 425 l 243 544 m 343 425 l 400 425 l 389 489 q 425 549 425 514 q 411 581 425 568 q 375 593 397 593 l 306 593 l 257 425 l 311 425 l 325 474 l 336 474 l 343 425 m 408 425 l 461 425 l 510 593 l 457 593 l 408 425 m 590 451 l 589 425 l 647 425 l 639 593 l 576 593 l 471 425 l 528 425 l 543 451 l 590 451 m 657 425 l 771 425 l 785 471 l 725 471 l 760 593 l 706 593 l 657 425 m 1463 425 l 1518 425 l 1567 593 l 1513 593 l 1488 504 l 1461 593 l 1406 593 l 1357 425 l 1411 425 l 1433 507 l 1463 425 m 1535 425 l 1649 425 l 1663 471 l 1603 471 l 1638 593 l 1583 593 l 1535 425 m 1733 425 l 1753 492 l 1839 593 l 1776 593 l 1740 543 l 1733 593 l 1669 593 l 1699 492 l 1679 425 l 1733 425 m 1290 549 q 1311 541 1304 549 q 1318 521 1318 533 q 1303 485 1318 500 q 1267 469 1288 469 q 1247 477 1254 469 q 1240 496 1240 485 q 1256 533 1240 517 q 1290 549 1271 549 m 361 547 q 368 538 368 547 q 363 524 368 529 q 351 518 357 518 l 338 518 l 347 547 l 361 547 m 567 496 l 589 536 l 590 536 l 590 496 l 567 496 m 856 496 q 961 451 893 451 q 1092 496 1028 451 l 856 496 m 701 244 q 735 235 717 235 q 763 243 750 235 q 781 267 775 251 l 782 272 q 757 297 782 288 q 747 301 754 299 q 739 311 739 304 q 747 325 739 319 q 764 331 754 331 q 789 321 779 331 l 793 339 q 768 346 782 346 q 740 338 753 346 q 724 315 728 329 q 722 306 722 311 q 744 283 722 293 q 764 267 765 276 q 739 250 758 250 q 707 263 719 250 l 701 244 m 835 275 q 847 246 835 257 q 878 235 858 235 q 928 256 906 235 q 951 307 951 278 q 940 335 951 324 q 910 346 928 346 q 858 324 882 346 q 835 275 835 301 m 1043 233 l 1074 343 l 1057 343 l 1036 268 l 990 344 l 982 344 l 950 236 l 967 236 l 988 308 l 1035 233 l 1043 233 m 126 343 l 57 343 l 26 236 l 43 236 l 56 276 l 101 276 l 106 292 l 60 292 l 69 328 l 122 328 l 126 343 m 122 278 q 121 265 121 274 q 129 243 121 251 q 153 235 138 235 q 188 247 172 235 q 210 278 204 258 l 228 343 l 211 343 l 193 278 q 179 258 190 267 q 157 250 168 250 q 140 258 146 250 q 139 278 135 265 l 157 343 l 140 343 l 122 278 m 265 343 l 249 343 l 218 236 l 283 236 l 288 251 l 239 251 l 265 343 m 346 343 l 329 343 l 299 236 l 365 236 l 369 251 l 319 251 l 346 343 m 465 236 l 540 343 l 521 343 l 468 264 l 460 343 l 440 343 l 454 236 l 465 236 m 624 343 l 554 343 l 524 236 l 593 236 l 597 251 l 544 251 l 554 283 l 600 283 l 604 297 l 558 297 l 567 328 l 619 328 l 624 343 m 671 236 l 690 236 l 682 279 q 707 308 703 290 q 708 318 708 311 q 701 336 708 329 q 682 343 694 343 l 642 343 l 611 236 l 628 236 l 639 275 l 664 275 l 671 236 m 835 343 l 818 343 l 788 236 l 804 236 l 835 343 m 932 303 q 916 265 932 281 q 882 250 900 250 q 860 258 868 250 q 853 279 853 265 q 868 315 853 300 q 904 329 883 329 q 924 322 917 329 q 932 303 932 314 m 692 314 q 683 297 692 304 q 667 289 675 289 l 643 289 l 654 328 l 678 328 q 692 314 692 328 m 1725 254 l 1769 288 l 1744 321 l 1731 311 l 1744 296 l 1108 296 l 1103 279 l 1739 279 l 1717 264 l 1725 254 m 636 108 q 653 67 636 83 q 699 51 671 51 q 763 74 733 51 q 804 132 793 97 q 807 154 807 140 q 790 195 807 179 q 744 211 774 211 q 669 181 703 211 q 636 108 636 150 m 1075 65 q 1124 51 1093 51 q 1172 65 1150 51 q 1200 103 1193 79 q 1201 115 1201 107 q 1164 151 1201 143 q 1153 155 1160 153 q 1147 161 1147 157 q 1164 168 1147 168 q 1185 164 1174 168 q 1204 153 1197 160 l 1218 200 q 1176 211 1196 211 q 1127 199 1147 211 q 1100 164 1107 186 q 1099 150 1099 158 q 1106 130 1099 138 q 1131 115 1114 122 q 1144 111 1135 114 q 1151 103 1153 108 q 1136 94 1149 94 q 1090 117 1119 94 l 1075 65 m 1268 108 q 1285 67 1268 83 q 1329 51 1303 51 q 1368 61 1346 51 l 1383 110 q 1344 96 1365 96 q 1326 102 1333 96 q 1319 119 1319 108 q 1333 152 1319 138 q 1365 167 1347 167 q 1393 157 1381 167 l 1406 203 q 1376 211 1396 211 q 1301 181 1335 211 q 1268 108 1268 150 m 1390 108 q 1408 67 1390 83 q 1454 51 1425 51 q 1519 74 1489 51 q 1560 132 1550 97 q 1563 153 1563 139 q 1545 195 1563 179 q 1500 211 1528 211 q 1424 181 1458 211 q 1390 108 1390 150 m 7 164 l 57 164 l -31 56 l 101 56 l 114 99 l 61 99 l 149 207 l 19 207 l 7 164 m 268 207 l 158 207 l 115 56 l 226 56 l 239 97 l 176 97 l 179 111 l 232 111 l 244 153 l 192 153 l 196 165 l 257 165 l 268 207 m 263 164 l 299 164 l 268 56 l 317 56 l 347 164 l 383 164 l 396 207 l 275 207 l 263 164 m 400 79 l 443 79 l 442 56 l 494 56 l 486 207 l 431 207 l 336 56 l 386 56 l 400 79 m 656 207 l 546 207 l 503 56 l 551 56 l 565 103 l 617 103 l 628 143 l 576 143 l 583 165 l 644 165 l 656 207 m 938 56 l 981 207 l 932 207 l 910 126 l 886 207 l 836 207 l 793 56 l 842 56 l 861 129 l 888 56 l 938 56 m 976 164 l 1013 164 l 982 56 l 1031 56 l 1061 164 l 1096 164 l 1108 207 l 989 207 l 976 164 m 1639 207 l 1590 207 l 1547 56 l 1596 56 l 1613 115 l 1622 78 l 1657 78 l 1686 115 l 1669 56 l 1717 56 l 1760 207 l 1711 207 l 1656 138 l 1639 207 m 756 132 q 738 106 750 117 q 711 96 725 96 q 693 102 700 96 q 686 119 686 108 q 700 152 686 138 q 732 167 714 167 q 753 157 746 167 q 756 132 760 147 m 1511 132 q 1493 106 1506 117 q 1467 96 1481 96 q 1449 102 1456 96 q 1442 119 1442 108 q 1456 152 1442 138 q 1488 167 1469 167 q 1508 156 1501 167 q 1511 132 1515 146 m 444 156 l 443 119 l 422 119 l 443 156 l 444 156 m 1199 75 q 1197 68 1197 72 q 1217 51 1197 51 q 1235 58 1226 51 q 1247 75 1244 65 q 1249 82 1249 78 q 1244 93 1249 89 q 1231 97 1239 97 q 1210 91 1219 97 q 1199 75 1201 85 z "},"1":{"ha":1857,"x_min":-31,"x_max":1886,"o":"m 1886 642 l 1810 374 l 68 374 l 144 642 l 819 642 q 919 772 847 719 q 1068 825 990 825 q 1175 785 1135 825 q 1215 683 1215 746 q 1211 642 1215 663 l 1886 642 m 1167 760 q 1063 806 1128 806 q 931 760 994 806 l 1167 760 m 1115 515 q 1188 628 1169 565 q 1196 678 1196 656 q 1178 746 1196 714 l 881 515 l 1115 515 m 906 740 q 833 628 851 690 q 826 581 826 600 q 846 510 826 540 l 1143 740 l 906 740 m 1253 421 q 1326 446 1292 421 q 1371 510 1360 471 q 1374 533 1374 518 q 1355 580 1374 563 q 1304 597 1336 597 q 1222 563 1258 597 q 1185 483 1185 529 q 1203 438 1185 456 q 1253 421 1222 421 m 243 544 l 282 544 l 296 593 l 163 593 l 149 544 l 189 544 l 154 425 l 208 425 l 243 544 m 343 425 l 400 425 l 389 489 q 425 549 425 514 q 411 581 425 568 q 375 593 397 593 l 306 593 l 257 425 l 311 425 l 325 474 l 336 474 l 343 425 m 408 425 l 461 425 l 510 593 l 457 593 l 408 425 m 590 451 l 589 425 l 647 425 l 639 593 l 576 593 l 471 425 l 528 425 l 543 451 l 590 451 m 657 425 l 771 425 l 785 471 l 725 471 l 760 593 l 706 593 l 657 425 m 1463 425 l 1518 425 l 1567 593 l 1513 593 l 1488 504 l 1461 593 l 1406 593 l 1357 425 l 1411 425 l 1433 507 l 1463 425 m 1535 425 l 1649 425 l 1663 471 l 1603 471 l 1638 593 l 1583 593 l 1535 425 m 1733 425 l 1753 492 l 1839 593 l 1776 593 l 1740 543 l 1733 593 l 1669 593 l 1699 492 l 1679 425 l 1733 425 m 1290 549 q 1311 541 1304 549 q 1318 521 1318 533 q 1303 485 1318 500 q 1267 469 1288 469 q 1247 477 1254 469 q 1240 496 1240 485 q 1256 533 1240 517 q 1290 549 1271 549 m 361 547 q 368 538 368 547 q 363 524 368 529 q 351 518 357 518 l 338 518 l 347 547 l 361 547 m 567 496 l 589 536 l 590 536 l 590 496 l 567 496 m 856 496 q 961 451 893 451 q 1092 496 1028 451 l 856 496 m 701 244 q 735 235 717 235 q 763 243 750 235 q 781 267 775 251 l 782 272 q 757 297 782 288 q 747 301 754 299 q 739 311 739 304 q 747 325 739 319 q 764 331 754 331 q 789 321 779 331 l 793 339 q 768 346 782 346 q 740 338 753 346 q 724 315 728 329 q 722 306 722 311 q 744 283 722 293 q 764 267 765 276 q 739 250 758 250 q 707 263 719 250 l 701 244 m 835 275 q 847 246 835 257 q 878 235 858 235 q 928 256 906 235 q 951 307 951 278 q 940 335 951 324 q 910 346 928 346 q 858 324 882 346 q 835 275 835 301 m 1043 233 l 1074 343 l 1057 343 l 1036 268 l 990 344 l 982 344 l 950 236 l 967 236 l 988 308 l 1035 233 l 1043 233 m 126 343 l 57 343 l 26 236 l 43 236 l 56 276 l 101 276 l 106 292 l 60 292 l 69 328 l 122 328 l 126 343 m 122 278 q 121 265 121 274 q 129 243 121 251 q 153 235 138 235 q 188 247 172 235 q 210 278 204 258 l 228 343 l 211 343 l 193 278 q 179 258 190 267 q 157 250 168 250 q 140 258 146 250 q 139 278 135 265 l 157 343 l 140 343 l 122 278 m 265 343 l 249 343 l 218 236 l 283 236 l 288 251 l 239 251 l 265 343 m 346 343 l 329 343 l 299 236 l 365 236 l 369 251 l 319 251 l 346 343 m 465 236 l 540 343 l 521 343 l 468 264 l 460 343 l 440 343 l 454 236 l 465 236 m 624 343 l 554 343 l 524 236 l 593 236 l 597 251 l 544 251 l 554 283 l 600 283 l 604 297 l 558 297 l 567 328 l 619 328 l 624 343 m 671 236 l 690 236 l 682 279 q 707 308 703 290 q 708 318 708 311 q 701 336 708 329 q 682 343 694 343 l 642 343 l 611 236 l 628 236 l 639 275 l 664 275 l 671 236 m 835 343 l 818 343 l 788 236 l 804 236 l 835 343 m 932 303 q 916 265 932 281 q 882 250 900 250 q 860 258 868 250 q 853 279 853 265 q 868 315 853 300 q 904 329 883 329 q 924 322 917 329 q 932 303 932 314 m 692 314 q 683 297 692 304 q 667 289 675 289 l 643 289 l 654 328 l 678 328 q 692 314 692 328 m 1725 254 l 1769 288 l 1744 321 l 1731 311 l 1744 296 l 1108 296 l 1103 279 l 1739 279 l 1717 264 l 1725 254 m 636 108 q 653 67 636 83 q 699 51 671 51 q 763 74 733 51 q 804 132 793 97 q 807 154 807 140 q 790 195 807 179 q 744 211 774 211 q 669 181 703 211 q 636 108 636 150 m 1075 65 q 1124 51 1093 51 q 1172 65 1150 51 q 1200 103 1193 79 q 1201 115 1201 107 q 1164 151 1201 143 q 1153 155 1160 153 q 1147 161 1147 157 q 1164 168 1147 168 q 1185 164 1174 168 q 1204 153 1197 160 l 1218 200 q 1176 211 1196 211 q 1127 199 1147 211 q 1100 164 1107 186 q 1099 150 1099 158 q 1106 130 1099 138 q 1131 115 1114 122 q 1144 111 1135 114 q 1151 103 1153 108 q 1136 94 1149 94 q 1090 117 1119 94 l 1075 65 m 1268 108 q 1285 67 1268 83 q 1329 51 1303 51 q 1368 61 1346 51 l 1383 110 q 1344 96 1365 96 q 1326 102 1333 96 q 1319 119 1319 108 q 1333 152 1319 138 q 1365 167 1347 167 q 1393 157 1381 167 l 1406 203 q 1376 211 1396 211 q 1301 181 1335 211 q 1268 108 1268 150 m 1390 108 q 1408 67 1390 83 q 1454 51 1425 51 q 1519 74 1489 51 q 1560 132 1550 97 q 1563 153 1563 139 q 1545 195 1563 179 q 1500 211 1528 211 q 1424 181 1458 211 q 1390 108 1390 150 m 7 164 l 57 164 l -31 56 l 101 56 l 114 99 l 61 99 l 149 207 l 19 207 l 7 164 m 268 207 l 158 207 l 115 56 l 226 56 l 239 97 l 176 97 l 179 111 l 232 111 l 244 153 l 192 153 l 196 165 l 257 165 l 268 207 m 263 164 l 299 164 l 268 56 l 317 56 l 347 164 l 383 164 l 396 207 l 275 207 l 263 164 m 400 79 l 443 79 l 442 56 l 494 56 l 486 207 l 431 207 l 336 56 l 386 56 l 400 79 m 656 207 l 546 207 l 503 56 l 551 56 l 565 103 l 617 103 l 628 143 l 576 143 l 583 165 l 644 165 l 656 207 m 938 56 l 981 207 l 932 207 l 910 126 l 886 207 l 836 207 l 793 56 l 842 56 l 861 129 l 888 56 l 938 56 m 976 164 l 1013 164 l 982 56 l 1031 56 l 1061 164 l 1096 164 l 1108 207 l 989 207 l 976 164 m 1639 207 l 1590 207 l 1547 56 l 1596 56 l 1613 115 l 1622 78 l 1657 78 l 1686 115 l 1669 56 l 1717 56 l 1760 207 l 1711 207 l 1656 138 l 1639 207 m 756 132 q 738 106 750 117 q 711 96 725 96 q 693 102 700 96 q 686 119 686 108 q 700 152 686 138 q 732 167 714 167 q 753 157 746 167 q 756 132 760 147 m 1511 132 q 1493 106 1506 117 q 1467 96 1481 96 q 1449 102 1456 96 q 1442 119 1442 108 q 1456 152 1442 138 q 1488 167 1469 167 q 1508 156 1501 167 q 1511 132 1515 146 m 444 156 l 443 119 l 422 119 l 443 156 l 444 156 m 1199 75 q 1197 68 1197 72 q 1217 51 1197 51 q 1235 58 1226 51 q 1247 75 1244 65 q 1249 82 1249 78 q 1244 93 1249 89 q 1231 97 1239 97 q 1210 91 1219 97 q 1199 75 1201 85 z "},"2":{"ha":1881,"x_min":-31,"x_max":1886,"o":"m 1886 642 l 1810 374 l 68 374 l 144 642 l 819 642 q 919 772 847 719 q 1068 825 990 825 q 1175 785 1135 825 q 1215 683 1215 746 q 1211 642 1215 663 l 1886 642 m 1167 760 q 1063 806 1128 806 q 931 760 994 806 l 1167 760 m 1115 515 q 1188 628 1169 565 q 1196 678 1196 656 q 1178 746 1196 714 l 881 515 l 1115 515 m 906 740 q 833 628 851 690 q 826 581 826 600 q 846 510 826 540 l 1143 740 l 906 740 m 1253 421 q 1326 446 1292 421 q 1371 510 1360 471 q 1374 533 1374 518 q 1355 580 1374 563 q 1304 597 1336 597 q 1222 563 1258 597 q 1185 483 1185 529 q 1203 438 1185 456 q 1253 421 1222 421 m 243 544 l 282 544 l 296 593 l 163 593 l 149 544 l 189 544 l 154 425 l 208 425 l 243 544 m 343 425 l 400 425 l 389 489 q 425 549 425 514 q 411 581 425 568 q 375 593 397 593 l 306 593 l 257 425 l 311 425 l 325 474 l 336 474 l 343 425 m 408 425 l 461 425 l 510 593 l 457 593 l 408 425 m 590 451 l 589 425 l 647 425 l 639 593 l 576 593 l 471 425 l 528 425 l 543 451 l 590 451 m 657 425 l 771 425 l 785 471 l 725 471 l 760 593 l 706 593 l 657 425 m 1463 425 l 1518 425 l 1567 593 l 1513 593 l 1488 504 l 1461 593 l 1406 593 l 1357 425 l 1411 425 l 1433 507 l 1463 425 m 1535 425 l 1649 425 l 1663 471 l 1603 471 l 1638 593 l 1583 593 l 1535 425 m 1733 425 l 1753 492 l 1839 593 l 1776 593 l 1740 543 l 1733 593 l 1669 593 l 1699 492 l 1679 425 l 1733 425 m 1290 549 q 1311 541 1304 549 q 1318 521 1318 533 q 1303 485 1318 500 q 1267 469 1288 469 q 1247 477 1254 469 q 1240 496 1240 485 q 1256 533 1240 517 q 1290 549 1271 549 m 361 547 q 368 538 368 547 q 363 524 368 529 q 351 518 357 518 l 338 518 l 347 547 l 361 547 m 567 496 l 589 536 l 590 536 l 590 496 l 567 496 m 856 496 q 961 451 893 451 q 1092 496 1028 451 l 856 496 m 701 244 q 735 235 717 235 q 763 243 750 235 q 781 267 775 251 l 782 272 q 757 297 782 288 q 747 301 754 299 q 739 311 739 304 q 747 325 739 319 q 764 331 754 331 q 789 321 779 331 l 793 339 q 768 346 782 346 q 740 338 753 346 q 724 315 728 329 q 722 306 722 311 q 744 283 722 293 q 764 267 765 276 q 739 250 758 250 q 707 263 719 250 l 701 244 m 835 275 q 847 246 835 257 q 878 235 858 235 q 928 256 906 235 q 951 307 951 278 q 940 335 951 324 q 910 346 928 346 q 858 324 882 346 q 835 275 835 301 m 1043 233 l 1074 343 l 1057 343 l 1036 268 l 990 344 l 982 344 l 950 236 l 967 236 l 988 308 l 1035 233 l 1043 233 m 126 343 l 57 343 l 26 236 l 43 236 l 56 276 l 101 276 l 106 292 l 60 292 l 69 328 l 122 328 l 126 343 m 122 278 q 121 265 121 274 q 129 243 121 251 q 153 235 138 235 q 188 247 172 235 q 210 278 204 258 l 228 343 l 211 343 l 193 278 q 179 258 190 267 q 157 250 168 250 q 140 258 146 250 q 139 278 135 265 l 157 343 l 140 343 l 122 278 m 265 343 l 249 343 l 218 236 l 283 236 l 288 251 l 239 251 l 265 343 m 346 343 l 329 343 l 299 236 l 365 236 l 369 251 l 319 251 l 346 343 m 465 236 l 540 343 l 521 343 l 468 264 l 460 343 l 440 343 l 454 236 l 465 236 m 624 343 l 554 343 l 524 236 l 593 236 l 597 251 l 544 251 l 554 283 l 600 283 l 604 297 l 558 297 l 567 328 l 619 328 l 624 343 m 671 236 l 690 236 l 682 279 q 707 308 703 290 q 708 318 708 311 q 701 336 708 329 q 682 343 694 343 l 642 343 l 611 236 l 628 236 l 639 275 l 664 275 l 671 236 m 835 343 l 818 343 l 788 236 l 804 236 l 835 343 m 932 303 q 916 265 932 281 q 882 250 900 250 q 860 258 868 250 q 853 279 853 265 q 868 315 853 300 q 904 329 883 329 q 924 322 917 329 q 932 303 932 314 m 692 314 q 683 297 692 304 q 667 289 675 289 l 643 289 l 654 328 l 678 328 q 692 314 692 328 m 1725 254 l 1769 288 l 1744 321 l 1731 311 l 1744 296 l 1108 296 l 1103 279 l 1739 279 l 1717 264 l 1725 254 m 636 108 q 653 67 636 83 q 699 51 671 51 q 763 74 733 51 q 804 132 793 97 q 807 154 807 140 q 790 195 807 179 q 744 211 774 211 q 669 181 703 211 q 636 108 636 150 m 1075 65 q 1124 51 1093 51 q 1172 65 1150 51 q 1200 103 1193 79 q 1201 115 1201 107 q 1164 151 1201 143 q 1153 155 1160 153 q 1147 161 1147 157 q 1164 168 1147 168 q 1185 164 1174 168 q 1204 153 1197 160 l 1218 200 q 1176 211 1196 211 q 1127 199 1147 211 q 1100 164 1107 186 q 1099 150 1099 158 q 1106 130 1099 138 q 1131 115 1114 122 q 1144 111 1135 114 q 1151 103 1153 108 q 1136 94 1149 94 q 1090 117 1119 94 l 1075 65 m 1268 108 q 1285 67 1268 83 q 1329 51 1303 51 q 1368 61 1346 51 l 1383 110 q 1344 96 1365 96 q 1326 102 1333 96 q 1319 119 1319 108 q 1333 152 1319 138 q 1365 167 1347 167 q 1393 157 1381 167 l 1406 203 q 1376 211 1396 211 q 1301 181 1335 211 q 1268 108 1268 150 m 1390 108 q 1408 67 1390 83 q 1454 51 1425 51 q 1519 74 1489 51 q 1560 132 1550 97 q 1563 153 1563 139 q 1545 195 1563 179 q 1500 211 1528 211 q 1424 181 1458 211 q 1390 108 1390 150 m 7 164 l 57 164 l -31 56 l 101 56 l 114 99 l 61 99 l 149 207 l 19 207 l 7 164 m 268 207 l 158 207 l 115 56 l 226 56 l 239 97 l 176 97 l 179 111 l 232 111 l 244 153 l 192 153 l 196 165 l 257 165 l 268 207 m 263 164 l 299 164 l 268 56 l 317 56 l 347 164 l 383 164 l 396 207 l 275 207 l 263 164 m 400 79 l 443 79 l 442 56 l 494 56 l 486 207 l 431 207 l 336 56 l 386 56 l 400 79 m 656 207 l 546 207 l 503 56 l 551 56 l 565 103 l 617 103 l 628 143 l 576 143 l 583 165 l 644 165 l 656 207 m 938 56 l 981 207 l 932 207 l 910 126 l 886 207 l 836 207 l 793 56 l 842 56 l 861 129 l 888 56 l 938 56 m 976 164 l 1013 164 l 982 56 l 1031 56 l 1061 164 l 1096 164 l 1108 207 l 989 207 l 976 164 m 1639 207 l 1590 207 l 1547 56 l 1596 56 l 1613 115 l 1622 78 l 1657 78 l 1686 115 l 1669 56 l 1717 56 l 1760 207 l 1711 207 l 1656 138 l 1639 207 m 756 132 q 738 106 750 117 q 711 96 725 96 q 693 102 700 96 q 686 119 686 108 q 700 152 686 138 q 732 167 714 167 q 753 157 746 167 q 756 132 760 147 m 1511 132 q 1493 106 1506 117 q 1467 96 1481 96 q 1449 102 1456 96 q 1442 119 1442 108 q 1456 152 1442 138 q 1488 167 1469 167 q 1508 156 1501 167 q 1511 132 1515 146 m 444 156 l 443 119 l 422 119 l 443 156 l 444 156 m 1199 75 q 1197 68 1197 72 q 1217 51 1197 51 q 1235 58 1226 51 q 1247 75 1244 65 q 1249 82 1249 78 q 1244 93 1249 89 q 1231 97 1239 97 q 1210 91 1219 97 q 1199 75 1201 85 z "},"3":{"ha":1881,"x_min":-31,"x_max":1886,"o":"m 1886 642 l 1810 374 l 68 374 l 144 642 l 819 642 q 919 772 847 719 q 1068 825 990 825 q 1175 785 1135 825 q 1215 683 1215 746 q 1211 642 1215 663 l 1886 642 m 1167 760 q 1063 806 1128 806 q 931 760 994 806 l 1167 760 m 1115 515 q 1188 628 1169 565 q 1196 678 1196 656 q 1178 746 1196 714 l 881 515 l 1115 515 m 906 740 q 833 628 851 690 q 826 581 826 600 q 846 510 826 540 l 1143 740 l 906 740 m 1253 421 q 1326 446 1292 421 q 1371 510 1360 471 q 1374 533 1374 518 q 1355 580 1374 563 q 1304 597 1336 597 q 1222 563 1258 597 q 1185 483 1185 529 q 1203 438 1185 456 q 1253 421 1222 421 m 243 544 l 282 544 l 296 593 l 163 593 l 149 544 l 189 544 l 154 425 l 208 425 l 243 544 m 343 425 l 400 425 l 389 489 q 425 549 425 514 q 411 581 425 568 q 375 593 397 593 l 306 593 l 257 425 l 311 425 l 325 474 l 336 474 l 343 425 m 408 425 l 461 425 l 510 593 l 457 593 l 408 425 m 590 451 l 589 425 l 647 425 l 639 593 l 576 593 l 471 425 l 528 425 l 543 451 l 590 451 m 657 425 l 771 425 l 785 471 l 725 471 l 760 593 l 706 593 l 657 425 m 1463 425 l 1518 425 l 1567 593 l 1513 593 l 1488 504 l 1461 593 l 1406 593 l 1357 425 l 1411 425 l 1433 507 l 1463 425 m 1535 425 l 1649 425 l 1663 471 l 1603 471 l 1638 593 l 1583 593 l 1535 425 m 1733 425 l 1753 492 l 1839 593 l 1776 593 l 1740 543 l 1733 593 l 1669 593 l 1699 492 l 1679 425 l 1733 425 m 1290 549 q 1311 541 1304 549 q 1318 521 1318 533 q 1303 485 1318 500 q 1267 469 1288 469 q 1247 477 1254 469 q 1240 496 1240 485 q 1256 533 1240 517 q 1290 549 1271 549 m 361 547 q 368 538 368 547 q 363 524 368 529 q 351 518 357 518 l 338 518 l 347 547 l 361 547 m 567 496 l 589 536 l 590 536 l 590 496 l 567 496 m 856 496 q 961 451 893 451 q 1092 496 1028 451 l 856 496 m 701 244 q 735 235 717 235 q 763 243 750 235 q 781 267 775 251 l 782 272 q 757 297 782 288 q 747 301 754 299 q 739 311 739 304 q 747 325 739 319 q 764 331 754 331 q 789 321 779 331 l 793 339 q 768 346 782 346 q 740 338 753 346 q 724 315 728 329 q 722 306 722 311 q 744 283 722 293 q 764 267 765 276 q 739 250 758 250 q 707 263 719 250 l 701 244 m 835 275 q 847 246 835 257 q 878 235 858 235 q 928 256 906 235 q 951 307 951 278 q 940 335 951 324 q 910 346 928 346 q 858 324 882 346 q 835 275 835 301 m 1043 233 l 1074 343 l 1057 343 l 1036 268 l 990 344 l 982 344 l 950 236 l 967 236 l 988 308 l 1035 233 l 1043 233 m 126 343 l 57 343 l 26 236 l 43 236 l 56 276 l 101 276 l 106 292 l 60 292 l 69 328 l 122 328 l 126 343 m 122 278 q 121 265 121 274 q 129 243 121 251 q 153 235 138 235 q 188 247 172 235 q 210 278 204 258 l 228 343 l 211 343 l 193 278 q 179 258 190 267 q 157 250 168 250 q 140 258 146 250 q 139 278 135 265 l 157 343 l 140 343 l 122 278 m 265 343 l 249 343 l 218 236 l 283 236 l 288 251 l 239 251 l 265 343 m 346 343 l 329 343 l 299 236 l 365 236 l 369 251 l 319 251 l 346 343 m 465 236 l 540 343 l 521 343 l 468 264 l 460 343 l 440 343 l 454 236 l 465 236 m 624 343 l 554 343 l 524 236 l 593 236 l 597 251 l 544 251 l 554 283 l 600 283 l 604 297 l 558 297 l 567 328 l 619 328 l 624 343 m 671 236 l 690 236 l 682 279 q 707 308 703 290 q 708 318 708 311 q 701 336 708 329 q 682 343 694 343 l 642 343 l 611 236 l 628 236 l 639 275 l 664 275 l 671 236 m 835 343 l 818 343 l 788 236 l 804 236 l 835 343 m 932 303 q 916 265 932 281 q 882 250 900 250 q 860 258 868 250 q 853 279 853 265 q 868 315 853 300 q 904 329 883 329 q 924 322 917 329 q 932 303 932 314 m 692 314 q 683 297 692 304 q 667 289 675 289 l 643 289 l 654 328 l 678 328 q 692 314 692 328 m 1725 254 l 1769 288 l 1744 321 l 1731 311 l 1744 296 l 1108 296 l 1103 279 l 1739 279 l 1717 264 l 1725 254 m 636 108 q 653 67 636 83 q 699 51 671 51 q 763 74 733 51 q 804 132 793 97 q 807 154 807 140 q 790 195 807 179 q 744 211 774 211 q 669 181 703 211 q 636 108 636 150 m 1075 65 q 1124 51 1093 51 q 1172 65 1150 51 q 1200 103 1193 79 q 1201 115 1201 107 q 1164 151 1201 143 q 1153 155 1160 153 q 1147 161 1147 157 q 1164 168 1147 168 q 1185 164 1174 168 q 1204 153 1197 160 l 1218 200 q 1176 211 1196 211 q 1127 199 1147 211 q 1100 164 1107 186 q 1099 150 1099 158 q 1106 130 1099 138 q 1131 115 1114 122 q 1144 111 1135 114 q 1151 103 1153 108 q 1136 94 1149 94 q 1090 117 1119 94 l 1075 65 m 1268 108 q 1285 67 1268 83 q 1329 51 1303 51 q 1368 61 1346 51 l 1383 110 q 1344 96 1365 96 q 1326 102 1333 96 q 1319 119 1319 108 q 1333 152 1319 138 q 1365 167 1347 167 q 1393 157 1381 167 l 1406 203 q 1376 211 1396 211 q 1301 181 1335 211 q 1268 108 1268 150 m 1390 108 q 1408 67 1390 83 q 1454 51 1425 51 q 1519 74 1489 51 q 1560 132 1550 97 q 1563 153 1563 139 q 1545 195 1563 179 q 1500 211 1528 211 q 1424 181 1458 211 q 1390 108 1390 150 m 7 164 l 57 164 l -31 56 l 101 56 l 114 99 l 61 99 l 149 207 l 19 207 l 7 164 m 268 207 l 158 207 l 115 56 l 226 56 l 239 97 l 176 97 l 179 111 l 232 111 l 244 153 l 192 153 l 196 165 l 257 165 l 268 207 m 263 164 l 299 164 l 268 56 l 317 56 l 347 164 l 383 164 l 396 207 l 275 207 l 263 164 m 400 79 l 443 79 l 442 56 l 494 56 l 486 207 l 431 207 l 336 56 l 386 56 l 400 79 m 656 207 l 546 207 l 503 56 l 551 56 l 565 103 l 617 103 l 628 143 l 576 143 l 583 165 l 644 165 l 656 207 m 938 56 l 981 207 l 932 207 l 910 126 l 886 207 l 836 207 l 793 56 l 842 56 l 861 129 l 888 56 l 938 56 m 976 164 l 1013 164 l 982 56 l 1031 56 l 1061 164 l 1096 164 l 1108 207 l 989 207 l 976 164 m 1639 207 l 1590 207 l 1547 56 l 1596 56 l 1613 115 l 1622 78 l 1657 78 l 1686 115 l 1669 56 l 1717 56 l 1760 207 l 1711 207 l 1656 138 l 1639 207 m 756 132 q 738 106 750 117 q 711 96 725 96 q 693 102 700 96 q 686 119 686 108 q 700 152 686 138 q 732 167 714 167 q 753 157 746 167 q 756 132 760 147 m 1511 132 q 1493 106 1506 117 q 1467 96 1481 96 q 1449 102 1456 96 q 1442 119 1442 108 q 1456 152 1442 138 q 1488 167 1469 167 q 1508 156 1501 167 q 1511 132 1515 146 m 444 156 l 443 119 l 422 119 l 443 156 l 444 156 m 1199 75 q 1197 68 1197 72 q 1217 51 1197 51 q 1235 58 1226 51 q 1247 75 1244 65 q 1249 82 1249 78 q 1244 93 1249 89 q 1231 97 1239 97 q 1210 91 1219 97 q 1199 75 1201 85 z "},"4":{"ha":1928,"x_min":-31,"x_max":1886,"o":"m 1886 642 l 1810 374 l 68 374 l 144 642 l 819 642 q 919 772 847 719 q 1068 825 990 825 q 1175 785 1135 825 q 1215 683 1215 746 q 1211 642 1215 663 l 1886 642 m 1167 760 q 1063 806 1128 806 q 931 760 994 806 l 1167 760 m 1115 515 q 1188 628 1169 565 q 1196 678 1196 656 q 1178 746 1196 714 l 881 515 l 1115 515 m 906 740 q 833 628 851 690 q 826 581 826 600 q 846 510 826 540 l 1143 740 l 906 740 m 1253 421 q 1326 446 1292 421 q 1371 510 1360 471 q 1374 533 1374 518 q 1355 580 1374 563 q 1304 597 1336 597 q 1222 563 1258 597 q 1185 483 1185 529 q 1203 438 1185 456 q 1253 421 1222 421 m 243 544 l 282 544 l 296 593 l 163 593 l 149 544 l 189 544 l 154 425 l 208 425 l 243 544 m 343 425 l 400 425 l 389 489 q 425 549 425 514 q 411 581 425 568 q 375 593 397 593 l 306 593 l 257 425 l 311 425 l 325 474 l 336 474 l 343 425 m 408 425 l 461 425 l 510 593 l 457 593 l 408 425 m 590 451 l 589 425 l 647 425 l 639 593 l 576 593 l 471 425 l 528 425 l 543 451 l 590 451 m 657 425 l 771 425 l 785 471 l 725 471 l 760 593 l 706 593 l 657 425 m 1463 425 l 1518 425 l 1567 593 l 1513 593 l 1488 504 l 1461 593 l 1406 593 l 1357 425 l 1411 425 l 1433 507 l 1463 425 m 1535 425 l 1649 425 l 1663 471 l 1603 471 l 1638 593 l 1583 593 l 1535 425 m 1733 425 l 1753 492 l 1839 593 l 1776 593 l 1740 543 l 1733 593 l 1669 593 l 1699 492 l 1679 425 l 1733 425 m 1290 549 q 1311 541 1304 549 q 1318 521 1318 533 q 1303 485 1318 500 q 1267 469 1288 469 q 1247 477 1254 469 q 1240 496 1240 485 q 1256 533 1240 517 q 1290 549 1271 549 m 361 547 q 368 538 368 547 q 363 524 368 529 q 351 518 357 518 l 338 518 l 347 547 l 361 547 m 567 496 l 589 536 l 590 536 l 590 496 l 567 496 m 856 496 q 961 451 893 451 q 1092 496 1028 451 l 856 496 m 701 244 q 735 235 717 235 q 763 243 750 235 q 781 267 775 251 l 782 272 q 757 297 782 288 q 747 301 754 299 q 739 311 739 304 q 747 325 739 319 q 764 331 754 331 q 789 321 779 331 l 793 339 q 768 346 782 346 q 740 338 753 346 q 724 315 728 329 q 722 306 722 311 q 744 283 722 293 q 764 267 765 276 q 739 250 758 250 q 707 263 719 250 l 701 244 m 835 275 q 847 246 835 257 q 878 235 858 235 q 928 256 906 235 q 951 307 951 278 q 940 335 951 324 q 910 346 928 346 q 858 324 882 346 q 835 275 835 301 m 1043 233 l 1074 343 l 1057 343 l 1036 268 l 990 344 l 982 344 l 950 236 l 967 236 l 988 308 l 1035 233 l 1043 233 m 126 343 l 57 343 l 26 236 l 43 236 l 56 276 l 101 276 l 106 292 l 60 292 l 69 328 l 122 328 l 126 343 m 122 278 q 121 265 121 274 q 129 243 121 251 q 153 235 138 235 q 188 247 172 235 q 210 278 204 258 l 228 343 l 211 343 l 193 278 q 179 258 190 267 q 157 250 168 250 q 140 258 146 250 q 139 278 135 265 l 157 343 l 140 343 l 122 278 m 265 343 l 249 343 l 218 236 l 283 236 l 288 251 l 239 251 l 265 343 m 346 343 l 329 343 l 299 236 l 365 236 l 369 251 l 319 251 l 346 343 m 465 236 l 540 343 l 521 343 l 468 264 l 460 343 l 440 343 l 454 236 l 465 236 m 624 343 l 554 343 l 524 236 l 593 236 l 597 251 l 544 251 l 554 283 l 600 283 l 604 297 l 558 297 l 567 328 l 619 328 l 624 343 m 671 236 l 690 236 l 682 279 q 707 308 703 290 q 708 318 708 311 q 701 336 708 329 q 682 343 694 343 l 642 343 l 611 236 l 628 236 l 639 275 l 664 275 l 671 236 m 835 343 l 818 343 l 788 236 l 804 236 l 835 343 m 932 303 q 916 265 932 281 q 882 250 900 250 q 860 258 868 250 q 853 279 853 265 q 868 315 853 300 q 904 329 883 329 q 924 322 917 329 q 932 303 932 314 m 692 314 q 683 297 692 304 q 667 289 675 289 l 643 289 l 654 328 l 678 328 q 692 314 692 328 m 1725 254 l 1769 288 l 1744 321 l 1731 311 l 1744 296 l 1108 296 l 1103 279 l 1739 279 l 1717 264 l 1725 254 m 636 108 q 653 67 636 83 q 699 51 671 51 q 763 74 733 51 q 804 132 793 97 q 807 154 807 140 q 790 195 807 179 q 744 211 774 211 q 669 181 703 211 q 636 108 636 150 m 1075 65 q 1124 51 1093 51 q 1172 65 1150 51 q 1200 103 1193 79 q 1201 115 1201 107 q 1164 151 1201 143 q 1153 155 1160 153 q 1147 161 1147 157 q 1164 168 1147 168 q 1185 164 1174 168 q 1204 153 1197 160 l 1218 200 q 1176 211 1196 211 q 1127 199 1147 211 q 1100 164 1107 186 q 1099 150 1099 158 q 1106 130 1099 138 q 1131 115 1114 122 q 1144 111 1135 114 q 1151 103 1153 108 q 1136 94 1149 94 q 1090 117 1119 94 l 1075 65 m 1268 108 q 1285 67 1268 83 q 1329 51 1303 51 q 1368 61 1346 51 l 1383 110 q 1344 96 1365 96 q 1326 102 1333 96 q 1319 119 1319 108 q 1333 152 1319 138 q 1365 167 1347 167 q 1393 157 1381 167 l 1406 203 q 1376 211 1396 211 q 1301 181 1335 211 q 1268 108 1268 150 m 1390 108 q 1408 67 1390 83 q 1454 51 1425 51 q 1519 74 1489 51 q 1560 132 1550 97 q 1563 153 1563 139 q 1545 195 1563 179 q 1500 211 1528 211 q 1424 181 1458 211 q 1390 108 1390 150 m 7 164 l 57 164 l -31 56 l 101 56 l 114 99 l 61 99 l 149 207 l 19 207 l 7 164 m 268 207 l 158 207 l 115 56 l 226 56 l 239 97 l 176 97 l 179 111 l 232 111 l 244 153 l 192 153 l 196 165 l 257 165 l 268 207 m 263 164 l 299 164 l 268 56 l 317 56 l 347 164 l 383 164 l 396 207 l 275 207 l 263 164 m 400 79 l 443 79 l 442 56 l 494 56 l 486 207 l 431 207 l 336 56 l 386 56 l 400 79 m 656 207 l 546 207 l 503 56 l 551 56 l 565 103 l 617 103 l 628 143 l 576 143 l 583 165 l 644 165 l 656 207 m 938 56 l 981 207 l 932 207 l 910 126 l 886 207 l 836 207 l 793 56 l 842 56 l 861 129 l 888 56 l 938 56 m 976 164 l 1013 164 l 982 56 l 1031 56 l 1061 164 l 1096 164 l 1108 207 l 989 207 l 976 164 m 1639 207 l 1590 207 l 1547 56 l 1596 56 l 1613 115 l 1622 78 l 1657 78 l 1686 115 l 1669 56 l 1717 56 l 1760 207 l 1711 207 l 1656 138 l 1639 207 m 756 132 q 738 106 750 117 q 711 96 725 96 q 693 102 700 96 q 686 119 686 108 q 700 152 686 138 q 732 167 714 167 q 753 157 746 167 q 756 132 760 147 m 1511 132 q 1493 106 1506 117 q 1467 96 1481 96 q 1449 102 1456 96 q 1442 119 1442 108 q 1456 152 1442 138 q 1488 167 1469 167 q 1508 156 1501 167 q 1511 132 1515 146 m 444 156 l 443 119 l 422 119 l 443 156 l 444 156 m 1199 75 q 1197 68 1197 72 q 1217 51 1197 51 q 1235 58 1226 51 q 1247 75 1244 65 q 1249 82 1249 78 q 1244 93 1249 89 q 1231 97 1239 97 q 1210 91 1219 97 q 1199 75 1201 85 z "},"5":{"ha":1844,"x_min":-31,"x_max":1886,"o":"m 1886 642 l 1810 374 l 68 374 l 144 642 l 819 642 q 919 772 847 719 q 1068 825 990 825 q 1175 785 1135 825 q 1215 683 1215 746 q 1211 642 1215 663 l 1886 642 m 1167 760 q 1063 806 1128 806 q 931 760 994 806 l 1167 760 m 1115 515 q 1188 628 1169 565 q 1196 678 1196 656 q 1178 746 1196 714 l 881 515 l 1115 515 m 906 740 q 833 628 851 690 q 826 581 826 600 q 846 510 826 540 l 1143 740 l 906 740 m 1253 421 q 1326 446 1292 421 q 1371 510 1360 471 q 1374 533 1374 518 q 1355 580 1374 563 q 1304 597 1336 597 q 1222 563 1258 597 q 1185 483 1185 529 q 1203 438 1185 456 q 1253 421 1222 421 m 243 544 l 282 544 l 296 593 l 163 593 l 149 544 l 189 544 l 154 425 l 208 425 l 243 544 m 343 425 l 400 425 l 389 489 q 425 549 425 514 q 411 581 425 568 q 375 593 397 593 l 306 593 l 257 425 l 311 425 l 325 474 l 336 474 l 343 425 m 408 425 l 461 425 l 510 593 l 457 593 l 408 425 m 590 451 l 589 425 l 647 425 l 639 593 l 576 593 l 471 425 l 528 425 l 543 451 l 590 451 m 657 425 l 771 425 l 785 471 l 725 471 l 760 593 l 706 593 l 657 425 m 1463 425 l 1518 425 l 1567 593 l 1513 593 l 1488 504 l 1461 593 l 1406 593 l 1357 425 l 1411 425 l 1433 507 l 1463 425 m 1535 425 l 1649 425 l 1663 471 l 1603 471 l 1638 593 l 1583 593 l 1535 425 m 1733 425 l 1753 492 l 1839 593 l 1776 593 l 1740 543 l 1733 593 l 1669 593 l 1699 492 l 1679 425 l 1733 425 m 1290 549 q 1311 541 1304 549 q 1318 521 1318 533 q 1303 485 1318 500 q 1267 469 1288 469 q 1247 477 1254 469 q 1240 496 1240 485 q 1256 533 1240 517 q 1290 549 1271 549 m 361 547 q 368 538 368 547 q 363 524 368 529 q 351 518 357 518 l 338 518 l 347 547 l 361 547 m 567 496 l 589 536 l 590 536 l 590 496 l 567 496 m 856 496 q 961 451 893 451 q 1092 496 1028 451 l 856 496 m 701 244 q 735 235 717 235 q 763 243 750 235 q 781 267 775 251 l 782 272 q 757 297 782 288 q 747 301 754 299 q 739 311 739 304 q 747 325 739 319 q 764 331 754 331 q 789 321 779 331 l 793 339 q 768 346 782 346 q 740 338 753 346 q 724 315 728 329 q 722 306 722 311 q 744 283 722 293 q 764 267 765 276 q 739 250 758 250 q 707 263 719 250 l 701 244 m 835 275 q 847 246 835 257 q 878 235 858 235 q 928 256 906 235 q 951 307 951 278 q 940 335 951 324 q 910 346 928 346 q 858 324 882 346 q 835 275 835 301 m 1043 233 l 1074 343 l 1057 343 l 1036 268 l 990 344 l 982 344 l 950 236 l 967 236 l 988 308 l 1035 233 l 1043 233 m 126 343 l 57 343 l 26 236 l 43 236 l 56 276 l 101 276 l 106 292 l 60 292 l 69 328 l 122 328 l 126 343 m 122 278 q 121 265 121 274 q 129 243 121 251 q 153 235 138 235 q 188 247 172 235 q 210 278 204 258 l 228 343 l 211 343 l 193 278 q 179 258 190 267 q 157 250 168 250 q 140 258 146 250 q 139 278 135 265 l 157 343 l 140 343 l 122 278 m 265 343 l 249 343 l 218 236 l 283 236 l 288 251 l 239 251 l 265 343 m 346 343 l 329 343 l 299 236 l 365 236 l 369 251 l 319 251 l 346 343 m 465 236 l 540 343 l 521 343 l 468 264 l 460 343 l 440 343 l 454 236 l 465 236 m 624 343 l 554 343 l 524 236 l 593 236 l 597 251 l 544 251 l 554 283 l 600 283 l 604 297 l 558 297 l 567 328 l 619 328 l 624 343 m 671 236 l 690 236 l 682 279 q 707 308 703 290 q 708 318 708 311 q 701 336 708 329 q 682 343 694 343 l 642 343 l 611 236 l 628 236 l 639 275 l 664 275 l 671 236 m 835 343 l 818 343 l 788 236 l 804 236 l 835 343 m 932 303 q 916 265 932 281 q 882 250 900 250 q 860 258 868 250 q 853 279 853 265 q 868 315 853 300 q 904 329 883 329 q 924 322 917 329 q 932 303 932 314 m 692 314 q 683 297 692 304 q 667 289 675 289 l 643 289 l 654 328 l 678 328 q 692 314 692 328 m 1725 254 l 1769 288 l 1744 321 l 1731 311 l 1744 296 l 1108 296 l 1103 279 l 1739 279 l 1717 264 l 1725 254 m 636 108 q 653 67 636 83 q 699 51 671 51 q 763 74 733 51 q 804 132 793 97 q 807 154 807 140 q 790 195 807 179 q 744 211 774 211 q 669 181 703 211 q 636 108 636 150 m 1075 65 q 1124 51 1093 51 q 1172 65 1150 51 q 1200 103 1193 79 q 1201 115 1201 107 q 1164 151 1201 143 q 1153 155 1160 153 q 1147 161 1147 157 q 1164 168 1147 168 q 1185 164 1174 168 q 1204 153 1197 160 l 1218 200 q 1176 211 1196 211 q 1127 199 1147 211 q 1100 164 1107 186 q 1099 150 1099 158 q 1106 130 1099 138 q 1131 115 1114 122 q 1144 111 1135 114 q 1151 103 1153 108 q 1136 94 1149 94 q 1090 117 1119 94 l 1075 65 m 1268 108 q 1285 67 1268 83 q 1329 51 1303 51 q 1368 61 1346 51 l 1383 110 q 1344 96 1365 96 q 1326 102 1333 96 q 1319 119 1319 108 q 1333 152 1319 138 q 1365 167 1347 167 q 1393 157 1381 167 l 1406 203 q 1376 211 1396 211 q 1301 181 1335 211 q 1268 108 1268 150 m 1390 108 q 1408 67 1390 83 q 1454 51 1425 51 q 1519 74 1489 51 q 1560 132 1550 97 q 1563 153 1563 139 q 1545 195 1563 179 q 1500 211 1528 211 q 1424 181 1458 211 q 1390 108 1390 150 m 7 164 l 57 164 l -31 56 l 101 56 l 114 99 l 61 99 l 149 207 l 19 207 l 7 164 m 268 207 l 158 207 l 115 56 l 226 56 l 239 97 l 176 97 l 179 111 l 232 111 l 244 153 l 192 153 l 196 165 l 257 165 l 268 207 m 263 164 l 299 164 l 268 56 l 317 56 l 347 164 l 383 164 l 396 207 l 275 207 l 263 164 m 400 79 l 443 79 l 442 56 l 494 56 l 486 207 l 431 207 l 336 56 l 386 56 l 400 79 m 656 207 l 546 207 l 503 56 l 551 56 l 565 103 l 617 103 l 628 143 l 576 143 l 583 165 l 644 165 l 656 207 m 938 56 l 981 207 l 932 207 l 910 126 l 886 207 l 836 207 l 793 56 l 842 56 l 861 129 l 888 56 l 938 56 m 976 164 l 1013 164 l 982 56 l 1031 56 l 1061 164 l 1096 164 l 1108 207 l 989 207 l 976 164 m 1639 207 l 1590 207 l 1547 56 l 1596 56 l 1613 115 l 1622 78 l 1657 78 l 1686 115 l 1669 56 l 1717 56 l 1760 207 l 1711 207 l 1656 138 l 1639 207 m 756 132 q 738 106 750 117 q 711 96 725 96 q 693 102 700 96 q 686 119 686 108 q 700 152 686 138 q 732 167 714 167 q 753 157 746 167 q 756 132 760 147 m 1511 132 q 1493 106 1506 117 q 1467 96 1481 96 q 1449 102 1456 96 q 1442 119 1442 108 q 1456 152 1442 138 q 1488 167 1469 167 q 1508 156 1501 167 q 1511 132 1515 146 m 444 156 l 443 119 l 422 119 l 443 156 l 444 156 m 1199 75 q 1197 68 1197 72 q 1217 51 1197 51 q 1235 58 1226 51 q 1247 75 1244 65 q 1249 82 1249 78 q 1244 93 1249 89 q 1231 97 1239 97 q 1210 91 1219 97 q 1199 75 1201 85 z "},"6":{"ha":1961,"x_min":-31,"x_max":1886,"o":"m 1886 642 l 1810 374 l 68 374 l 144 642 l 819 642 q 919 772 847 719 q 1068 825 990 825 q 1175 785 1135 825 q 1215 683 1215 746 q 1211 642 1215 663 l 1886 642 m 1167 760 q 1063 806 1128 806 q 931 760 994 806 l 1167 760 m 1115 515 q 1188 628 1169 565 q 1196 678 1196 656 q 1178 746 1196 714 l 881 515 l 1115 515 m 906 740 q 833 628 851 690 q 826 581 826 600 q 846 510 826 540 l 1143 740 l 906 740 m 1253 421 q 1326 446 1292 421 q 1371 510 1360 471 q 1374 533 1374 518 q 1355 580 1374 563 q 1304 597 1336 597 q 1222 563 1258 597 q 1185 483 1185 529 q 1203 438 1185 456 q 1253 421 1222 421 m 243 544 l 282 544 l 296 593 l 163 593 l 149 544 l 189 544 l 154 425 l 208 425 l 243 544 m 343 425 l 400 425 l 389 489 q 425 549 425 514 q 411 581 425 568 q 375 593 397 593 l 306 593 l 257 425 l 311 425 l 325 474 l 336 474 l 343 425 m 408 425 l 461 425 l 510 593 l 457 593 l 408 425 m 590 451 l 589 425 l 647 425 l 639 593 l 576 593 l 471 425 l 528 425 l 543 451 l 590 451 m 657 425 l 771 425 l 785 471 l 725 471 l 760 593 l 706 593 l 657 425 m 1463 425 l 1518 425 l 1567 593 l 1513 593 l 1488 504 l 1461 593 l 1406 593 l 1357 425 l 1411 425 l 1433 507 l 1463 425 m 1535 425 l 1649 425 l 1663 471 l 1603 471 l 1638 593 l 1583 593 l 1535 425 m 1733 425 l 1753 492 l 1839 593 l 1776 593 l 1740 543 l 1733 593 l 1669 593 l 1699 492 l 1679 425 l 1733 425 m 1290 549 q 1311 541 1304 549 q 1318 521 1318 533 q 1303 485 1318 500 q 1267 469 1288 469 q 1247 477 1254 469 q 1240 496 1240 485 q 1256 533 1240 517 q 1290 549 1271 549 m 361 547 q 368 538 368 547 q 363 524 368 529 q 351 518 357 518 l 338 518 l 347 547 l 361 547 m 567 496 l 589 536 l 590 536 l 590 496 l 567 496 m 856 496 q 961 451 893 451 q 1092 496 1028 451 l 856 496 m 701 244 q 735 235 717 235 q 763 243 750 235 q 781 267 775 251 l 782 272 q 757 297 782 288 q 747 301 754 299 q 739 311 739 304 q 747 325 739 319 q 764 331 754 331 q 789 321 779 331 l 793 339 q 768 346 782 346 q 740 338 753 346 q 724 315 728 329 q 722 306 722 311 q 744 283 722 293 q 764 267 765 276 q 739 250 758 250 q 707 263 719 250 l 701 244 m 835 275 q 847 246 835 257 q 878 235 858 235 q 928 256 906 235 q 951 307 951 278 q 940 335 951 324 q 910 346 928 346 q 858 324 882 346 q 835 275 835 301 m 1043 233 l 1074 343 l 1057 343 l 1036 268 l 990 344 l 982 344 l 950 236 l 967 236 l 988 308 l 1035 233 l 1043 233 m 126 343 l 57 343 l 26 236 l 43 236 l 56 276 l 101 276 l 106 292 l 60 292 l 69 328 l 122 328 l 126 343 m 122 278 q 121 265 121 274 q 129 243 121 251 q 153 235 138 235 q 188 247 172 235 q 210 278 204 258 l 228 343 l 211 343 l 193 278 q 179 258 190 267 q 157 250 168 250 q 140 258 146 250 q 139 278 135 265 l 157 343 l 140 343 l 122 278 m 265 343 l 249 343 l 218 236 l 283 236 l 288 251 l 239 251 l 265 343 m 346 343 l 329 343 l 299 236 l 365 236 l 369 251 l 319 251 l 346 343 m 465 236 l 540 343 l 521 343 l 468 264 l 460 343 l 440 343 l 454 236 l 465 236 m 624 343 l 554 343 l 524 236 l 593 236 l 597 251 l 544 251 l 554 283 l 600 283 l 604 297 l 558 297 l 567 328 l 619 328 l 624 343 m 671 236 l 690 236 l 682 279 q 707 308 703 290 q 708 318 708 311 q 701 336 708 329 q 682 343 694 343 l 642 343 l 611 236 l 628 236 l 639 275 l 664 275 l 671 236 m 835 343 l 818 343 l 788 236 l 804 236 l 835 343 m 932 303 q 916 265 932 281 q 882 250 900 250 q 860 258 868 250 q 853 279 853 265 q 868 315 853 300 q 904 329 883 329 q 924 322 917 329 q 932 303 932 314 m 692 314 q 683 297 692 304 q 667 289 675 289 l 643 289 l 654 328 l 678 328 q 692 314 692 328 m 1725 254 l 1769 288 l 1744 321 l 1731 311 l 1744 296 l 1108 296 l 1103 279 l 1739 279 l 1717 264 l 1725 254 m 636 108 q 653 67 636 83 q 699 51 671 51 q 763 74 733 51 q 804 132 793 97 q 807 154 807 140 q 790 195 807 179 q 744 211 774 211 q 669 181 703 211 q 636 108 636 150 m 1075 65 q 1124 51 1093 51 q 1172 65 1150 51 q 1200 103 1193 79 q 1201 115 1201 107 q 1164 151 1201 143 q 1153 155 1160 153 q 1147 161 1147 157 q 1164 168 1147 168 q 1185 164 1174 168 q 1204 153 1197 160 l 1218 200 q 1176 211 1196 211 q 1127 199 1147 211 q 1100 164 1107 186 q 1099 150 1099 158 q 1106 130 1099 138 q 1131 115 1114 122 q 1144 111 1135 114 q 1151 103 1153 108 q 1136 94 1149 94 q 1090 117 1119 94 l 1075 65 m 1268 108 q 1285 67 1268 83 q 1329 51 1303 51 q 1368 61 1346 51 l 1383 110 q 1344 96 1365 96 q 1326 102 1333 96 q 1319 119 1319 108 q 1333 152 1319 138 q 1365 167 1347 167 q 1393 157 1381 167 l 1406 203 q 1376 211 1396 211 q 1301 181 1335 211 q 1268 108 1268 150 m 1390 108 q 1408 67 1390 83 q 1454 51 1425 51 q 1519 74 1489 51 q 1560 132 1550 97 q 1563 153 1563 139 q 1545 195 1563 179 q 1500 211 1528 211 q 1424 181 1458 211 q 1390 108 1390 150 m 7 164 l 57 164 l -31 56 l 101 56 l 114 99 l 61 99 l 149 207 l 19 207 l 7 164 m 268 207 l 158 207 l 115 56 l 226 56 l 239 97 l 176 97 l 179 111 l 232 111 l 244 153 l 192 153 l 196 165 l 257 165 l 268 207 m 263 164 l 299 164 l 268 56 l 317 56 l 347 164 l 383 164 l 396 207 l 275 207 l 263 164 m 400 79 l 443 79 l 442 56 l 494 56 l 486 207 l 431 207 l 336 56 l 386 56 l 400 79 m 656 207 l 546 207 l 503 56 l 551 56 l 565 103 l 617 103 l 628 143 l 576 143 l 583 165 l 644 165 l 656 207 m 938 56 l 981 207 l 932 207 l 910 126 l 886 207 l 836 207 l 793 56 l 842 56 l 861 129 l 888 56 l 938 56 m 976 164 l 1013 164 l 982 56 l 1031 56 l 1061 164 l 1096 164 l 1108 207 l 989 207 l 976 164 m 1639 207 l 1590 207 l 1547 56 l 1596 56 l 1613 115 l 1622 78 l 1657 78 l 1686 115 l 1669 56 l 1717 56 l 1760 207 l 1711 207 l 1656 138 l 1639 207 m 756 132 q 738 106 750 117 q 711 96 725 96 q 693 102 700 96 q 686 119 686 108 q 700 152 686 138 q 732 167 714 167 q 753 157 746 167 q 756 132 760 147 m 1511 132 q 1493 106 1506 117 q 1467 96 1481 96 q 1449 102 1456 96 q 1442 119 1442 108 q 1456 152 1442 138 q 1488 167 1469 167 q 1508 156 1501 167 q 1511 132 1515 146 m 444 156 l 443 119 l 422 119 l 443 156 l 444 156 m 1199 75 q 1197 68 1197 72 q 1217 51 1197 51 q 1235 58 1226 51 q 1247 75 1244 65 q 1249 82 1249 78 q 1244 93 1249 89 q 1231 97 1239 97 q 1210 91 1219 97 q 1199 75 1201 85 z "},"7":{"ha":1881,"x_min":-31,"x_max":1886,"o":"m 1886 642 l 1810 374 l 68 374 l 144 642 l 819 642 q 919 772 847 719 q 1068 825 990 825 q 1175 785 1135 825 q 1215 683 1215 746 q 1211 642 1215 663 l 1886 642 m 1167 760 q 1063 806 1128 806 q 931 760 994 806 l 1167 760 m 1115 515 q 1188 628 1169 565 q 1196 678 1196 656 q 1178 746 1196 714 l 881 515 l 1115 515 m 906 740 q 833 628 851 690 q 826 581 826 600 q 846 510 826 540 l 1143 740 l 906 740 m 1253 421 q 1326 446 1292 421 q 1371 510 1360 471 q 1374 533 1374 518 q 1355 580 1374 563 q 1304 597 1336 597 q 1222 563 1258 597 q 1185 483 1185 529 q 1203 438 1185 456 q 1253 421 1222 421 m 243 544 l 282 544 l 296 593 l 163 593 l 149 544 l 189 544 l 154 425 l 208 425 l 243 544 m 343 425 l 400 425 l 389 489 q 425 549 425 514 q 411 581 425 568 q 375 593 397 593 l 306 593 l 257 425 l 311 425 l 325 474 l 336 474 l 343 425 m 408 425 l 461 425 l 510 593 l 457 593 l 408 425 m 590 451 l 589 425 l 647 425 l 639 593 l 576 593 l 471 425 l 528 425 l 543 451 l 590 451 m 657 425 l 771 425 l 785 471 l 725 471 l 760 593 l 706 593 l 657 425 m 1463 425 l 1518 425 l 1567 593 l 1513 593 l 1488 504 l 1461 593 l 1406 593 l 1357 425 l 1411 425 l 1433 507 l 1463 425 m 1535 425 l 1649 425 l 1663 471 l 1603 471 l 1638 593 l 1583 593 l 1535 425 m 1733 425 l 1753 492 l 1839 593 l 1776 593 l 1740 543 l 1733 593 l 1669 593 l 1699 492 l 1679 425 l 1733 425 m 1290 549 q 1311 541 1304 549 q 1318 521 1318 533 q 1303 485 1318 500 q 1267 469 1288 469 q 1247 477 1254 469 q 1240 496 1240 485 q 1256 533 1240 517 q 1290 549 1271 549 m 361 547 q 368 538 368 547 q 363 524 368 529 q 351 518 357 518 l 338 518 l 347 547 l 361 547 m 567 496 l 589 536 l 590 536 l 590 496 l 567 496 m 856 496 q 961 451 893 451 q 1092 496 1028 451 l 856 496 m 701 244 q 735 235 717 235 q 763 243 750 235 q 781 267 775 251 l 782 272 q 757 297 782 288 q 747 301 754 299 q 739 311 739 304 q 747 325 739 319 q 764 331 754 331 q 789 321 779 331 l 793 339 q 768 346 782 346 q 740 338 753 346 q 724 315 728 329 q 722 306 722 311 q 744 283 722 293 q 764 267 765 276 q 739 250 758 250 q 707 263 719 250 l 701 244 m 835 275 q 847 246 835 257 q 878 235 858 235 q 928 256 906 235 q 951 307 951 278 q 940 335 951 324 q 910 346 928 346 q 858 324 882 346 q 835 275 835 301 m 1043 233 l 1074 343 l 1057 343 l 1036 268 l 990 344 l 982 344 l 950 236 l 967 236 l 988 308 l 1035 233 l 1043 233 m 126 343 l 57 343 l 26 236 l 43 236 l 56 276 l 101 276 l 106 292 l 60 292 l 69 328 l 122 328 l 126 343 m 122 278 q 121 265 121 274 q 129 243 121 251 q 153 235 138 235 q 188 247 172 235 q 210 278 204 258 l 228 343 l 211 343 l 193 278 q 179 258 190 267 q 157 250 168 250 q 140 258 146 250 q 139 278 135 265 l 157 343 l 140 343 l 122 278 m 265 343 l 249 343 l 218 236 l 283 236 l 288 251 l 239 251 l 265 343 m 346 343 l 329 343 l 299 236 l 365 236 l 369 251 l 319 251 l 346 343 m 465 236 l 540 343 l 521 343 l 468 264 l 460 343 l 440 343 l 454 236 l 465 236 m 624 343 l 554 343 l 524 236 l 593 236 l 597 251 l 544 251 l 554 283 l 600 283 l 604 297 l 558 297 l 567 328 l 619 328 l 624 343 m 671 236 l 690 236 l 682 279 q 707 308 703 290 q 708 318 708 311 q 701 336 708 329 q 682 343 694 343 l 642 343 l 611 236 l 628 236 l 639 275 l 664 275 l 671 236 m 835 343 l 818 343 l 788 236 l 804 236 l 835 343 m 932 303 q 916 265 932 281 q 882 250 900 250 q 860 258 868 250 q 853 279 853 265 q 868 315 853 300 q 904 329 883 329 q 924 322 917 329 q 932 303 932 314 m 692 314 q 683 297 692 304 q 667 289 675 289 l 643 289 l 654 328 l 678 328 q 692 314 692 328 m 1725 254 l 1769 288 l 1744 321 l 1731 311 l 1744 296 l 1108 296 l 1103 279 l 1739 279 l 1717 264 l 1725 254 m 636 108 q 653 67 636 83 q 699 51 671 51 q 763 74 733 51 q 804 132 793 97 q 807 154 807 140 q 790 195 807 179 q 744 211 774 211 q 669 181 703 211 q 636 108 636 150 m 1075 65 q 1124 51 1093 51 q 1172 65 1150 51 q 1200 103 1193 79 q 1201 115 1201 107 q 1164 151 1201 143 q 1153 155 1160 153 q 1147 161 1147 157 q 1164 168 1147 168 q 1185 164 1174 168 q 1204 153 1197 160 l 1218 200 q 1176 211 1196 211 q 1127 199 1147 211 q 1100 164 1107 186 q 1099 150 1099 158 q 1106 130 1099 138 q 1131 115 1114 122 q 1144 111 1135 114 q 1151 103 1153 108 q 1136 94 1149 94 q 1090 117 1119 94 l 1075 65 m 1268 108 q 1285 67 1268 83 q 1329 51 1303 51 q 1368 61 1346 51 l 1383 110 q 1344 96 1365 96 q 1326 102 1333 96 q 1319 119 1319 108 q 1333 152 1319 138 q 1365 167 1347 167 q 1393 157 1381 167 l 1406 203 q 1376 211 1396 211 q 1301 181 1335 211 q 1268 108 1268 150 m 1390 108 q 1408 67 1390 83 q 1454 51 1425 51 q 1519 74 1489 51 q 1560 132 1550 97 q 1563 153 1563 139 q 1545 195 1563 179 q 1500 211 1528 211 q 1424 181 1458 211 q 1390 108 1390 150 m 7 164 l 57 164 l -31 56 l 101 56 l 114 99 l 61 99 l 149 207 l 19 207 l 7 164 m 268 207 l 158 207 l 115 56 l 226 56 l 239 97 l 176 97 l 179 111 l 232 111 l 244 153 l 192 153 l 196 165 l 257 165 l 268 207 m 263 164 l 299 164 l 268 56 l 317 56 l 347 164 l 383 164 l 396 207 l 275 207 l 263 164 m 400 79 l 443 79 l 442 56 l 494 56 l 486 207 l 431 207 l 336 56 l 386 56 l 400 79 m 656 207 l 546 207 l 503 56 l 551 56 l 565 103 l 617 103 l 628 143 l 576 143 l 583 165 l 644 165 l 656 207 m 938 56 l 981 207 l 932 207 l 910 126 l 886 207 l 836 207 l 793 56 l 842 56 l 861 129 l 888 56 l 938 56 m 976 164 l 1013 164 l 982 56 l 1031 56 l 1061 164 l 1096 164 l 1108 207 l 989 207 l 976 164 m 1639 207 l 1590 207 l 1547 56 l 1596 56 l 1613 115 l 1622 78 l 1657 78 l 1686 115 l 1669 56 l 1717 56 l 1760 207 l 1711 207 l 1656 138 l 1639 207 m 756 132 q 738 106 750 117 q 711 96 725 96 q 693 102 700 96 q 686 119 686 108 q 700 152 686 138 q 732 167 714 167 q 753 157 746 167 q 756 132 760 147 m 1511 132 q 1493 106 1506 117 q 1467 96 1481 96 q 1449 102 1456 96 q 1442 119 1442 108 q 1456 152 1442 138 q 1488 167 1469 167 q 1508 156 1501 167 q 1511 132 1515 146 m 444 156 l 443 119 l 422 119 l 443 156 l 444 156 m 1199 75 q 1197 68 1197 72 q 1217 51 1197 51 q 1235 58 1226 51 q 1247 75 1244 65 q 1249 82 1249 78 q 1244 93 1249 89 q 1231 97 1239 97 q 1210 91 1219 97 q 1199 75 1201 85 z "},"8":{"ha":1994,"x_min":-31,"x_max":1886,"o":"m 1886 642 l 1810 374 l 68 374 l 144 642 l 819 642 q 919 772 847 719 q 1068 825 990 825 q 1175 785 1135 825 q 1215 683 1215 746 q 1211 642 1215 663 l 1886 642 m 1167 760 q 1063 806 1128 806 q 931 760 994 806 l 1167 760 m 1115 515 q 1188 628 1169 565 q 1196 678 1196 656 q 1178 746 1196 714 l 881 515 l 1115 515 m 906 740 q 833 628 851 690 q 826 581 826 600 q 846 510 826 540 l 1143 740 l 906 740 m 1253 421 q 1326 446 1292 421 q 1371 510 1360 471 q 1374 533 1374 518 q 1355 580 1374 563 q 1304 597 1336 597 q 1222 563 1258 597 q 1185 483 1185 529 q 1203 438 1185 456 q 1253 421 1222 421 m 243 544 l 282 544 l 296 593 l 163 593 l 149 544 l 189 544 l 154 425 l 208 425 l 243 544 m 343 425 l 400 425 l 389 489 q 425 549 425 514 q 411 581 425 568 q 375 593 397 593 l 306 593 l 257 425 l 311 425 l 325 474 l 336 474 l 343 425 m 408 425 l 461 425 l 510 593 l 457 593 l 408 425 m 590 451 l 589 425 l 647 425 l 639 593 l 576 593 l 471 425 l 528 425 l 543 451 l 590 451 m 657 425 l 771 425 l 785 471 l 725 471 l 760 593 l 706 593 l 657 425 m 1463 425 l 1518 425 l 1567 593 l 1513 593 l 1488 504 l 1461 593 l 1406 593 l 1357 425 l 1411 425 l 1433 507 l 1463 425 m 1535 425 l 1649 425 l 1663 471 l 1603 471 l 1638 593 l 1583 593 l 1535 425 m 1733 425 l 1753 492 l 1839 593 l 1776 593 l 1740 543 l 1733 593 l 1669 593 l 1699 492 l 1679 425 l 1733 425 m 1290 549 q 1311 541 1304 549 q 1318 521 1318 533 q 1303 485 1318 500 q 1267 469 1288 469 q 1247 477 1254 469 q 1240 496 1240 485 q 1256 533 1240 517 q 1290 549 1271 549 m 361 547 q 368 538 368 547 q 363 524 368 529 q 351 518 357 518 l 338 518 l 347 547 l 361 547 m 567 496 l 589 536 l 590 536 l 590 496 l 567 496 m 856 496 q 961 451 893 451 q 1092 496 1028 451 l 856 496 m 701 244 q 735 235 717 235 q 763 243 750 235 q 781 267 775 251 l 782 272 q 757 297 782 288 q 747 301 754 299 q 739 311 739 304 q 747 325 739 319 q 764 331 754 331 q 789 321 779 331 l 793 339 q 768 346 782 346 q 740 338 753 346 q 724 315 728 329 q 722 306 722 311 q 744 283 722 293 q 764 267 765 276 q 739 250 758 250 q 707 263 719 250 l 701 244 m 835 275 q 847 246 835 257 q 878 235 858 235 q 928 256 906 235 q 951 307 951 278 q 940 335 951 324 q 910 346 928 346 q 858 324 882 346 q 835 275 835 301 m 1043 233 l 1074 343 l 1057 343 l 1036 268 l 990 344 l 982 344 l 950 236 l 967 236 l 988 308 l 1035 233 l 1043 233 m 126 343 l 57 343 l 26 236 l 43 236 l 56 276 l 101 276 l 106 292 l 60 292 l 69 328 l 122 328 l 126 343 m 122 278 q 121 265 121 274 q 129 243 121 251 q 153 235 138 235 q 188 247 172 235 q 210 278 204 258 l 228 343 l 211 343 l 193 278 q 179 258 190 267 q 157 250 168 250 q 140 258 146 250 q 139 278 135 265 l 157 343 l 140 343 l 122 278 m 265 343 l 249 343 l 218 236 l 283 236 l 288 251 l 239 251 l 265 343 m 346 343 l 329 343 l 299 236 l 365 236 l 369 251 l 319 251 l 346 343 m 465 236 l 540 343 l 521 343 l 468 264 l 460 343 l 440 343 l 454 236 l 465 236 m 624 343 l 554 343 l 524 236 l 593 236 l 597 251 l 544 251 l 554 283 l 600 283 l 604 297 l 558 297 l 567 328 l 619 328 l 624 343 m 671 236 l 690 236 l 682 279 q 707 308 703 290 q 708 318 708 311 q 701 336 708 329 q 682 343 694 343 l 642 343 l 611 236 l 628 236 l 639 275 l 664 275 l 671 236 m 835 343 l 818 343 l 788 236 l 804 236 l 835 343 m 932 303 q 916 265 932 281 q 882 250 900 250 q 860 258 868 250 q 853 279 853 265 q 868 315 853 300 q 904 329 883 329 q 924 322 917 329 q 932 303 932 314 m 692 314 q 683 297 692 304 q 667 289 675 289 l 643 289 l 654 328 l 678 328 q 692 314 692 328 m 1725 254 l 1769 288 l 1744 321 l 1731 311 l 1744 296 l 1108 296 l 1103 279 l 1739 279 l 1717 264 l 1725 254 m 636 108 q 653 67 636 83 q 699 51 671 51 q 763 74 733 51 q 804 132 793 97 q 807 154 807 140 q 790 195 807 179 q 744 211 774 211 q 669 181 703 211 q 636 108 636 150 m 1075 65 q 1124 51 1093 51 q 1172 65 1150 51 q 1200 103 1193 79 q 1201 115 1201 107 q 1164 151 1201 143 q 1153 155 1160 153 q 1147 161 1147 157 q 1164 168 1147 168 q 1185 164 1174 168 q 1204 153 1197 160 l 1218 200 q 1176 211 1196 211 q 1127 199 1147 211 q 1100 164 1107 186 q 1099 150 1099 158 q 1106 130 1099 138 q 1131 115 1114 122 q 1144 111 1135 114 q 1151 103 1153 108 q 1136 94 1149 94 q 1090 117 1119 94 l 1075 65 m 1268 108 q 1285 67 1268 83 q 1329 51 1303 51 q 1368 61 1346 51 l 1383 110 q 1344 96 1365 96 q 1326 102 1333 96 q 1319 119 1319 108 q 1333 152 1319 138 q 1365 167 1347 167 q 1393 157 1381 167 l 1406 203 q 1376 211 1396 211 q 1301 181 1335 211 q 1268 108 1268 150 m 1390 108 q 1408 67 1390 83 q 1454 51 1425 51 q 1519 74 1489 51 q 1560 132 1550 97 q 1563 153 1563 139 q 1545 195 1563 179 q 1500 211 1528 211 q 1424 181 1458 211 q 1390 108 1390 150 m 7 164 l 57 164 l -31 56 l 101 56 l 114 99 l 61 99 l 149 207 l 19 207 l 7 164 m 268 207 l 158 207 l 115 56 l 226 56 l 239 97 l 176 97 l 179 111 l 232 111 l 244 153 l 192 153 l 196 165 l 257 165 l 268 207 m 263 164 l 299 164 l 268 56 l 317 56 l 347 164 l 383 164 l 396 207 l 275 207 l 263 164 m 400 79 l 443 79 l 442 56 l 494 56 l 486 207 l 431 207 l 336 56 l 386 56 l 400 79 m 656 207 l 546 207 l 503 56 l 551 56 l 565 103 l 617 103 l 628 143 l 576 143 l 583 165 l 644 165 l 656 207 m 938 56 l 981 207 l 932 207 l 910 126 l 886 207 l 836 207 l 793 56 l 842 56 l 861 129 l 888 56 l 938 56 m 976 164 l 1013 164 l 982 56 l 1031 56 l 1061 164 l 1096 164 l 1108 207 l 989 207 l 976 164 m 1639 207 l 1590 207 l 1547 56 l 1596 56 l 1613 115 l 1622 78 l 1657 78 l 1686 115 l 1669 56 l 1717 56 l 1760 207 l 1711 207 l 1656 138 l 1639 207 m 756 132 q 738 106 750 117 q 711 96 725 96 q 693 102 700 96 q 686 119 686 108 q 700 152 686 138 q 732 167 714 167 q 753 157 746 167 q 756 132 760 147 m 1511 132 q 1493 106 1506 117 q 1467 96 1481 96 q 1449 102 1456 96 q 1442 119 1442 108 q 1456 152 1442 138 q 1488 167 1469 167 q 1508 156 1501 167 q 1511 132 1515 146 m 444 156 l 443 119 l 422 119 l 443 156 l 444 156 m 1199 75 q 1197 68 1197 72 q 1217 51 1197 51 q 1235 58 1226 51 q 1247 75 1244 65 q 1249 82 1249 78 q 1244 93 1249 89 q 1231 97 1239 97 q 1210 91 1219 97 q 1199 75 1201 85 z "},"9":{"ha":1857,"x_min":-31,"x_max":1886,"o":"m 1886 642 l 1810 374 l 68 374 l 144 642 l 819 642 q 919 772 847 719 q 1068 825 990 825 q 1175 785 1135 825 q 1215 683 1215 746 q 1211 642 1215 663 l 1886 642 m 1167 760 q 1063 806 1128 806 q 931 760 994 806 l 1167 760 m 1115 515 q 1188 628 1169 565 q 1196 678 1196 656 q 1178 746 1196 714 l 881 515 l 1115 515 m 906 740 q 833 628 851 690 q 826 581 826 600 q 846 510 826 540 l 1143 740 l 906 740 m 1253 421 q 1326 446 1292 421 q 1371 510 1360 471 q 1374 533 1374 518 q 1355 580 1374 563 q 1304 597 1336 597 q 1222 563 1258 597 q 1185 483 1185 529 q 1203 438 1185 456 q 1253 421 1222 421 m 243 544 l 282 544 l 296 593 l 163 593 l 149 544 l 189 544 l 154 425 l 208 425 l 243 544 m 343 425 l 400 425 l 389 489 q 425 549 425 514 q 411 581 425 568 q 375 593 397 593 l 306 593 l 257 425 l 311 425 l 325 474 l 336 474 l 343 425 m 408 425 l 461 425 l 510 593 l 457 593 l 408 425 m 590 451 l 589 425 l 647 425 l 639 593 l 576 593 l 471 425 l 528 425 l 543 451 l 590 451 m 657 425 l 771 425 l 785 471 l 725 471 l 760 593 l 706 593 l 657 425 m 1463 425 l 1518 425 l 1567 593 l 1513 593 l 1488 504 l 1461 593 l 1406 593 l 1357 425 l 1411 425 l 1433 507 l 1463 425 m 1535 425 l 1649 425 l 1663 471 l 1603 471 l 1638 593 l 1583 593 l 1535 425 m 1733 425 l 1753 492 l 1839 593 l 1776 593 l 1740 543 l 1733 593 l 1669 593 l 1699 492 l 1679 425 l 1733 425 m 1290 549 q 1311 541 1304 549 q 1318 521 1318 533 q 1303 485 1318 500 q 1267 469 1288 469 q 1247 477 1254 469 q 1240 496 1240 485 q 1256 533 1240 517 q 1290 549 1271 549 m 361 547 q 368 538 368 547 q 363 524 368 529 q 351 518 357 518 l 338 518 l 347 547 l 361 547 m 567 496 l 589 536 l 590 536 l 590 496 l 567 496 m 856 496 q 961 451 893 451 q 1092 496 1028 451 l 856 496 m 701 244 q 735 235 717 235 q 763 243 750 235 q 781 267 775 251 l 782 272 q 757 297 782 288 q 747 301 754 299 q 739 311 739 304 q 747 325 739 319 q 764 331 754 331 q 789 321 779 331 l 793 339 q 768 346 782 346 q 740 338 753 346 q 724 315 728 329 q 722 306 722 311 q 744 283 722 293 q 764 267 765 276 q 739 250 758 250 q 707 263 719 250 l 701 244 m 835 275 q 847 246 835 257 q 878 235 858 235 q 928 256 906 235 q 951 307 951 278 q 940 335 951 324 q 910 346 928 346 q 858 324 882 346 q 835 275 835 301 m 1043 233 l 1074 343 l 1057 343 l 1036 268 l 990 344 l 982 344 l 950 236 l 967 236 l 988 308 l 1035 233 l 1043 233 m 126 343 l 57 343 l 26 236 l 43 236 l 56 276 l 101 276 l 106 292 l 60 292 l 69 328 l 122 328 l 126 343 m 122 278 q 121 265 121 274 q 129 243 121 251 q 153 235 138 235 q 188 247 172 235 q 210 278 204 258 l 228 343 l 211 343 l 193 278 q 179 258 190 267 q 157 250 168 250 q 140 258 146 250 q 139 278 135 265 l 157 343 l 140 343 l 122 278 m 265 343 l 249 343 l 218 236 l 283 236 l 288 251 l 239 251 l 265 343 m 346 343 l 329 343 l 299 236 l 365 236 l 369 251 l 319 251 l 346 343 m 465 236 l 540 343 l 521 343 l 468 264 l 460 343 l 440 343 l 454 236 l 465 236 m 624 343 l 554 343 l 524 236 l 593 236 l 597 251 l 544 251 l 554 283 l 600 283 l 604 297 l 558 297 l 567 328 l 619 328 l 624 343 m 671 236 l 690 236 l 682 279 q 707 308 703 290 q 708 318 708 311 q 701 336 708 329 q 682 343 694 343 l 642 343 l 611 236 l 628 236 l 639 275 l 664 275 l 671 236 m 835 343 l 818 343 l 788 236 l 804 236 l 835 343 m 932 303 q 916 265 932 281 q 882 250 900 250 q 860 258 868 250 q 853 279 853 265 q 868 315 853 300 q 904 329 883 329 q 924 322 917 329 q 932 303 932 314 m 692 314 q 683 297 692 304 q 667 289 675 289 l 643 289 l 654 328 l 678 328 q 692 314 692 328 m 1725 254 l 1769 288 l 1744 321 l 1731 311 l 1744 296 l 1108 296 l 1103 279 l 1739 279 l 1717 264 l 1725 254 m 636 108 q 653 67 636 83 q 699 51 671 51 q 763 74 733 51 q 804 132 793 97 q 807 154 807 140 q 790 195 807 179 q 744 211 774 211 q 669 181 703 211 q 636 108 636 150 m 1075 65 q 1124 51 1093 51 q 1172 65 1150 51 q 1200 103 1193 79 q 1201 115 1201 107 q 1164 151 1201 143 q 1153 155 1160 153 q 1147 161 1147 157 q 1164 168 1147 168 q 1185 164 1174 168 q 1204 153 1197 160 l 1218 200 q 1176 211 1196 211 q 1127 199 1147 211 q 1100 164 1107 186 q 1099 150 1099 158 q 1106 130 1099 138 q 1131 115 1114 122 q 1144 111 1135 114 q 1151 103 1153 108 q 1136 94 1149 94 q 1090 117 1119 94 l 1075 65 m 1268 108 q 1285 67 1268 83 q 1329 51 1303 51 q 1368 61 1346 51 l 1383 110 q 1344 96 1365 96 q 1326 102 1333 96 q 1319 119 1319 108 q 1333 152 1319 138 q 1365 167 1347 167 q 1393 157 1381 167 l 1406 203 q 1376 211 1396 211 q 1301 181 1335 211 q 1268 108 1268 150 m 1390 108 q 1408 67 1390 83 q 1454 51 1425 51 q 1519 74 1489 51 q 1560 132 1550 97 q 1563 153 1563 139 q 1545 195 1563 179 q 1500 211 1528 211 q 1424 181 1458 211 q 1390 108 1390 150 m 7 164 l 57 164 l -31 56 l 101 56 l 114 99 l 61 99 l 149 207 l 19 207 l 7 164 m 268 207 l 158 207 l 115 56 l 226 56 l 239 97 l 176 97 l 179 111 l 232 111 l 244 153 l 192 153 l 196 165 l 257 165 l 268 207 m 263 164 l 299 164 l 268 56 l 317 56 l 347 164 l 383 164 l 396 207 l 275 207 l 263 164 m 400 79 l 443 79 l 442 56 l 494 56 l 486 207 l 431 207 l 336 56 l 386 56 l 400 79 m 656 207 l 546 207 l 503 56 l 551 56 l 565 103 l 617 103 l 628 143 l 576 143 l 583 165 l 644 165 l 656 207 m 938 56 l 981 207 l 932 207 l 910 126 l 886 207 l 836 207 l 793 56 l 842 56 l 861 129 l 888 56 l 938 56 m 976 164 l 1013 164 l 982 56 l 1031 56 l 1061 164 l 1096 164 l 1108 207 l 989 207 l 976 164 m 1639 207 l 1590 207 l 1547 56 l 1596 56 l 1613 115 l 1622 78 l 1657 78 l 1686 115 l 1669 56 l 1717 56 l 1760 207 l 1711 207 l 1656 138 l 1639 207 m 756 132 q 738 106 750 117 q 711 96 725 96 q 693 102 700 96 q 686 119 686 108 q 700 152 686 138 q 732 167 714 167 q 753 157 746 167 q 756 132 760 147 m 1511 132 q 1493 106 1506 117 q 1467 96 1481 96 q 1449 102 1456 96 q 1442 119 1442 108 q 1456 152 1442 138 q 1488 167 1469 167 q 1508 156 1501 167 q 1511 132 1515 146 m 444 156 l 443 119 l 422 119 l 443 156 l 444 156 m 1199 75 q 1197 68 1197 72 q 1217 51 1197 51 q 1235 58 1226 51 q 1247 75 1244 65 q 1249 82 1249 78 q 1244 93 1249 89 q 1231 97 1239 97 q 1210 91 1219 97 q 1199 75 1201 85 z "},"\r":{"ha":768,"x_min":0,"x_max":0,"o":""}," ":{"ha":378,"x_min":0,"x_max":0,"o":""},"":{"ha":1872,"x_min":-31,"x_max":1886,"o":"m 1886 642 l 1810 374 l 68 374 l 144 642 l 819 642 q 919 772 847 719 q 1068 825 990 825 q 1175 785 1135 825 q 1215 683 1215 746 q 1211 642 1215 663 l 1886 642 m 1167 760 q 1063 806 1128 806 q 931 760 994 806 l 1167 760 m 1115 515 q 1188 628 1169 565 q 1196 678 1196 656 q 1178 746 1196 714 l 881 515 l 1115 515 m 906 740 q 833 628 851 690 q 826 581 826 600 q 846 510 826 540 l 1143 740 l 906 740 m 1253 421 q 1326 446 1292 421 q 1371 510 1360 471 q 1374 533 1374 518 q 1355 580 1374 563 q 1304 597 1336 597 q 1222 563 1258 597 q 1185 483 1185 529 q 1203 438 1185 456 q 1253 421 1222 421 m 243 544 l 282 544 l 296 593 l 163 593 l 149 544 l 189 544 l 154 425 l 208 425 l 243 544 m 343 425 l 400 425 l 389 489 q 425 549 425 514 q 411 581 425 568 q 375 593 397 593 l 306 593 l 257 425 l 311 425 l 325 474 l 336 474 l 343 425 m 408 425 l 461 425 l 510 593 l 457 593 l 408 425 m 590 451 l 589 425 l 647 425 l 639 593 l 576 593 l 471 425 l 528 425 l 543 451 l 590 451 m 657 425 l 771 425 l 785 471 l 725 471 l 760 593 l 706 593 l 657 425 m 1463 425 l 1518 425 l 1567 593 l 1513 593 l 1488 504 l 1461 593 l 1406 593 l 1357 425 l 1411 425 l 1433 507 l 1463 425 m 1535 425 l 1649 425 l 1663 471 l 1603 471 l 1638 593 l 1583 593 l 1535 425 m 1733 425 l 1753 492 l 1839 593 l 1776 593 l 1740 543 l 1733 593 l 1669 593 l 1699 492 l 1679 425 l 1733 425 m 1290 549 q 1311 541 1304 549 q 1318 521 1318 533 q 1303 485 1318 500 q 1267 469 1288 469 q 1247 477 1254 469 q 1240 496 1240 485 q 1256 533 1240 517 q 1290 549 1271 549 m 361 547 q 368 538 368 547 q 363 524 368 529 q 351 518 357 518 l 338 518 l 347 547 l 361 547 m 567 496 l 589 536 l 590 536 l 590 496 l 567 496 m 856 496 q 961 451 893 451 q 1092 496 1028 451 l 856 496 m 701 244 q 735 235 717 235 q 763 243 750 235 q 781 267 775 251 l 782 272 q 757 297 782 288 q 747 301 754 299 q 739 311 739 304 q 747 325 739 319 q 764 331 754 331 q 789 321 779 331 l 793 339 q 768 346 782 346 q 740 338 753 346 q 724 315 728 329 q 722 306 722 311 q 744 283 722 293 q 764 267 765 276 q 739 250 758 250 q 707 263 719 250 l 701 244 m 835 275 q 847 246 835 257 q 878 235 858 235 q 928 256 906 235 q 951 307 951 278 q 940 335 951 324 q 910 346 928 346 q 858 324 882 346 q 835 275 835 301 m 1043 233 l 1074 343 l 1057 343 l 1036 268 l 990 344 l 982 344 l 950 236 l 967 236 l 988 308 l 1035 233 l 1043 233 m 126 343 l 57 343 l 26 236 l 43 236 l 56 276 l 101 276 l 106 292 l 60 292 l 69 328 l 122 328 l 126 343 m 122 278 q 121 265 121 274 q 129 243 121 251 q 153 235 138 235 q 188 247 172 235 q 210 278 204 258 l 228 343 l 211 343 l 193 278 q 179 258 190 267 q 157 250 168 250 q 140 258 146 250 q 139 278 135 265 l 157 343 l 140 343 l 122 278 m 265 343 l 249 343 l 218 236 l 283 236 l 288 251 l 239 251 l 265 343 m 346 343 l 329 343 l 299 236 l 365 236 l 369 251 l 319 251 l 346 343 m 465 236 l 540 343 l 521 343 l 468 264 l 460 343 l 440 343 l 454 236 l 465 236 m 624 343 l 554 343 l 524 236 l 593 236 l 597 251 l 544 251 l 554 283 l 600 283 l 604 297 l 558 297 l 567 328 l 619 328 l 624 343 m 671 236 l 690 236 l 682 279 q 707 308 703 290 q 708 318 708 311 q 701 336 708 329 q 682 343 694 343 l 642 343 l 611 236 l 628 236 l 639 275 l 664 275 l 671 236 m 835 343 l 818 343 l 788 236 l 804 236 l 835 343 m 932 303 q 916 265 932 281 q 882 250 900 250 q 860 258 868 250 q 853 279 853 265 q 868 315 853 300 q 904 329 883 329 q 924 322 917 329 q 932 303 932 314 m 692 314 q 683 297 692 304 q 667 289 675 289 l 643 289 l 654 328 l 678 328 q 692 314 692 328 m 1725 254 l 1769 288 l 1744 321 l 1731 311 l 1744 296 l 1108 296 l 1103 279 l 1739 279 l 1717 264 l 1725 254 m 636 108 q 653 67 636 83 q 699 51 671 51 q 763 74 733 51 q 804 132 793 97 q 807 154 807 140 q 790 195 807 179 q 744 211 774 211 q 669 181 703 211 q 636 108 636 150 m 1075 65 q 1124 51 1093 51 q 1172 65 1150 51 q 1200 103 1193 79 q 1201 115 1201 107 q 1164 151 1201 143 q 1153 155 1160 153 q 1147 161 1147 157 q 1164 168 1147 168 q 1185 164 1174 168 q 1204 153 1197 160 l 1218 200 q 1176 211 1196 211 q 1127 199 1147 211 q 1100 164 1107 186 q 1099 150 1099 158 q 1106 130 1099 138 q 1131 115 1114 122 q 1144 111 1135 114 q 1151 103 1153 108 q 1136 94 1149 94 q 1090 117 1119 94 l 1075 65 m 1268 108 q 1285 67 1268 83 q 1329 51 1303 51 q 1368 61 1346 51 l 1383 110 q 1344 96 1365 96 q 1326 102 1333 96 q 1319 119 1319 108 q 1333 152 1319 138 q 1365 167 1347 167 q 1393 157 1381 167 l 1406 203 q 1376 211 1396 211 q 1301 181 1335 211 q 1268 108 1268 150 m 1390 108 q 1408 67 1390 83 q 1454 51 1425 51 q 1519 74 1489 51 q 1560 132 1550 97 q 1563 153 1563 139 q 1545 195 1563 179 q 1500 211 1528 211 q 1424 181 1458 211 q 1390 108 1390 150 m 7 164 l 57 164 l -31 56 l 101 56 l 114 99 l 61 99 l 149 207 l 19 207 l 7 164 m 268 207 l 158 207 l 115 56 l 226 56 l 239 97 l 176 97 l 179 111 l 232 111 l 244 153 l 192 153 l 196 165 l 257 165 l 268 207 m 263 164 l 299 164 l 268 56 l 317 56 l 347 164 l 383 164 l 396 207 l 275 207 l 263 164 m 400 79 l 443 79 l 442 56 l 494 56 l 486 207 l 431 207 l 336 56 l 386 56 l 400 79 m 656 207 l 546 207 l 503 56 l 551 56 l 565 103 l 617 103 l 628 143 l 576 143 l 583 165 l 644 165 l 656 207 m 938 56 l 981 207 l 932 207 l 910 126 l 886 207 l 836 207 l 793 56 l 842 56 l 861 129 l 888 56 l 938 56 m 976 164 l 1013 164 l 982 56 l 1031 56 l 1061 164 l 1096 164 l 1108 207 l 989 207 l 976 164 m 1639 207 l 1590 207 l 1547 56 l 1596 56 l 1613 115 l 1622 78 l 1657 78 l 1686 115 l 1669 56 l 1717 56 l 1760 207 l 1711 207 l 1656 138 l 1639 207 m 756 132 q 738 106 750 117 q 711 96 725 96 q 693 102 700 96 q 686 119 686 108 q 700 152 686 138 q 732 167 714 167 q 753 157 746 167 q 756 132 760 147 m 1511 132 q 1493 106 1506 117 q 1467 96 1481 96 q 1449 102 1456 96 q 1442 119 1442 108 q 1456 152 1442 138 q 1488 167 1469 167 q 1508 156 1501 167 q 1511 132 1515 146 m 444 156 l 443 119 l 422 119 l 443 156 l 444 156 m 1199 75 q 1197 68 1197 72 q 1217 51 1197 51 q 1235 58 1226 51 q 1247 75 1244 65 q 1249 82 1249 78 q 1244 93 1249 89 q 1231 97 1239 97 q 1210 91 1219 97 q 1199 75 1201 85 z "},"A":{"ha":1061,"x_min":-83,"x_max":978,"o":"m 782 974 l 846 118 l 978 118 l 944 0 l 719 0 l 703 233 l 290 233 l 139 0 l -83 0 l -49 118 l 63 118 l 542 856 l 431 856 l 465 974 l 782 974 m 661 808 l 367 353 l 694 353 l 661 808 z "},"B":{"ha":946,"x_min":64,"x_max":960,"o":"m 693 974 q 892 917 824 974 q 960 767 960 860 q 947 683 960 728 q 879 569 929 617 q 756 500 829 522 q 847 431 815 478 q 879 319 879 383 q 867 239 879 281 q 731 60 833 121 q 488 0 629 0 l 64 0 l 308 854 l 194 854 l 229 974 l 693 974 m 810 696 q 818 749 818 725 q 663 856 818 856 l 450 856 l 365 558 l 589 558 q 732 595 674 558 q 810 696 790 632 m 731 267 q 739 319 739 296 q 696 408 739 376 q 574 440 653 440 l 332 440 l 240 118 l 479 118 q 645 153 582 118 q 731 267 708 188 z "},"C":{"ha":922,"x_min":75,"x_max":1028,"o":"m 943 608 l 821 608 l 883 828 q 700 860 801 860 q 428 779 538 860 q 267 576 319 699 q 215 326 215 453 q 274 167 215 221 q 446 114 333 114 q 640 138 547 114 q 822 213 732 163 l 804 69 q 624 4 724 26 q 433 -18 525 -18 q 168 67 261 -18 q 75 313 75 153 q 144 635 75 479 q 357 892 214 792 q 706 992 500 992 q 888 968 800 992 q 1028 906 975 944 l 943 608 z "},"D":{"ha":1046,"x_min":64,"x_max":1044,"o":"m 64 0 l 308 854 l 194 854 l 229 974 l 639 974 q 938 881 831 974 q 1044 626 1044 789 q 972 326 1044 469 q 758 91 900 182 q 414 0 615 0 l 64 0 m 415 118 q 682 192 571 118 q 849 383 793 267 q 904 622 904 500 q 833 794 904 733 q 625 856 763 856 l 450 856 l 240 118 l 415 118 z "},"E":{"ha":925,"x_min":-32,"x_max":1031,"o":"m 1031 974 l 949 690 l 825 690 l 872 856 l 468 856 l 383 560 l 760 560 l 725 442 l 350 442 l 257 118 l 674 118 l 724 293 l 847 293 l 797 118 l 799 118 l 764 0 l -32 0 l 3 118 l 115 118 l 326 854 l 213 854 l 246 974 l 1031 974 z "},"F":{"ha":893,"x_min":-32,"x_max":1025,"o":"m 1025 974 l 990 856 l 942 686 l 818 686 l 865 856 l 468 856 l 381 549 l 757 549 l 724 431 l 346 431 l 257 119 l 371 119 l 336 0 l -32 0 l 3 118 l 115 118 l 326 854 l 213 854 l 246 974 l 1025 974 z "},"G":{"ha":996,"x_min":78,"x_max":1061,"o":"m 983 628 l 858 628 l 915 824 q 708 860 811 860 q 433 781 543 860 q 271 581 322 701 q 219 333 219 461 q 285 170 219 226 q 482 114 351 114 q 601 129 535 114 q 725 169 667 144 l 783 372 l 614 372 l 649 490 l 960 490 l 844 86 q 660 10 768 39 q 467 -18 553 -18 q 178 72 279 -18 q 78 322 78 161 q 150 647 78 493 q 367 896 222 800 q 718 992 513 992 q 903 967 807 992 q 1061 901 1000 943 l 983 628 z "},"H":{"ha":1164,"x_min":-32,"x_max":1275,"o":"m 1275 974 l 1242 856 l 1129 856 l 918 119 l 1032 119 l 997 0 l 629 0 l 664 118 l 776 118 l 869 443 l 350 443 l 257 119 l 371 119 l 336 0 l -32 0 l 3 118 l 115 118 l 326 854 l 213 854 l 246 974 l 614 974 l 581 856 l 468 856 l 383 561 l 903 561 l 988 854 l 874 854 l 907 974 l 1275 974 z "},"I":{"ha":489,"x_min":-33,"x_max":601,"o":"m 114 142 l 313 832 l 318 856 l 213 856 l 246 974 l 601 974 l 567 856 l 461 856 l 454 832 l 256 142 l 250 118 l 357 118 l 322 0 l -33 0 l 1 118 l 108 118 l 114 142 z "},"J":{"ha":624,"x_min":-67,"x_max":703,"o":"m 168 -18 q -67 44 49 -18 l -18 169 q 76 129 28 144 q 164 114 125 114 q 297 163 251 114 q 372 318 342 213 l 526 856 l 283 856 l 318 974 l 703 974 l 506 289 q 380 55 460 128 q 168 -18 300 -18 z "},"K":{"ha":1083,"x_min":-32,"x_max":1160,"o":"m 946 974 l 1160 974 l 1125 856 l 992 856 l 678 576 l 828 161 q 851 125 838 135 q 889 115 865 115 q 954 124 915 115 l 958 7 q 853 -14 901 -14 q 758 20 794 -14 q 700 114 722 54 l 568 479 l 290 235 l 257 117 l 369 117 l 335 0 l 201 0 l 101 0 l -32 0 l 3 118 l 115 118 l 326 854 l 213 854 l 246 974 l 476 974 l 610 972 l 576 854 l 468 854 l 464 840 l 351 446 l 946 974 z "},"L":{"ha":897,"x_min":-32,"x_max":850,"o":"m 850 347 l 785 118 l 786 118 l 767 54 l 756 13 l 751 0 l 101 0 l -32 0 l 3 118 l 115 118 l 326 854 l 213 854 l 246 974 l 501 974 l 257 118 l 663 118 l 726 347 l 850 347 z "},"M":{"ha":1349,"x_min":-32,"x_max":1460,"o":"m 1185 974 l 1460 974 l 1425 856 l 1313 856 l 1101 119 l 1215 119 l 1181 0 l 946 0 l 813 0 l 847 118 l 960 118 l 1133 726 l 651 167 l 593 167 l 431 726 l 257 117 l 369 117 l 335 0 l 201 0 l -32 0 l 3 118 l 115 118 l 326 854 l 213 854 l 246 974 l 490 974 l 663 367 l 1185 974 z "},"N":{"ha":1176,"x_min":-32,"x_max":1288,"o":"m 3 118 l 115 118 l 326 854 l 213 854 l 246 974 l 472 974 l 819 233 l 999 857 l 888 857 l 921 975 q 1054 974 949 974 l 1288 974 l 1253 856 l 1142 856 l 931 119 l 1043 119 l 1010 0 l 785 0 l 436 743 l 257 118 l 369 119 l 335 0 l -32 0 l 3 118 z "},"O":{"ha":1078,"x_min":81,"x_max":1076,"o":"m 460 -18 q 181 76 282 -18 q 81 331 81 169 q 159 664 81 513 q 378 903 238 815 q 696 992 518 992 q 976 898 875 992 q 1076 640 1076 804 q 998 309 1076 460 q 778 70 919 158 q 460 -18 638 -18 m 471 114 q 708 187 603 114 q 874 378 814 260 q 935 632 935 497 q 872 801 935 742 q 685 860 808 860 q 448 787 554 860 q 281 594 342 714 q 221 342 221 475 q 284 174 221 233 q 471 114 347 114 z "},"P":{"ha":897,"x_min":-47,"x_max":958,"o":"m 643 974 q 873 908 788 974 q 958 728 958 843 q 906 540 958 629 q 752 393 854 450 q 510 336 650 336 l 304 336 l 242 117 l 354 117 l 321 0 l 188 0 l 86 0 l -47 0 l -12 118 l 99 118 l 310 854 l 196 854 l 231 974 l 643 974 m 514 456 q 673 494 604 456 q 778 592 742 532 q 815 714 815 651 q 767 818 815 781 q 631 856 718 856 l 454 856 l 339 456 l 514 456 z "},"Q":{"ha":1078,"x_min":81,"x_max":1076,"o":"m 1076 640 q 1004 321 1076 467 q 801 85 932 175 q 504 -17 671 -6 l 442 -233 l 299 -233 l 364 -10 q 155 103 229 14 q 81 331 81 193 q 159 664 81 513 q 378 903 238 815 q 696 992 518 992 q 976 898 875 992 q 1076 640 1076 804 m 471 114 q 708 187 603 114 q 874 378 814 260 q 935 632 935 497 q 872 801 935 742 q 685 860 808 860 q 448 787 554 860 q 281 594 342 714 q 221 342 221 475 q 284 174 221 233 q 471 114 347 114 z "},"R":{"ha":947,"x_min":-47,"x_max":965,"o":"m 965 742 q 891 526 965 618 q 681 399 817 435 l 729 174 q 752 128 736 140 q 796 115 768 115 q 853 124 826 115 l 858 4 q 806 -10 826 -6 q 753 -14 785 -14 q 651 22 688 -14 q 599 129 614 58 l 544 379 l 518 379 l 315 379 l 240 117 l 353 117 l 319 0 l 186 0 l 86 0 l -47 0 l -12 118 l 99 118 l 310 854 l 196 854 l 231 974 l 644 974 q 883 911 800 974 q 965 742 965 849 m 531 499 q 692 531 626 499 q 790 616 758 563 q 822 733 822 669 q 635 856 822 856 l 453 856 l 350 499 l 531 499 z "},"S":{"ha":844,"x_min":-15,"x_max":918,"o":"m 850 678 l 725 678 l 771 833 q 565 860 682 860 q 373 813 438 860 q 308 685 308 767 q 347 617 308 642 q 482 574 385 593 q 715 481 642 542 q 788 331 788 421 q 736 155 788 235 q 584 28 685 75 q 343 -19 483 -19 q 133 7 232 -19 q -15 68 35 33 l 57 324 l 181 324 l 133 157 q 354 113 242 113 q 521 142 456 113 q 615 215 586 171 q 643 310 643 260 q 598 387 643 360 q 450 435 553 414 q 233 520 300 464 q 165 664 165 576 q 213 835 165 761 q 354 950 261 908 q 578 992 447 992 q 918 918 804 992 l 850 678 z "},"T":{"ha":940,"x_min":135,"x_max":1083,"o":"m 182 856 l 217 974 l 1083 974 l 1001 688 l 876 688 l 925 856 l 686 856 l 475 119 l 589 119 l 554 0 l 186 0 l 221 118 l 333 118 l 543 856 l 306 856 l 258 688 l 135 688 l 183 856 l 182 856 z "},"U":{"ha":1075,"x_min":133,"x_max":1235,"o":"m 461 -14 q 222 62 310 -14 q 133 275 133 138 q 157 428 133 349 l 279 854 l 165 854 l 199 974 l 567 974 l 533 856 l 421 856 l 290 403 q 272 289 272 340 q 324 160 272 203 q 474 118 376 118 q 824 428 732 118 l 946 854 l 832 854 l 865 974 l 1235 974 l 1200 856 l 1088 856 l 957 403 q 773 96 901 206 q 461 -14 644 -14 z "},"V":{"ha":1046,"x_min":161,"x_max":1210,"o":"m 1210 974 l 1175 856 l 1043 856 l 494 0 l 354 0 l 296 856 l 161 856 l 196 974 l 433 974 l 476 179 l 974 974 l 1210 974 z "},"W":{"ha":1475,"x_min":161,"x_max":1638,"o":"m 1638 974 l 1603 856 l 1471 856 l 993 0 l 828 0 l 850 738 l 450 0 l 283 0 l 294 856 l 161 856 l 196 974 l 432 974 l 414 165 l 854 974 l 979 974 l 954 165 l 1401 974 l 1638 974 z "},"X":{"ha":1003,"x_min":-72,"x_max":1142,"o":"m 1107 856 l 983 856 l 635 479 l 765 118 l 911 118 l 876 0 l 660 0 l 519 404 l 144 0 l -72 0 l -39 118 l 78 118 l 454 521 l 336 856 l 186 856 l 221 974 l 443 974 l 571 590 l 919 974 l 1142 974 l 1107 856 z "},"Y":{"ha":999,"x_min":161,"x_max":1161,"o":"m 1128 856 l 992 856 l 560 313 l 506 119 l 618 119 l 585 0 l 217 0 l 251 118 l 363 118 l 419 315 l 301 856 l 161 856 l 196 974 l 415 974 l 514 454 l 519 454 l 917 974 l 1161 974 l 1128 856 z "},"Z":{"ha":885,"x_min":-51,"x_max":1007,"o":"m 1007 974 l 971 851 l 157 118 l 646 118 l 696 293 l 821 293 l 771 118 l 738 0 l -51 0 l -18 121 l 797 856 l 335 856 l 289 689 l 164 689 l 226 903 l 246 974 l 1007 974 z "},"":{"ha":1417,"x_min":-83,"x_max":1522,"o":"m 1522 974 l 1447 711 l 1322 711 l 1364 856 l 1007 856 l 921 556 l 1269 556 l 1236 436 l 888 436 l 796 118 l 1165 118 l 1206 258 l 1329 258 l 1289 118 l 1290 118 l 1256 0 l 640 0 l 507 0 l 542 118 l 654 118 l 683 221 l 319 221 l 129 0 l -83 0 l -49 118 l 75 118 l 707 856 l 618 856 l 653 974 l 1522 974 m 421 339 l 718 339 l 865 854 l 863 854 l 421 339 z "},"":{"ha":1485,"x_min":71,"x_max":1589,"o":"m 1514 711 l 1394 711 l 1436 856 l 1074 856 l 988 556 l 1339 556 l 1304 436 l 954 436 l 863 118 l 1238 118 l 1279 260 l 1397 260 l 1357 118 l 1358 118 l 1324 0 l 686 0 l 697 38 q 458 -18 579 -18 q 171 71 271 -18 q 71 321 71 160 q 100 510 71 406 q 316 874 172 757 q 694 992 460 992 q 834 972 767 992 q 949 918 901 953 l 965 974 l 1589 974 l 1514 711 m 910 782 q 686 860 846 860 q 238 486 343 860 q 211 326 211 397 q 469 115 211 115 q 615 142 542 115 q 749 218 688 168 l 910 782 z "},"":{"ha":1046,"x_min":64,"x_max":1044,"o":"m 639 974 q 938 881 831 974 q 1044 626 1044 789 q 972 326 1044 469 q 758 91 900 182 q 414 0 615 0 l 64 0 l 192 446 l 111 446 l 133 525 l 214 525 l 308 854 l 194 854 l 229 974 l 639 974 m 415 118 q 682 192 571 118 q 849 383 793 267 q 904 622 904 500 q 833 794 904 733 q 625 856 763 856 l 450 856 l 356 525 l 621 525 l 597 446 l 333 446 l 240 118 l 415 118 z "},"":{"ha":996,"x_min":-32,"x_max":1007,"o":"m 690 774 q 922 710 838 774 q 1007 542 1007 647 q 996 464 1007 501 q 854 264 957 329 q 576 199 751 199 l 281 199 l 257 117 l 369 117 l 335 0 l 201 0 l -32 0 l 3 118 l 115 118 l 326 854 l 213 854 l 246 974 l 476 974 l 610 972 l 576 854 l 468 854 l 464 840 l 444 774 l 690 774 m 858 488 q 865 535 865 508 q 817 624 865 593 q 679 656 769 656 l 411 656 l 314 318 l 583 318 q 763 363 690 318 q 858 488 835 407 z "},"":{"ha":1004,"x_min":-81,"x_max":1015,"o":"m 792 539 q 906 449 867 506 q 946 318 946 392 q 933 232 946 278 q 586 -15 861 -15 q 470 -1 531 -15 q 364 40 410 14 l 411 168 q 509 130 457 143 q 606 117 561 117 q 727 155 678 117 q 797 264 776 193 q 806 321 806 293 q 685 454 806 422 q 604 465 679 456 l 828 818 q 619 854 719 854 q 459 805 525 854 q 364 651 393 756 l 210 115 l 301 111 l 268 -6 q 160 0 179 0 l -81 0 l -46 118 l 67 118 l 228 681 q 632 986 314 986 q 829 960 722 986 q 1015 889 936 933 l 792 539 z "},"a":{"ha":872,"x_min":50,"x_max":860,"o":"m 682 171 q 676 143 676 156 q 718 113 676 113 q 757 117 740 113 l 756 -6 q 663 -17 718 -17 q 581 2 614 -17 q 538 60 549 21 q 303 -17 424 -17 q 119 51 188 -17 q 50 236 50 118 q 99 457 50 347 q 240 638 147 567 q 458 710 333 710 q 590 685 532 710 q 682 622 647 660 q 786 711 719 683 l 860 674 q 819 620 835 647 q 790 550 803 593 l 682 171 m 186 244 q 223 142 186 176 q 326 108 260 108 q 447 135 392 108 q 554 206 501 161 l 633 485 q 567 558 607 531 q 461 585 528 585 q 314 532 376 585 q 219 400 251 479 q 186 244 186 321 z "},"b":{"ha":857,"x_min":8,"x_max":804,"o":"m 550 708 q 735 641 667 708 q 804 457 804 574 q 757 236 804 346 q 617 54 710 126 q 394 -18 524 -18 q 183 68 261 -18 q 82 -19 143 6 l 8 18 q 49 73 33 46 q 76 143 64 100 l 282 860 l 190 858 l 221 969 q 453 975 311 975 l 428 890 l 363 660 q 550 708 453 708 m 392 108 q 539 161 476 108 q 635 294 601 214 q 668 450 668 374 q 631 550 668 517 q 528 583 594 583 q 317 497 419 583 l 228 189 q 293 131 254 153 q 392 108 332 108 z "},"c":{"ha":739,"x_min":53,"x_max":767,"o":"m 704 407 l 579 407 l 625 563 q 489 588 563 588 q 328 538 396 588 q 224 410 260 488 q 189 251 189 332 q 358 111 189 111 q 610 172 483 111 l 640 63 q 340 -14 496 -14 q 131 56 208 -14 q 53 247 53 125 q 101 465 53 358 q 249 642 149 572 q 496 713 350 713 q 656 690 582 713 q 767 621 729 668 l 704 407 z "},"d":{"ha":872,"x_min":50,"x_max":911,"o":"m 888 897 l 681 174 q 676 147 676 160 q 687 123 676 131 q 718 115 697 115 q 757 118 735 115 l 756 -3 q 663 -14 718 -14 q 538 63 558 -14 q 428 7 485 28 q 303 -14 371 -14 q 119 53 188 -14 q 50 239 50 119 q 98 459 50 349 q 238 641 146 569 q 457 713 331 713 q 582 690 526 713 q 675 632 638 667 l 742 868 l 649 868 l 681 974 q 911 979 771 979 l 888 897 m 185 246 q 222 144 185 178 q 325 111 258 111 q 446 138 392 111 q 554 210 500 165 l 633 488 q 567 560 607 533 q 461 588 528 588 q 313 535 376 588 q 217 403 250 482 q 185 246 185 324 z "},"e":{"ha":767,"x_min":56,"x_max":732,"o":"m 732 535 q 603 321 732 388 q 268 254 475 254 q 183 257 242 254 q 240 147 189 183 q 372 111 292 111 q 621 189 490 111 l 644 72 q 501 9 576 32 q 349 -14 425 -14 q 192 22 258 -14 q 90 122 125 58 q 56 268 56 186 q 107 478 56 375 q 260 647 158 581 q 504 713 361 713 q 676 662 621 713 q 732 535 732 611 m 199 368 q 498 398 393 365 q 603 519 603 431 q 492 588 603 588 q 304 525 381 588 q 199 368 228 463 z "},"f":{"ha":560,"x_min":-6,"x_max":772,"o":"m 600 881 q 524 867 553 881 q 475 820 494 853 q 438 726 456 788 l 429 699 l 622 699 l 588 581 l 396 581 l 268 133 l 264 119 l 378 121 l 342 3 q 204 0 286 0 l 115 0 q -6 3 42 0 l 24 118 l 126 118 l 260 581 l 139 581 l 174 699 l 293 699 l 308 750 q 417 945 347 888 q 601 1003 486 1003 q 703 991 656 1003 q 772 964 750 979 l 719 853 q 659 873 693 865 q 600 881 625 881 z "},"g":{"ha":815,"x_min":-46,"x_max":854,"o":"m 854 676 q 814 624 829 650 q 785 551 799 597 l 640 51 q 497 -196 596 -110 q 246 -282 399 -282 q 76 -262 146 -282 q -46 -206 7 -243 l 15 -93 q 122 -142 71 -128 q 242 -157 172 -157 q 407 -103 343 -157 q 508 67 471 -50 q 300 10 413 10 q 122 76 190 10 q 54 257 54 143 q 101 467 54 361 q 239 643 149 574 q 449 713 329 713 q 582 688 522 713 q 675 621 642 663 q 781 714 711 686 l 854 676 m 190 263 q 228 166 190 196 q 338 136 267 136 q 554 226 457 136 l 631 493 q 467 586 588 586 q 319 538 382 586 q 224 414 257 489 q 190 263 190 339 z "},"h":{"ha":932,"x_min":40,"x_max":807,"o":"m 729 174 q 725 147 725 160 q 735 123 725 131 q 767 115 746 115 q 804 118 785 115 l 803 -3 q 710 -14 768 -14 q 615 13 650 -14 q 581 100 581 40 q 593 179 581 133 l 658 407 q 674 492 674 460 q 644 564 674 542 q 556 586 615 586 q 433 560 497 586 q 319 493 369 535 l 178 0 l 40 0 l 288 863 l 196 863 l 226 974 q 458 979 318 979 l 433 894 l 365 656 q 583 713 476 713 q 749 654 692 713 q 807 500 807 596 q 792 394 807 446 l 729 174 z "},"i":{"ha":419,"x_min":79,"x_max":442,"o":"m 208 589 l 115 589 l 147 699 q 379 704 238 704 l 354 619 l 228 174 q 224 147 224 160 q 234 123 224 131 q 265 115 244 115 q 303 118 283 115 l 301 -3 q 208 -14 267 -14 q 114 13 149 -14 q 79 100 79 40 q 92 179 79 133 l 208 589 m 329 815 q 279 828 297 815 q 261 865 261 842 q 294 938 261 908 q 374 967 326 967 q 424 953 406 967 q 442 913 442 939 q 438 890 442 903 q 399 836 428 857 q 329 815 369 815 z "},"":{"ha":419,"x_min":79,"x_max":379,"o":"m 208 589 l 115 589 l 147 699 q 379 704 238 704 l 354 619 l 228 174 q 224 147 224 160 q 234 123 224 131 q 265 115 244 115 q 303 118 283 115 l 301 -3 q 208 -14 267 -14 q 114 13 149 -14 q 79 100 79 40 q 92 179 79 133 l 208 589 z "},"j":{"ha":360,"x_min":-97,"x_max":419,"o":"m -96 -194 q -31 -141 -60 -178 q 13 -58 -1 -104 l 197 589 l 106 589 l 136 699 q 368 704 226 704 l 343 619 l 156 -35 q 60 -210 124 -146 q -97 -283 -3 -274 l -96 -194 m 310 821 q 259 835 278 821 q 240 874 240 849 q 273 942 240 913 q 353 972 306 972 q 401 958 383 972 q 419 918 419 943 q 417 897 419 911 q 377 842 406 863 q 310 821 349 821 z "},"":{"ha":360,"x_min":-97,"x_max":368,"o":"m -96 -194 q -31 -141 -60 -178 q 13 -58 -1 -104 l 197 589 l 106 589 l 136 699 q 368 704 226 704 l 343 619 l 156 -35 q 60 -210 124 -146 q -97 -283 -3 -274 l -96 -194 z "},"k":{"ha":822,"x_min":42,"x_max":785,"o":"m 651 108 q 690 110 676 108 q 719 119 704 113 l 724 7 q 629 -14 678 -14 q 460 75 531 -14 l 353 210 l 289 304 q 506 344 425 308 q 618 427 586 381 q 650 513 650 474 q 621 568 650 549 q 542 588 592 588 q 408 546 472 588 q 300 429 344 504 l 178 0 l 42 0 l 288 863 l 196 863 l 226 974 q 458 979 318 979 l 433 894 l 360 638 q 582 713 461 713 q 728 663 672 713 q 785 536 785 614 q 758 424 785 482 q 667 315 731 367 q 499 235 603 264 l 560 156 q 600 119 579 131 q 651 108 621 108 z "},"l":{"ha":428,"x_min":82,"x_max":458,"o":"m 313 3 q 215 -14 261 -14 q 116 18 150 -14 q 82 111 82 50 q 94 192 82 149 l 288 863 l 196 863 l 226 974 q 458 979 318 979 l 433 894 l 228 174 q 224 146 224 157 q 258 115 224 115 q 314 122 286 115 l 313 3 z "},"m":{"ha":1382,"x_min":58,"x_max":1261,"o":"m 1179 174 q 1175 147 1175 160 q 1185 123 1175 131 q 1217 115 1196 115 q 1256 118 1233 115 l 1254 -3 q 1160 -14 1217 -14 q 1065 13 1100 -14 q 1031 100 1031 40 q 1043 179 1031 133 l 1108 406 q 1124 497 1124 457 q 1097 565 1124 543 q 1017 586 1071 586 q 796 493 907 586 q 779 393 794 447 l 667 0 l 529 0 l 646 407 q 661 492 661 460 q 632 564 661 542 q 544 586 603 586 q 338 496 449 586 l 196 0 l 58 0 l 208 525 q 213 551 213 540 q 202 576 213 568 q 171 583 192 583 q 133 581 153 583 l 135 701 q 228 713 169 713 q 354 632 335 713 q 468 692 408 671 q 586 713 528 713 q 703 686 656 713 q 775 613 751 660 q 906 686 836 660 q 1047 713 975 713 q 1203 660 1146 713 q 1261 513 1261 607 q 1244 406 1261 464 l 1179 174 z "},"n":{"ha":951,"x_min":58,"x_max":828,"o":"m 749 174 q 744 147 744 160 q 755 123 744 131 q 786 115 765 115 q 825 118 803 115 l 824 -3 q 731 -14 786 -14 q 635 13 671 -14 q 600 100 600 40 q 613 179 600 133 l 679 407 q 693 490 693 454 q 664 564 693 542 q 575 586 635 586 q 451 560 517 586 q 336 493 386 533 l 196 0 l 58 0 l 208 525 q 213 551 213 540 q 202 576 213 568 q 171 583 192 583 q 133 581 153 583 l 135 701 q 228 713 169 713 q 351 638 331 713 q 476 693 411 674 q 603 713 542 713 q 770 654 713 713 q 828 500 828 596 q 811 394 828 451 l 749 174 z "},"o":{"ha":835,"x_min":50,"x_max":785,"o":"m 340 -14 q 125 54 200 -14 q 50 243 50 122 q 99 457 50 349 q 248 639 147 565 q 494 713 349 713 q 710 644 635 713 q 785 457 785 576 q 735 243 785 353 q 586 60 686 133 q 340 -14 486 -14 m 350 111 q 512 164 444 111 q 614 293 579 217 q 649 438 649 369 q 608 547 649 507 q 486 588 567 588 q 324 535 392 588 q 222 407 257 483 q 188 263 188 331 q 228 151 188 192 q 350 111 269 111 z "},"p":{"ha":890,"x_min":-18,"x_max":839,"o":"m 585 713 q 770 645 701 713 q 839 461 839 578 q 792 240 839 350 q 651 58 744 131 q 429 -14 558 -14 q 217 72 294 -14 l 118 -271 l -18 -271 l 208 525 q 213 551 213 540 q 202 576 213 568 q 171 583 192 583 q 133 581 153 583 l 135 701 q 228 713 169 713 q 353 636 332 713 q 585 713 467 713 m 425 111 q 573 164 510 111 q 669 297 636 217 q 703 454 703 376 q 666 554 703 521 q 563 588 629 588 q 441 560 496 588 q 336 490 386 533 l 254 206 q 321 138 281 164 q 425 111 361 111 z "},"q":{"ha":821,"x_min":50,"x_max":860,"o":"m 860 676 q 819 623 835 650 q 790 551 803 596 l 554 -272 l 417 -272 l 507 43 q 303 -14 408 -14 q 119 53 188 -14 q 50 239 50 119 q 98 459 50 349 q 238 641 146 569 q 457 713 331 713 q 589 687 531 713 q 682 624 647 661 q 786 714 718 685 l 860 676 m 325 111 q 447 138 392 111 q 554 210 501 165 l 633 488 q 567 560 607 533 q 461 588 528 588 q 313 535 376 588 q 217 403 250 482 q 185 246 185 324 q 222 144 185 178 q 325 111 258 111 z "},"r":{"ha":664,"x_min":58,"x_max":725,"o":"m 725 693 l 656 451 l 531 451 l 569 588 q 441 565 496 589 q 336 489 386 542 l 196 0 l 58 0 l 194 475 l 208 525 q 213 551 213 540 q 202 576 213 568 q 171 583 192 583 q 133 581 153 583 l 135 701 q 228 713 169 713 q 356 626 339 713 q 599 713 476 713 q 724 693 657 713 l 725 693 z "},"s":{"ha":724,"x_min":-1,"x_max":719,"o":"m 668 460 l 544 460 l 575 571 q 435 586 517 586 q 303 558 340 586 q 265 494 265 531 q 298 449 265 467 q 404 418 331 431 q 576 351 524 396 q 629 222 629 306 q 540 51 629 114 q 299 -12 451 -12 q -1 58 106 -12 l 54 247 l 179 247 l 147 136 q 296 113 210 113 q 447 144 403 113 q 490 221 490 175 q 458 267 490 250 q 346 296 426 283 q 177 358 229 313 q 125 481 125 404 q 210 649 125 586 q 444 711 296 711 q 604 692 532 711 q 719 642 676 674 l 668 460 z "},"t":{"ha":549,"x_min":81,"x_max":590,"o":"m 346 581 l 243 222 q 233 168 233 186 q 251 125 233 139 q 308 111 269 111 q 428 139 363 111 l 451 26 q 366 -5 404 4 q 281 -14 328 -14 q 147 30 197 -14 q 97 149 97 74 q 108 225 97 188 l 210 581 l 81 581 l 114 699 l 246 699 l 308 883 l 433 883 l 381 699 l 590 699 l 556 581 l 346 581 z "},"u":{"ha":931,"x_min":101,"x_max":888,"o":"m 738 174 q 733 147 733 160 q 744 123 733 131 q 775 115 754 115 q 814 118 794 115 l 813 -3 q 719 -14 775 -14 q 593 67 613 -14 q 471 7 535 28 q 344 -14 407 -14 q 177 42 236 -14 q 118 194 118 97 q 135 300 118 244 l 211 565 l 215 579 l 101 579 l 138 696 q 276 699 196 699 l 386 699 l 269 290 q 256 204 256 243 q 285 131 256 154 q 371 108 314 108 q 494 135 425 108 q 610 204 564 161 l 718 582 l 606 582 l 639 700 l 772 699 l 888 699 l 738 174 z "},"v":{"ha":811,"x_min":76,"x_max":771,"o":"m 339 -14 q 155 49 224 -14 q 86 229 86 111 q 108 371 86 294 l 153 525 q 157 551 157 540 q 147 576 157 568 q 115 583 136 583 q 76 581 99 583 l 78 701 q 171 713 115 713 q 265 685 231 713 q 300 599 300 658 q 288 519 300 565 l 235 333 q 219 238 219 283 q 253 143 219 175 q 349 111 286 111 q 500 172 438 111 q 593 343 563 233 q 624 489 615 422 q 633 635 633 556 l 632 699 l 769 699 l 771 638 q 762 483 771 557 q 729 324 753 408 q 339 -14 631 -14 z "},"w":{"ha":1215,"x_min":76,"x_max":1193,"o":"m 1193 699 q 1174 506 1186 589 q 1131 314 1161 422 q 996 75 1088 164 q 776 -14 904 -14 l 768 -14 q 632 35 686 -14 q 575 154 578 83 l 571 154 q 467 34 536 82 q 315 -14 397 -14 l 310 -14 q 143 49 204 -14 q 82 219 82 111 q 100 343 82 279 l 153 525 q 157 551 157 540 q 147 576 157 568 q 115 583 136 583 q 76 581 99 583 l 78 701 q 171 713 115 713 q 265 685 231 713 q 300 599 300 658 q 288 519 300 565 l 229 317 q 214 221 214 263 q 240 138 214 167 q 321 108 267 108 l 329 108 q 458 167 403 108 q 540 313 514 226 l 650 699 l 786 699 l 676 313 q 664 228 664 269 q 690 141 664 174 q 769 108 715 108 l 778 108 q 911 169 853 108 q 997 329 969 231 q 1037 506 1024 421 q 1057 699 1050 592 l 1193 699 z "},"x":{"ha":801,"x_min":-71,"x_max":860,"o":"m 728 581 l 494 354 l 489 350 l 563 150 q 629 107 579 107 q 696 121 668 107 l 699 11 q 647 -8 669 -3 q 590 -14 624 -14 q 491 15 532 -14 q 435 94 450 44 l 376 256 l 108 0 l -71 0 l -37 118 l 63 118 l 310 357 l 239 543 q 213 580 228 569 q 174 590 197 590 q 107 579 143 590 l 104 689 q 160 707 139 701 q 211 713 182 713 q 304 688 264 713 q 361 614 344 663 l 424 449 l 675 699 l 860 699 l 825 581 l 728 581 z "},"y":{"ha":882,"x_min":3,"x_max":888,"o":"m 888 699 l 700 42 q 561 -200 654 -118 q 299 -282 468 -282 q 135 -262 217 -282 q 3 -206 53 -242 l 69 -96 q 299 -157 158 -157 q 467 -111 403 -157 q 569 65 532 -65 l 582 108 q 474 61 529 78 q 374 44 418 44 q 194 97 253 44 q 135 244 135 149 q 154 367 135 297 l 211 565 l 215 579 l 101 579 l 138 696 q 276 699 196 699 l 386 699 l 290 364 q 274 267 274 306 q 303 194 274 217 q 396 171 332 171 q 510 198 442 171 q 625 260 578 225 l 718 582 l 606 582 l 639 700 l 772 699 l 888 699 z "},"z":{"ha":714,"x_min":-46,"x_max":747,"o":"m 747 699 l 718 594 l 178 118 l 474 118 l 510 244 l 633 244 l 597 118 l 599 118 l 575 39 l 569 18 l 564 0 l -46 0 l -17 104 l 513 574 l 253 574 l 219 457 l 96 457 l 129 574 l 142 615 l 164 694 l 165 699 l 747 699 z "},"":{"ha":1271,"x_min":31,"x_max":1225,"o":"m 1225 535 q 1097 321 1225 388 q 763 254 968 254 q 678 257 736 254 q 735 147 683 183 q 867 111 786 111 q 1114 189 985 111 l 1139 72 q 995 9 1071 32 q 842 -14 919 -14 q 690 19 754 -14 q 589 114 625 53 q 406 15 486 43 q 238 -14 326 -14 q 88 35 144 -14 q 31 163 31 85 q 39 222 31 192 q 372 421 97 421 q 569 410 463 421 l 579 440 q 589 503 589 474 q 476 594 589 594 q 331 572 401 594 l 299 463 l 175 463 l 231 653 q 360 698 297 683 q 497 713 422 713 q 628 684 578 713 q 697 604 679 656 q 997 713 817 713 q 1169 662 1114 713 q 1225 535 1225 611 m 693 368 q 992 397 888 365 q 1096 519 1096 429 q 986 588 1096 588 q 797 524 874 588 q 693 368 721 461 m 272 100 q 553 213 388 100 q 549 268 549 240 q 550 307 549 294 q 466 318 500 315 q 382 321 432 321 q 242 292 294 321 q 172 203 189 264 q 168 172 168 186 q 196 119 168 138 q 272 100 224 100 z "},"":{"ha":1354,"x_min":50,"x_max":1308,"o":"m 1308 535 q 1181 321 1308 388 q 846 254 1053 254 q 761 257 819 254 q 818 147 767 183 q 950 111 869 111 q 1199 189 1068 111 l 1222 72 q 1078 9 1154 32 q 925 -14 1003 -14 q 765 24 832 -14 q 664 131 699 63 q 524 25 606 64 q 340 -14 443 -14 q 125 54 200 -14 q 50 243 50 122 q 99 457 50 349 q 248 639 147 565 q 494 713 349 713 q 659 678 592 713 q 758 582 726 644 q 898 678 817 643 q 1082 713 979 713 q 1253 662 1199 713 q 1308 535 1308 611 m 350 111 q 512 164 444 111 q 614 293 579 217 q 649 438 649 369 q 608 547 649 507 q 486 588 567 588 q 324 535 392 588 q 222 407 257 483 q 188 263 188 331 q 228 151 188 192 q 350 111 269 111 m 776 368 q 1074 398 969 365 q 1179 519 1179 431 q 1069 588 1179 588 q 882 525 958 588 q 776 368 806 463 z "},"":{"ha":818,"x_min":39,"x_max":832,"o":"m 832 975 l 708 878 q 778 756 754 826 q 801 601 801 686 q 771 399 801 504 q 663 179 735 272 q 497 36 590 86 q 307 -14 404 -14 q 110 51 181 -14 q 39 222 39 115 q 54 324 39 267 q 194 533 93 457 q 433 610 296 610 q 570 580 511 610 q 664 497 629 550 q 674 596 674 546 q 606 796 674 724 l 486 703 l 438 747 l 553 838 q 386 875 482 876 l 442 993 q 658 922 569 988 l 783 1021 l 832 975 m 317 111 q 482 163 407 111 q 607 321 557 214 q 553 438 606 390 q 422 485 500 485 q 275 434 340 485 q 183 293 210 383 q 174 231 174 260 q 212 142 174 172 q 317 111 250 111 z "},"":{"ha":865,"x_min":-31,"x_max":818,"o":"m 565 713 q 750 645 682 713 q 818 461 818 578 q 797 326 818 400 q 410 -14 699 -14 q 197 72 275 -14 l 107 -244 l -31 -244 l 288 863 l 196 863 l 226 974 q 458 979 318 979 l 433 894 l 365 657 q 565 713 464 713 m 667 351 q 683 454 683 410 q 647 554 683 521 q 543 588 610 588 q 318 490 426 588 l 236 204 q 406 111 293 111 q 563 170 496 111 q 667 351 631 229 z "},"":{"ha":889,"x_min":-81,"x_max":861,"o":"m 853 694 q 778 563 829 614 q 656 492 728 513 q 765 423 725 474 q 806 304 806 372 q 796 239 806 269 q 669 51 760 113 q 444 -10 579 -10 q 342 -1 394 -10 q 267 22 290 8 l 307 144 q 443 115 357 115 q 585 156 525 115 q 668 274 644 196 q 674 313 674 292 q 628 393 674 365 q 501 421 582 421 q 419 414 464 421 l 453 533 q 529 547 492 536 q 717 707 682 585 q 724 751 724 735 q 689 824 724 799 q 592 849 654 849 q 444 801 503 849 q 356 650 385 753 l 169 0 l -81 0 l -46 118 l 67 118 l 217 644 q 356 889 263 804 q 600 974 449 974 q 735 944 675 974 q 828 865 794 915 q 861 754 861 814 q 853 694 861 726 z "},"":{"ha":1061,"x_min":-83,"x_max":978,"o":"m 782 974 l 846 118 l 978 118 l 944 0 l 719 0 l 703 233 l 290 233 l 139 0 l -83 0 l -49 118 l 63 118 l 542 856 l 431 856 l 465 974 l 782 974 m 661 808 l 367 353 l 694 353 l 661 808 m 919 1207 l 743 1053 l 638 1053 l 785 1207 l 919 1207 z "},"":{"ha":1061,"x_min":-83,"x_max":978,"o":"m 782 974 l 846 118 l 978 118 l 944 0 l 719 0 l 703 233 l 290 233 l 139 0 l -83 0 l -49 118 l 63 118 l 542 856 l 431 856 l 465 974 l 782 974 m 661 808 l 367 353 l 694 353 l 661 808 z "},"":{"ha":1061,"x_min":-83,"x_max":978,"o":"m 782 974 l 846 118 l 978 118 l 944 0 l 719 0 l 703 233 l 290 233 l 139 0 l -83 0 l -49 118 l 63 118 l 542 856 l 431 856 l 465 974 l 782 974 m 661 808 l 367 353 l 694 353 l 661 808 m 726 1117 l 822 1208 l 960 1208 l 789 1056 l 644 1056 l 560 1208 l 683 1208 l 726 1117 z "},"":{"ha":1061,"x_min":-83,"x_max":978,"o":"m 782 974 l 846 118 l 978 118 l 944 0 l 719 0 l 703 233 l 290 233 l 139 0 l -83 0 l -49 118 l 63 118 l 542 856 l 431 856 l 465 974 l 782 974 m 661 808 l 367 353 l 694 353 l 661 808 m 853 1210 l 924 1051 l 800 1051 l 763 1146 l 663 1051 l 524 1051 l 704 1210 l 853 1210 z "},"":{"ha":1061,"x_min":-83,"x_max":978,"o":"m 782 974 l 846 118 l 978 118 l 944 0 l 719 0 l 703 233 l 290 233 l 139 0 l -83 0 l -49 118 l 63 118 l 542 856 l 431 856 l 465 974 l 782 974 m 661 808 l 367 353 l 694 353 l 661 808 m 622 1043 q 578 1054 594 1043 q 563 1086 563 1065 q 591 1148 563 1122 q 663 1174 619 1174 q 706 1162 690 1174 q 721 1128 721 1150 q 692 1067 721 1092 q 622 1043 664 1043 m 836 1043 q 792 1054 808 1043 q 776 1088 776 1065 q 779 1107 776 1100 q 813 1155 788 1136 q 875 1174 839 1174 q 919 1161 903 1174 q 935 1126 935 1149 q 932 1107 935 1121 q 897 1060 922 1078 q 836 1043 871 1043 z "},"":{"ha":1061,"x_min":-83,"x_max":978,"o":"m 782 974 l 846 118 l 978 118 l 944 0 l 719 0 l 703 233 l 290 233 l 139 0 l -83 0 l -49 118 l 63 118 l 542 856 l 431 856 l 465 974 l 782 974 m 661 808 l 367 353 l 694 353 l 661 808 m 790 1053 l 685 1053 l 597 1207 l 732 1207 l 790 1053 z "},"":{"ha":1061,"x_min":-83,"x_max":978,"o":"m 782 974 l 846 118 l 978 118 l 944 0 l 719 0 l 703 233 l 290 233 l 139 0 l -83 0 l -49 118 l 63 118 l 542 856 l 431 856 l 465 974 l 782 974 m 661 808 l 367 353 l 694 353 l 661 808 z "},"":{"ha":1061,"x_min":-83,"x_max":978,"o":"m 944 0 q 851 -62 885 -28 q 818 -125 818 -96 q 881 -165 818 -165 q 931 -160 907 -165 l 915 -239 q 817 -250 856 -250 q 721 -228 753 -250 q 689 -169 689 -207 q 729 -77 689 -122 q 833 0 769 -32 l 719 0 l 703 233 l 290 233 l 139 0 l -83 0 l -49 118 l 63 118 l 542 856 l 431 856 l 465 974 l 782 974 l 846 118 l 978 118 l 944 0 m 661 808 l 367 353 l 694 353 l 661 808 z "},"":{"ha":1061,"x_min":-83,"x_max":978,"o":"m 782 974 l 846 118 l 978 118 l 944 0 l 719 0 l 703 233 l 290 233 l 139 0 l -83 0 l -49 118 l 63 118 l 542 856 l 431 856 l 465 974 l 782 974 m 661 808 l 367 353 l 694 353 l 661 808 z "},"":{"ha":1061,"x_min":-83,"x_max":1011,"o":"m 782 974 l 846 118 l 978 118 l 944 0 l 719 0 l 703 233 l 290 233 l 139 0 l -83 0 l -49 118 l 63 118 l 542 856 l 431 856 l 465 974 l 782 974 m 661 808 l 367 353 l 694 353 l 661 808 m 1011 1513 l 835 1358 l 729 1358 l 876 1513 l 1011 1513 z "},"":{"ha":1061,"x_min":-83,"x_max":978,"o":"m 782 974 l 846 118 l 978 118 l 944 0 l 719 0 l 703 233 l 290 233 l 139 0 l -83 0 l -49 118 l 63 118 l 542 856 l 431 856 l 465 974 l 782 974 m 661 808 l 367 353 l 694 353 l 661 808 z "},"":{"ha":1417,"x_min":-83,"x_max":1522,"o":"m 1522 974 l 1447 711 l 1322 711 l 1364 856 l 1007 856 l 921 556 l 1269 556 l 1236 436 l 888 436 l 796 118 l 1165 118 l 1206 258 l 1329 258 l 1289 118 l 1290 118 l 1256 0 l 640 0 l 507 0 l 542 118 l 654 118 l 683 221 l 319 221 l 129 0 l -83 0 l -49 118 l 75 118 l 707 856 l 618 856 l 653 974 l 1522 974 m 421 339 l 718 339 l 865 854 l 863 854 l 421 339 m 1379 1207 l 1203 1053 l 1097 1053 l 1244 1207 l 1379 1207 z "},"":{"ha":922,"x_min":75,"x_max":1028,"o":"m 943 608 l 821 608 l 883 828 q 700 860 801 860 q 428 779 538 860 q 267 576 319 699 q 215 326 215 453 q 274 167 215 221 q 446 114 333 114 q 640 138 547 114 q 822 213 732 163 l 804 69 q 624 4 724 26 q 433 -18 525 -18 q 168 67 261 -18 q 75 313 75 153 q 144 635 75 479 q 357 892 214 792 q 706 992 500 992 q 888 968 800 992 q 1028 906 975 944 l 943 608 m 939 1207 l 763 1053 l 657 1053 l 804 1207 l 939 1207 z "},"":{"ha":922,"x_min":75,"x_max":1028,"o":"m 943 608 l 821 608 l 883 828 q 700 860 801 860 q 428 779 538 860 q 267 576 319 699 q 215 326 215 453 q 274 167 215 221 q 446 114 333 114 q 640 138 547 114 q 822 213 732 163 l 804 69 q 624 4 724 26 q 433 -18 525 -18 q 168 67 261 -18 q 75 313 75 153 q 144 635 75 479 q 357 892 214 792 q 706 992 500 992 q 888 968 800 992 q 1028 906 975 944 l 943 608 m 747 1117 l 843 1208 l 981 1208 l 810 1056 l 665 1056 l 581 1208 l 704 1208 l 747 1117 z "},"":{"ha":922,"x_min":75,"x_max":1028,"o":"m 943 608 l 821 608 l 883 828 q 700 860 801 860 q 428 779 538 860 q 267 576 319 699 q 215 326 215 453 q 274 167 215 221 q 446 114 333 114 q 640 138 547 114 q 822 213 732 163 l 804 69 q 642 8 732 31 q 464 -18 551 -14 l 447 -51 q 503 -77 483 -58 q 522 -122 522 -96 q 469 -210 522 -175 q 336 -244 415 -244 q 253 -233 286 -244 l 286 -154 q 343 -161 307 -161 q 400 -131 390 -161 q 383 -103 406 -110 q 313 -100 361 -97 l 358 -14 q 149 88 222 4 q 75 313 75 172 q 144 635 75 479 q 357 892 214 792 q 706 992 500 992 q 888 968 800 992 q 1028 906 975 944 l 943 608 z "},"":{"ha":922,"x_min":75,"x_max":1028,"o":"m 943 608 l 821 608 l 883 828 q 700 860 801 860 q 428 779 538 860 q 267 576 319 699 q 215 326 215 453 q 274 167 215 221 q 446 114 333 114 q 640 138 547 114 q 822 213 732 163 l 804 69 q 624 4 724 26 q 433 -18 525 -18 q 168 67 261 -18 q 75 313 75 153 q 144 635 75 479 q 357 892 214 792 q 706 992 500 992 q 888 968 800 992 q 1028 906 975 944 l 943 608 m 872 1210 l 943 1051 l 819 1051 l 782 1146 l 682 1051 l 543 1051 l 724 1210 l 872 1210 z "},"":{"ha":922,"x_min":75,"x_max":1028,"o":"m 943 608 l 821 608 l 883 828 q 700 860 801 860 q 428 779 538 860 q 267 576 319 699 q 215 326 215 453 q 274 167 215 221 q 446 114 333 114 q 640 138 547 114 q 822 213 732 163 l 804 69 q 624 4 724 26 q 433 -18 525 -18 q 168 67 261 -18 q 75 313 75 153 q 144 635 75 479 q 357 892 214 792 q 706 992 500 992 q 888 968 800 992 q 1028 906 975 944 l 943 608 m 750 1044 q 705 1056 721 1044 q 689 1089 689 1067 q 718 1151 689 1125 q 790 1176 747 1176 q 835 1164 819 1176 q 851 1129 851 1151 q 849 1110 851 1117 q 813 1063 839 1081 q 750 1044 786 1044 z "},"":{"ha":1046,"x_min":64,"x_max":1044,"o":"m 64 0 l 308 854 l 194 854 l 229 974 l 639 974 q 938 881 831 974 q 1044 626 1044 789 q 972 326 1044 469 q 758 91 900 182 q 414 0 615 0 l 64 0 m 415 118 q 682 192 571 118 q 849 383 793 267 q 904 622 904 500 q 833 794 904 733 q 625 856 763 856 l 450 856 l 240 118 l 415 118 m 657 1117 l 753 1208 l 890 1208 l 719 1056 l 575 1056 l 490 1208 l 614 1208 l 657 1117 z "},"":{"ha":1046,"x_min":64,"x_max":1044,"o":"m 639 974 q 938 881 831 974 q 1044 626 1044 789 q 972 326 1044 469 q 758 91 900 182 q 414 0 615 0 l 64 0 l 192 446 l 111 446 l 133 525 l 214 525 l 308 854 l 194 854 l 229 974 l 639 974 m 415 118 q 682 192 571 118 q 849 383 793 267 q 904 622 904 500 q 833 794 904 733 q 625 856 763 856 l 450 856 l 356 525 l 621 525 l 597 446 l 333 446 l 240 118 l 415 118 z "},"":{"ha":1046,"x_min":64,"x_max":1044,"o":"m 64 0 l 308 854 l 194 854 l 229 974 l 639 974 q 938 881 831 974 q 1044 626 1044 789 q 972 326 1044 469 q 758 91 900 182 q 414 0 615 0 l 64 0 m 415 118 q 682 192 571 118 q 849 383 793 267 q 904 622 904 500 q 833 794 904 733 q 625 856 763 856 l 450 856 l 240 118 l 415 118 m 444 -76 q 490 -90 474 -76 q 506 -125 506 -103 q 503 -143 506 -129 q 467 -194 493 -175 q 406 -212 440 -212 q 360 -199 376 -212 q 344 -164 344 -186 q 347 -143 344 -150 q 383 -94 357 -111 q 444 -76 410 -76 z "},"":{"ha":1046,"x_min":64,"x_max":1044,"o":"m 64 0 l 308 854 l 194 854 l 229 974 l 639 974 q 938 881 831 974 q 1044 626 1044 789 q 972 326 1044 469 q 758 91 900 182 q 414 0 615 0 l 64 0 m 415 118 q 682 192 571 118 q 849 383 793 267 q 904 622 904 500 q 833 794 904 733 q 625 856 763 856 l 450 856 l 240 118 l 415 118 z "},"":{"ha":925,"x_min":-32,"x_max":1031,"o":"m 1031 974 l 949 690 l 825 690 l 872 856 l 468 856 l 383 560 l 760 560 l 725 442 l 350 442 l 257 118 l 674 118 l 724 293 l 847 293 l 797 118 l 799 118 l 764 0 l -32 0 l 3 118 l 115 118 l 326 854 l 213 854 l 246 974 l 1031 974 m 903 1207 l 726 1053 l 621 1053 l 768 1207 l 903 1207 z "},"":{"ha":925,"x_min":-32,"x_max":1031,"o":"m 1031 974 l 949 690 l 825 690 l 872 856 l 468 856 l 383 560 l 760 560 l 725 442 l 350 442 l 257 118 l 674 118 l 724 293 l 847 293 l 797 118 l 799 118 l 764 0 l -32 0 l 3 118 l 115 118 l 326 854 l 213 854 l 246 974 l 1031 974 z "},"":{"ha":925,"x_min":-32,"x_max":1031,"o":"m 1031 974 l 949 690 l 825 690 l 872 856 l 468 856 l 383 560 l 760 560 l 725 442 l 350 442 l 257 118 l 674 118 l 724 293 l 847 293 l 797 118 l 799 118 l 764 0 l -32 0 l 3 118 l 115 118 l 326 854 l 213 854 l 246 974 l 1031 974 m 711 1117 l 807 1208 l 944 1208 l 774 1056 l 629 1056 l 544 1208 l 668 1208 l 711 1117 z "},"":{"ha":925,"x_min":-32,"x_max":1031,"o":"m 1031 974 l 949 690 l 825 690 l 872 856 l 468 856 l 383 560 l 760 560 l 725 442 l 350 442 l 257 118 l 674 118 l 724 293 l 847 293 l 797 118 l 799 118 l 764 0 l -32 0 l 3 118 l 115 118 l 326 854 l 213 854 l 246 974 l 1031 974 m 836 1210 l 907 1051 l 783 1051 l 746 1146 l 646 1051 l 507 1051 l 688 1210 l 836 1210 z "},"":{"ha":925,"x_min":-32,"x_max":1031,"o":"m 1031 974 l 949 690 l 825 690 l 872 856 l 468 856 l 383 560 l 760 560 l 725 442 l 350 442 l 257 118 l 674 118 l 724 293 l 847 293 l 797 118 l 799 118 l 764 0 l -32 0 l 3 118 l 115 118 l 326 854 l 213 854 l 246 974 l 1031 974 m 607 1043 q 563 1054 579 1043 q 547 1086 547 1065 q 576 1148 547 1122 q 647 1174 604 1174 q 690 1162 675 1174 q 706 1128 706 1150 q 677 1067 706 1092 q 607 1043 649 1043 m 821 1043 q 777 1054 793 1043 q 761 1088 761 1065 q 764 1107 761 1100 q 798 1155 772 1136 q 860 1174 824 1174 q 903 1161 888 1174 q 919 1126 919 1149 q 917 1107 919 1121 q 881 1060 907 1078 q 821 1043 856 1043 z "},"":{"ha":925,"x_min":-32,"x_max":1031,"o":"m 1031 974 l 949 690 l 825 690 l 872 856 l 468 856 l 383 560 l 760 560 l 725 442 l 350 442 l 257 118 l 674 118 l 724 293 l 847 293 l 797 118 l 799 118 l 764 0 l -32 0 l 3 118 l 115 118 l 326 854 l 213 854 l 246 974 l 1031 974 m 714 1044 q 669 1056 685 1044 q 653 1089 653 1067 q 682 1151 653 1125 q 754 1176 711 1176 q 799 1164 783 1176 q 815 1129 815 1151 q 813 1110 815 1117 q 776 1063 803 1081 q 714 1044 750 1044 z "},"":{"ha":925,"x_min":-32,"x_max":1031,"o":"m 1031 974 l 949 690 l 825 690 l 872 856 l 468 856 l 383 560 l 760 560 l 725 442 l 350 442 l 257 118 l 674 118 l 724 293 l 847 293 l 797 118 l 799 118 l 764 0 l -32 0 l 3 118 l 115 118 l 326 854 l 213 854 l 246 974 l 1031 974 m 775 1053 l 669 1053 l 582 1207 l 717 1207 l 775 1053 z "},"":{"ha":925,"x_min":-32,"x_max":1031,"o":"m 1031 974 l 949 690 l 825 690 l 872 856 l 468 856 l 383 560 l 760 560 l 725 442 l 350 442 l 257 118 l 674 118 l 724 293 l 847 293 l 797 118 l 799 118 l 764 0 l -32 0 l 3 118 l 115 118 l 326 854 l 213 854 l 246 974 l 1031 974 z "},"":{"ha":925,"x_min":-32,"x_max":1031,"o":"m 949 690 l 825 690 l 872 856 l 468 856 l 383 560 l 760 560 l 725 442 l 350 442 l 257 118 l 674 118 l 724 293 l 847 293 l 797 118 l 799 118 l 764 0 q 671 -62 704 -28 q 638 -125 638 -96 q 700 -165 638 -165 q 750 -160 726 -165 l 735 -239 q 636 -250 675 -250 q 540 -228 572 -250 q 508 -169 508 -207 q 549 -77 508 -122 q 653 0 589 -32 l -32 0 l 3 118 l 115 118 l 326 854 l 213 854 l 246 974 l 1031 974 l 949 690 z "},"":{"ha":996,"x_min":78,"x_max":1061,"o":"m 983 628 l 858 628 l 915 824 q 708 860 811 860 q 433 781 543 860 q 271 581 322 701 q 219 333 219 461 q 285 170 219 226 q 482 114 351 114 q 601 129 535 114 q 725 169 667 144 l 783 372 l 614 372 l 649 490 l 960 490 l 844 86 q 660 10 768 39 q 467 -18 553 -18 q 178 72 279 -18 q 78 322 78 161 q 150 647 78 493 q 367 896 222 800 q 718 992 513 992 q 903 967 807 992 q 1061 901 1000 943 l 983 628 z "},"":{"ha":996,"x_min":78,"x_max":1061,"o":"m 983 628 l 858 628 l 915 824 q 708 860 811 860 q 433 781 543 860 q 271 581 322 701 q 219 333 219 461 q 285 170 219 226 q 482 114 351 114 q 601 129 535 114 q 725 169 667 144 l 783 372 l 614 372 l 649 490 l 960 490 l 844 86 q 660 10 768 39 q 467 -18 553 -18 q 178 72 279 -18 q 78 322 78 161 q 150 647 78 493 q 367 896 222 800 q 718 992 513 992 q 903 967 807 992 q 1061 901 1000 943 l 983 628 m 765 1117 l 861 1208 l 999 1208 l 828 1056 l 683 1056 l 599 1208 l 722 1208 l 765 1117 z "},"":{"ha":996,"x_min":78,"x_max":1061,"o":"m 983 628 l 858 628 l 915 824 q 708 860 811 860 q 433 781 543 860 q 271 581 322 701 q 219 333 219 461 q 285 170 219 226 q 482 114 351 114 q 601 129 535 114 q 725 169 667 144 l 783 372 l 614 372 l 649 490 l 960 490 l 844 86 q 660 10 768 39 q 467 -18 553 -18 q 178 72 279 -18 q 78 322 78 161 q 150 647 78 493 q 367 896 222 800 q 718 992 513 992 q 903 967 807 992 q 1061 901 1000 943 l 983 628 m 892 1210 l 963 1051 l 839 1051 l 801 1146 l 701 1051 l 563 1051 l 743 1210 l 892 1210 z "},"":{"ha":996,"x_min":78,"x_max":1061,"o":"m 983 628 l 858 628 l 915 824 q 708 860 811 860 q 433 781 543 860 q 271 581 322 701 q 219 333 219 461 q 285 170 219 226 q 482 114 351 114 q 601 129 535 114 q 725 169 667 144 l 783 372 l 614 372 l 649 490 l 960 490 l 844 86 q 660 10 768 39 q 467 -18 553 -18 q 178 72 279 -18 q 78 322 78 161 q 150 647 78 493 q 367 896 222 800 q 718 992 513 992 q 903 967 807 992 q 1061 901 1000 943 l 983 628 m 314 -243 q 396 -157 385 -214 l 340 -157 l 372 -50 l 482 -50 q 324 -278 461 -228 l 314 -243 z "},"":{"ha":996,"x_min":78,"x_max":1061,"o":"m 983 628 l 858 628 l 915 824 q 708 860 811 860 q 433 781 543 860 q 271 581 322 701 q 219 333 219 461 q 285 170 219 226 q 482 114 351 114 q 601 129 535 114 q 725 169 667 144 l 783 372 l 614 372 l 649 490 l 960 490 l 844 86 q 660 10 768 39 q 467 -18 553 -18 q 178 72 279 -18 q 78 322 78 161 q 150 647 78 493 q 367 896 222 800 q 718 992 513 992 q 903 967 807 992 q 1061 901 1000 943 l 983 628 m 768 1044 q 723 1056 739 1044 q 707 1089 707 1067 q 736 1151 707 1125 q 808 1176 765 1176 q 853 1164 838 1176 q 869 1129 869 1151 q 867 1110 869 1117 q 831 1063 857 1081 q 768 1044 804 1044 z "},"":{"ha":996,"x_min":78,"x_max":1061,"o":"m 983 628 l 858 628 l 915 824 q 708 860 811 860 q 433 781 543 860 q 271 581 322 701 q 219 333 219 461 q 285 170 219 226 q 482 114 351 114 q 601 129 535 114 q 725 169 667 144 l 783 372 l 614 372 l 649 490 l 960 490 l 844 86 q 660 10 768 39 q 467 -18 553 -18 q 178 72 279 -18 q 78 322 78 161 q 150 647 78 493 q 367 896 222 800 q 718 992 513 992 q 903 967 807 992 q 1061 901 1000 943 l 983 628 z "},"":{"ha":1164,"x_min":-32,"x_max":1275,"o":"m 1275 974 l 1242 856 l 1129 856 l 1100 756 l 1225 756 l 1179 656 l 1072 656 l 918 119 l 1032 119 l 997 0 l 629 0 l 664 118 l 776 118 l 869 443 l 350 443 l 257 119 l 371 119 l 336 0 l -32 0 l 3 118 l 115 118 l 269 656 l 151 656 l 196 756 l 299 756 l 326 854 l 213 854 l 246 974 l 614 974 l 581 856 l 468 856 l 439 756 l 960 756 l 988 854 l 874 854 l 907 974 l 1275 974 m 383 561 l 903 561 l 931 656 l 411 656 l 383 561 z "},"":{"ha":1164,"x_min":-32,"x_max":1275,"o":"m 1275 974 l 1242 856 l 1129 856 l 918 119 l 1032 119 l 997 0 l 629 0 l 664 118 l 776 118 l 869 443 l 350 443 l 257 119 l 371 119 l 336 0 l -32 0 l 3 118 l 115 118 l 326 854 l 213 854 l 246 974 l 614 974 l 581 856 l 468 856 l 383 561 l 903 561 l 988 854 l 874 854 l 907 974 l 1275 974 m 438 -92 q 433 -121 433 -108 q 482 -164 433 -164 q 540 -145 515 -164 q 575 -92 565 -126 l 674 -94 q 592 -203 650 -162 q 457 -243 533 -243 q 364 -217 397 -243 q 331 -146 331 -190 q 340 -94 331 -126 l 438 -92 z "},"":{"ha":1164,"x_min":-32,"x_max":1275,"o":"m 1275 974 l 1242 856 l 1129 856 l 918 119 l 1032 119 l 997 0 l 629 0 l 664 118 l 776 118 l 869 443 l 350 443 l 257 119 l 371 119 l 336 0 l -32 0 l 3 118 l 115 118 l 326 854 l 213 854 l 246 974 l 614 974 l 581 856 l 468 856 l 383 561 l 903 561 l 988 854 l 874 854 l 907 974 l 1275 974 m 929 1210 l 1000 1051 l 876 1051 l 839 1146 l 739 1051 l 600 1051 l 781 1210 l 929 1210 z "},"":{"ha":1164,"x_min":-32,"x_max":1275,"o":"m 1275 974 l 1242 856 l 1129 856 l 918 119 l 1032 119 l 997 0 l 629 0 l 664 118 l 776 118 l 869 443 l 350 443 l 257 119 l 371 119 l 336 0 l -32 0 l 3 118 l 115 118 l 326 854 l 213 854 l 246 974 l 614 974 l 581 856 l 468 856 l 383 561 l 903 561 l 988 854 l 874 854 l 907 974 l 1275 974 m 474 -76 q 519 -90 503 -76 q 535 -125 535 -103 q 532 -143 535 -129 q 496 -194 522 -175 q 435 -212 469 -212 q 390 -199 406 -212 q 374 -164 374 -186 q 376 -143 374 -150 q 413 -94 386 -111 q 474 -76 439 -76 z "},"":{"ha":1113,"x_min":-33,"x_max":1192,"o":"m 114 142 l 313 832 l 318 856 l 213 856 l 246 974 l 601 974 l 567 856 l 461 856 l 454 832 l 256 142 l 250 118 l 357 118 l 322 0 l -33 0 l 1 118 l 108 118 l 114 142 m 657 -18 q 422 44 538 -18 l 471 169 q 565 129 517 144 q 653 114 614 114 q 785 163 740 114 q 861 318 831 213 l 1015 856 l 772 856 l 807 974 l 1192 974 l 994 289 q 869 55 949 128 q 657 -18 789 -18 z "},"":{"ha":489,"x_min":-33,"x_max":650,"o":"m 114 142 l 313 832 l 318 856 l 213 856 l 246 974 l 601 974 l 567 856 l 461 856 l 454 832 l 256 142 l 250 118 l 357 118 l 322 0 l -33 0 l 1 118 l 108 118 l 114 142 m 650 1207 l 474 1053 l 368 1053 l 515 1207 l 650 1207 z "},"":{"ha":489,"x_min":-33,"x_max":676,"o":"m 114 142 l 313 832 l 318 856 l 213 856 l 246 974 l 601 974 l 567 856 l 461 856 l 454 832 l 256 142 l 250 118 l 357 118 l 322 0 l -33 0 l 1 118 l 108 118 l 114 142 z "},"":{"ha":489,"x_min":-33,"x_max":690,"o":"m 114 142 l 313 832 l 318 856 l 213 856 l 246 974 l 601 974 l 567 856 l 461 856 l 454 832 l 256 142 l 250 118 l 357 118 l 322 0 l -33 0 l 1 118 l 108 118 l 114 142 m 457 1117 l 553 1208 l 690 1208 l 519 1056 l 375 1056 l 290 1208 l 414 1208 l 457 1117 z "},"":{"ha":489,"x_min":-33,"x_max":654,"o":"m 114 142 l 313 832 l 318 856 l 213 856 l 246 974 l 601 974 l 567 856 l 461 856 l 454 832 l 256 142 l 250 118 l 357 118 l 322 0 l -33 0 l 1 118 l 108 118 l 114 142 m 583 1210 l 654 1051 l 531 1051 l 493 1146 l 393 1051 l 254 1051 l 435 1210 l 583 1210 z "},"":{"ha":489,"x_min":-33,"x_max":665,"o":"m 114 142 l 313 832 l 318 856 l 213 856 l 246 974 l 601 974 l 567 856 l 461 856 l 454 832 l 256 142 l 250 118 l 357 118 l 322 0 l -33 0 l 1 118 l 108 118 l 114 142 m 353 1043 q 309 1054 325 1043 q 293 1086 293 1065 q 322 1148 293 1122 q 393 1174 350 1174 q 436 1162 421 1174 q 451 1128 451 1150 q 423 1067 451 1092 q 353 1043 394 1043 m 567 1043 q 523 1054 539 1043 q 507 1088 507 1065 q 510 1107 507 1100 q 544 1155 518 1136 q 606 1174 569 1174 q 649 1161 633 1174 q 665 1126 665 1149 q 663 1107 665 1121 q 627 1060 653 1078 q 567 1043 601 1043 z "},"":{"ha":489,"x_min":-33,"x_max":601,"o":"m 114 142 l 313 832 l 318 856 l 213 856 l 246 974 l 601 974 l 567 856 l 461 856 l 454 832 l 256 142 l 250 118 l 357 118 l 322 0 l -33 0 l 1 118 l 108 118 l 114 142 m 461 1044 q 416 1056 432 1044 q 400 1089 400 1067 q 429 1151 400 1125 q 501 1176 458 1176 q 547 1164 531 1176 q 563 1129 563 1151 q 560 1110 563 1117 q 524 1063 550 1081 q 461 1044 497 1044 z "},"":{"ha":489,"x_min":-33,"x_max":601,"o":"m 114 142 l 313 832 l 318 856 l 213 856 l 246 974 l 601 974 l 567 856 l 461 856 l 454 832 l 256 142 l 250 118 l 357 118 l 322 0 l -33 0 l 1 118 l 108 118 l 114 142 m 521 1053 l 415 1053 l 328 1207 l 463 1207 l 521 1053 z "},"":{"ha":489,"x_min":-33,"x_max":668,"o":"m 114 142 l 313 832 l 318 856 l 213 856 l 246 974 l 601 974 l 567 856 l 461 856 l 454 832 l 256 142 l 250 118 l 357 118 l 322 0 l -33 0 l 1 118 l 108 118 l 114 142 z "},"":{"ha":489,"x_min":-67,"x_max":601,"o":"m 246 974 l 601 974 l 567 856 l 461 856 l 454 832 l 256 142 l 250 118 l 357 118 l 322 0 l 189 0 q 96 -62 129 -28 q 63 -125 63 -96 q 125 -165 63 -165 q 175 -160 151 -165 l 160 -239 q 61 -250 100 -250 q -35 -228 -3 -250 q -67 -169 -67 -207 q -26 -77 -67 -122 q 78 0 14 -32 l -33 0 l 1 118 l 108 118 l 114 142 l 313 832 l 318 856 l 213 856 l 246 974 z "},"":{"ha":624,"x_min":-67,"x_max":778,"o":"m 168 -18 q -67 44 49 -18 l -18 169 q 76 129 28 144 q 164 114 125 114 q 297 163 251 114 q 372 318 342 213 l 526 856 l 283 856 l 318 974 l 703 974 l 506 289 q 380 55 460 128 q 168 -18 300 -18 m 707 1210 l 778 1051 l 654 1051 l 617 1146 l 517 1051 l 378 1051 l 558 1210 l 707 1210 z "},"":{"ha":1083,"x_min":-32,"x_max":1160,"o":"m 946 974 l 1160 974 l 1125 856 l 992 856 l 678 576 l 828 161 q 851 125 838 135 q 889 115 865 115 q 954 124 915 115 l 958 7 q 853 -14 901 -14 q 758 20 794 -14 q 700 114 722 54 l 568 479 l 290 235 l 257 117 l 369 117 l 335 0 l 201 0 l 101 0 l -32 0 l 3 118 l 115 118 l 326 854 l 213 854 l 246 974 l 476 974 l 610 972 l 576 854 l 468 854 l 464 840 l 351 446 l 946 974 m 303 -243 q 385 -157 374 -214 l 329 -157 l 361 -50 l 471 -50 q 313 -278 450 -228 l 303 -243 z "},"":{"ha":897,"x_min":-32,"x_max":850,"o":"m 850 347 l 785 118 l 786 118 l 767 54 l 756 13 l 751 0 l 101 0 l -32 0 l 3 118 l 115 118 l 326 854 l 213 854 l 246 974 l 501 974 l 257 118 l 663 118 l 726 347 l 850 347 m 663 1207 l 486 1053 l 381 1053 l 528 1207 l 663 1207 z "},"":{"ha":897,"x_min":-32,"x_max":965,"o":"m 850 347 l 785 118 l 786 118 l 767 54 l 756 13 l 751 0 l 101 0 l -32 0 l 3 118 l 115 118 l 326 854 l 213 854 l 246 974 l 501 974 l 257 118 l 663 118 l 726 347 l 850 347 m 789 731 l 843 974 l 965 974 l 875 731 l 789 731 z "},"":{"ha":897,"x_min":-32,"x_max":850,"o":"m 850 347 l 785 118 l 786 118 l 767 54 l 756 13 l 751 0 l 101 0 l -32 0 l 3 118 l 115 118 l 326 854 l 213 854 l 246 974 l 501 974 l 257 118 l 663 118 l 726 347 l 850 347 m 288 -243 q 369 -157 358 -214 l 314 -157 l 346 -50 l 456 -50 q 297 -278 435 -228 l 288 -243 z "},"":{"ha":897,"x_min":-32,"x_max":850,"o":"m 850 347 l 785 118 l 786 118 l 767 54 l 756 13 l 751 0 l 101 0 l -32 0 l 3 118 l 115 118 l 326 854 l 213 854 l 246 974 l 501 974 l 257 118 l 663 118 l 726 347 l 850 347 m 721 499 q 670 512 690 499 q 650 551 650 525 q 654 575 650 563 q 747 638 671 638 q 795 623 776 638 q 814 582 814 608 q 811 561 814 575 q 778 513 800 526 q 721 499 756 499 z "},"":{"ha":897,"x_min":-32,"x_max":850,"o":"m 850 347 l 785 118 l 786 118 l 767 54 l 756 13 l 751 0 l 101 0 l -32 0 l 3 118 l 115 118 l 326 854 l 213 854 l 246 974 l 501 974 l 257 118 l 663 118 l 726 347 l 850 347 m 399 -76 q 444 -90 428 -76 q 460 -125 460 -103 q 457 -143 460 -129 q 421 -194 447 -175 q 360 -212 394 -212 q 315 -199 331 -212 q 299 -164 299 -186 q 301 -143 299 -150 q 338 -94 311 -111 q 399 -76 364 -76 z "},"":{"ha":897,"x_min":-32,"x_max":850,"o":"m 850 347 l 785 118 l 786 118 l 767 54 l 756 13 l 751 0 l 101 0 l -32 0 l 3 118 l 115 118 l 326 854 l 213 854 l 246 974 l 501 974 l 257 118 l 663 118 l 726 347 l 850 347 m 399 -76 q 444 -90 428 -76 q 460 -125 460 -103 q 457 -143 460 -129 q 421 -194 447 -175 q 360 -212 394 -212 q 315 -199 331 -212 q 299 -164 299 -186 q 301 -143 299 -150 q 338 -94 311 -111 q 399 -76 364 -76 z "},"":{"ha":897,"x_min":-32,"x_max":850,"o":"m 850 347 l 785 118 l 786 118 l 767 54 l 756 13 l 751 0 l 101 0 l -32 0 l 3 118 l 115 118 l 326 854 l 213 854 l 246 974 l 501 974 l 257 118 l 663 118 l 726 347 l 850 347 z "},"":{"ha":897,"x_min":-32,"x_max":850,"o":"m 850 347 l 785 118 l 786 118 l 767 54 l 756 13 l 751 0 l 101 0 l -32 0 l 3 118 l 115 118 l 199 407 l 94 357 l 79 426 l 224 496 l 326 854 l 213 854 l 246 974 l 501 974 l 388 574 l 472 614 l 490 546 l 361 485 l 257 118 l 663 118 l 726 347 l 850 347 z "},"":{"ha":1349,"x_min":-32,"x_max":1460,"o":"m 1185 974 l 1460 974 l 1425 856 l 1313 856 l 1101 119 l 1215 119 l 1181 0 l 946 0 l 813 0 l 847 118 l 960 118 l 1133 726 l 651 167 l 593 167 l 431 726 l 257 117 l 369 117 l 335 0 l 201 0 l -32 0 l 3 118 l 115 118 l 326 854 l 213 854 l 246 974 l 490 974 l 663 367 l 1185 974 m 557 -76 q 602 -90 586 -76 q 618 -125 618 -103 q 615 -143 618 -129 q 579 -194 606 -175 q 518 -212 553 -212 q 473 -199 489 -212 q 457 -164 457 -186 q 460 -143 457 -150 q 496 -94 469 -111 q 557 -76 522 -76 z "},"":{"ha":1176,"x_min":-32,"x_max":1288,"o":"m 3 118 l 115 118 l 326 854 l 213 854 l 246 974 l 472 974 l 819 233 l 999 857 l 888 857 l 921 975 q 1054 974 949 974 l 1288 974 l 1253 856 l 1142 856 l 931 119 l 1043 119 l 1010 0 l 785 0 l 436 743 l 257 118 l 369 119 l 335 0 l -32 0 l 3 118 m 1010 1207 l 833 1053 l 728 1053 l 875 1207 l 1010 1207 z "},"":{"ha":1176,"x_min":-32,"x_max":1288,"o":"m 3 118 l 115 118 l 326 854 l 213 854 l 246 974 l 472 974 l 819 233 l 999 857 l 888 857 l 921 975 q 1054 974 949 974 l 1288 974 l 1253 856 l 1142 856 l 931 119 l 1043 119 l 1010 0 l 785 0 l 436 743 l 257 118 l 369 119 l 335 0 l -32 0 l 3 118 m 817 1117 l 913 1208 l 1050 1208 l 879 1056 l 735 1056 l 650 1208 l 774 1208 l 817 1117 z "},"":{"ha":1176,"x_min":-32,"x_max":1288,"o":"m 3 118 l 115 118 l 326 854 l 213 854 l 246 974 l 472 974 l 819 233 l 999 857 l 888 857 l 921 975 q 1054 974 949 974 l 1288 974 l 1253 856 l 1142 856 l 931 119 l 1043 119 l 1010 0 l 785 0 l 436 743 l 257 118 l 369 119 l 335 0 l -32 0 l 3 118 m 376 -243 q 458 -157 447 -214 l 403 -157 l 435 -50 l 544 -50 q 386 -278 524 -228 l 376 -243 z "},"":{"ha":1176,"x_min":-32,"x_max":1288,"o":"m 3 118 l 115 118 l 326 854 l 213 854 l 246 974 l 472 974 l 819 233 l 999 857 l 888 857 l 921 975 q 1054 974 949 974 l 1288 974 l 1253 856 l 1142 856 l 931 119 l 1043 119 l 1010 0 l 785 0 l 436 743 l 257 118 l 369 119 l 335 0 l -32 0 l 3 118 m 821 1044 q 776 1056 792 1044 q 760 1089 760 1067 q 789 1151 760 1125 q 861 1176 818 1176 q 906 1164 890 1176 q 922 1129 922 1151 q 919 1110 922 1117 q 883 1063 910 1081 q 821 1044 857 1044 z "},"":{"ha":1176,"x_min":-32,"x_max":1288,"o":"m 3 118 l 115 118 l 326 854 l 213 854 l 246 974 l 472 974 l 819 233 l 999 857 l 888 857 l 921 975 q 1054 974 949 974 l 1288 974 l 1253 856 l 1142 856 l 931 119 l 1043 119 l 1010 0 l 785 0 l 436 743 l 257 118 l 369 119 l 335 0 l -32 0 l 3 118 m 488 -76 q 533 -90 517 -76 q 549 -125 549 -103 q 546 -143 549 -129 q 510 -194 536 -175 q 449 -212 483 -212 q 403 -199 419 -212 q 388 -164 388 -186 q 390 -143 388 -150 q 426 -94 400 -111 q 488 -76 453 -76 z "},"":{"ha":1235,"x_min":-32,"x_max":1313,"o":"m 1313 974 l 1278 856 l 1167 856 l 921 0 l 897 -81 q 819 -209 874 -162 q 699 -256 765 -256 q 640 -250 665 -256 q 586 -231 615 -244 l 621 -136 q 672 -146 646 -146 q 728 -123 701 -146 q 767 -62 754 -100 l 792 28 l 436 744 l 257 117 l 369 117 l 335 0 l 201 0 l -32 0 l 3 118 l 115 118 l 326 854 l 213 854 l 246 974 l 478 974 l 840 213 l 1025 857 l 913 857 l 947 974 l 1081 974 l 1313 974 z "},"":{"ha":1167,"x_min":-144,"x_max":1278,"o":"m 1278 974 l 1243 856 l 1132 856 l 921 119 l 1035 119 l 1000 0 l 772 0 l 403 744 l 200 38 l 167 -81 q 89 -209 143 -162 q -33 -256 35 -256 q -91 -250 -65 -256 q -144 -231 -117 -244 l -115 -136 q -65 -146 -90 -146 q -8 -122 -33 -146 q 29 -60 18 -99 l 58 38 l 293 856 l 179 854 l 213 974 l 444 974 l 806 213 l 990 857 l 879 857 l 913 974 l 1046 974 l 1278 974 z "},"":{"ha":1176,"x_min":-32,"x_max":1288,"o":"m 3 118 l 115 118 l 326 854 l 213 854 l 246 974 l 472 974 l 819 233 l 999 857 l 888 857 l 921 975 q 1054 974 949 974 l 1288 974 l 1253 856 l 1142 856 l 931 119 l 1043 119 l 1010 0 l 785 0 l 436 743 l 257 118 l 369 119 l 335 0 l -32 0 l 3 118 z "},"":{"ha":1176,"x_min":-32,"x_max":1288,"o":"m 3 118 l 115 118 l 326 854 l 213 854 l 246 974 l 472 974 l 819 233 l 999 857 l 888 857 l 921 975 q 1054 974 949 974 l 1288 974 l 1253 856 l 1142 856 l 931 119 l 1043 119 l 1010 0 l 785 0 l 436 743 l 257 118 l 369 119 l 335 0 l -32 0 l 3 118 z "},"":{"ha":1078,"x_min":81,"x_max":1076,"o":"m 460 -18 q 181 76 282 -18 q 81 331 81 169 q 159 664 81 513 q 378 903 238 815 q 696 992 518 992 q 976 898 875 992 q 1076 640 1076 804 q 998 309 1076 460 q 778 70 919 158 q 460 -18 638 -18 m 471 114 q 708 187 603 114 q 874 378 814 260 q 935 632 935 497 q 872 801 935 742 q 685 860 808 860 q 448 787 554 860 q 281 594 342 714 q 221 342 221 475 q 284 174 221 233 q 471 114 347 114 m 943 1207 l 767 1053 l 661 1053 l 808 1207 l 943 1207 z "},"":{"ha":1078,"x_min":81,"x_max":1076,"o":"m 460 -18 q 181 76 282 -18 q 81 331 81 169 q 159 664 81 513 q 378 903 238 815 q 696 992 518 992 q 976 898 875 992 q 1076 640 1076 804 q 998 309 1076 460 q 778 70 919 158 q 460 -18 638 -18 m 471 114 q 708 187 603 114 q 874 378 814 260 q 935 632 935 497 q 872 801 935 742 q 685 860 808 860 q 448 787 554 860 q 281 594 342 714 q 221 342 221 475 q 284 174 221 233 q 471 114 347 114 z "},"":{"ha":1078,"x_min":81,"x_max":1076,"o":"m 460 -18 q 181 76 282 -18 q 81 331 81 169 q 159 664 81 513 q 378 903 238 815 q 696 992 518 992 q 976 898 875 992 q 1076 640 1076 804 q 998 309 1076 460 q 778 70 919 158 q 460 -18 638 -18 m 471 114 q 708 187 603 114 q 874 378 814 260 q 935 632 935 497 q 872 801 935 742 q 685 860 808 860 q 448 787 554 860 q 281 594 342 714 q 221 342 221 475 q 284 174 221 233 q 471 114 347 114 m 751 1117 l 847 1208 l 985 1208 l 814 1056 l 669 1056 l 585 1208 l 708 1208 l 751 1117 z "},"":{"ha":1078,"x_min":81,"x_max":1076,"o":"m 460 -18 q 181 76 282 -18 q 81 331 81 169 q 159 664 81 513 q 378 903 238 815 q 696 992 518 992 q 976 898 875 992 q 1076 640 1076 804 q 998 309 1076 460 q 778 70 919 158 q 460 -18 638 -18 m 471 114 q 708 187 603 114 q 874 378 814 260 q 935 632 935 497 q 872 801 935 742 q 685 860 808 860 q 448 787 554 860 q 281 594 342 714 q 221 342 221 475 q 284 174 221 233 q 471 114 347 114 m 878 1210 l 949 1051 l 825 1051 l 788 1146 l 688 1051 l 549 1051 l 729 1210 l 878 1210 z "},"":{"ha":1078,"x_min":81,"x_max":1076,"o":"m 460 -18 q 181 76 282 -18 q 81 331 81 169 q 159 664 81 513 q 378 903 238 815 q 696 992 518 992 q 976 898 875 992 q 1076 640 1076 804 q 998 309 1076 460 q 778 70 919 158 q 460 -18 638 -18 m 471 114 q 708 187 603 114 q 874 378 814 260 q 935 632 935 497 q 872 801 935 742 q 685 860 808 860 q 448 787 554 860 q 281 594 342 714 q 221 342 221 475 q 284 174 221 233 q 471 114 347 114 m 647 1043 q 603 1054 619 1043 q 588 1086 588 1065 q 616 1148 588 1122 q 688 1174 644 1174 q 731 1162 715 1174 q 746 1128 746 1150 q 717 1067 746 1092 q 647 1043 689 1043 m 861 1043 q 817 1054 833 1043 q 801 1088 801 1065 q 804 1107 801 1100 q 838 1155 813 1136 q 900 1174 864 1174 q 944 1161 928 1174 q 960 1126 960 1149 q 957 1107 960 1121 q 922 1060 947 1078 q 861 1043 896 1043 z "},"":{"ha":1078,"x_min":81,"x_max":1076,"o":"m 460 -18 q 181 76 282 -18 q 81 331 81 169 q 159 664 81 513 q 378 903 238 815 q 696 992 518 992 q 976 898 875 992 q 1076 640 1076 804 q 998 309 1076 460 q 778 70 919 158 q 460 -18 638 -18 m 471 114 q 708 187 603 114 q 874 378 814 260 q 935 632 935 497 q 872 801 935 742 q 685 860 808 860 q 448 787 554 860 q 281 594 342 714 q 221 342 221 475 q 284 174 221 233 q 471 114 347 114 m 815 1053 l 710 1053 l 622 1207 l 757 1207 l 815 1053 z "},"":{"ha":1078,"x_min":81,"x_max":1076,"o":"m 460 -18 q 181 76 282 -18 q 81 331 81 169 q 159 664 81 513 q 378 903 238 815 q 696 992 518 992 q 976 898 875 992 q 1076 640 1076 804 q 998 309 1076 460 q 778 70 919 158 q 460 -18 638 -18 m 471 114 q 708 187 603 114 q 874 378 814 260 q 935 632 935 497 q 872 801 935 742 q 685 860 808 860 q 448 787 554 860 q 281 594 342 714 q 221 342 221 475 q 284 174 221 233 q 471 114 347 114 m 842 1207 l 679 1053 l 576 1053 l 710 1207 l 842 1207 m 1050 1207 l 888 1053 l 785 1053 l 918 1207 l 1050 1207 z "},"":{"ha":1078,"x_min":81,"x_max":1076,"o":"m 460 -18 q 181 76 282 -18 q 81 331 81 169 q 159 664 81 513 q 378 903 238 815 q 696 992 518 992 q 976 898 875 992 q 1076 640 1076 804 q 998 309 1076 460 q 778 70 919 158 q 460 -18 638 -18 m 471 114 q 708 187 603 114 q 874 378 814 260 q 935 632 935 497 q 872 801 935 742 q 685 860 808 860 q 448 787 554 860 q 281 594 342 714 q 221 342 221 475 q 284 174 221 233 q 471 114 347 114 z "},"":{"ha":1078,"x_min":81,"x_max":1076,"o":"m 690 25 q 615 -32 642 -1 q 588 -87 588 -62 q 650 -128 588 -128 q 700 -122 676 -128 l 685 -201 q 586 -212 625 -212 q 490 -191 522 -212 q 458 -132 458 -169 q 463 -103 458 -118 q 524 -15 476 -56 q 460 -18 482 -18 q 181 76 282 -18 q 81 331 81 169 q 159 664 81 513 q 378 903 238 815 q 696 992 518 992 q 976 898 875 992 q 1076 640 1076 804 q 1029 378 1076 501 q 894 164 982 256 q 690 25 807 72 m 221 342 q 284 174 221 233 q 471 114 347 114 q 708 187 603 114 q 874 378 814 260 q 935 632 935 497 q 872 801 935 742 q 685 860 808 860 q 448 787 554 860 q 281 594 342 714 q 221 342 221 475 z "},"":{"ha":1078,"x_min":-10,"x_max":1164,"o":"m 1164 868 l 1053 782 q 1076 640 1076 718 q 998 309 1076 460 q 778 70 919 158 q 460 -18 638 -18 q 289 10 364 -18 q 165 92 214 39 l 61 11 l -10 106 l 103 193 q 81 331 81 260 q 159 664 81 513 q 378 903 238 815 q 696 992 518 992 q 866 964 792 992 q 990 883 940 936 l 1092 961 l 1164 868 m 221 342 q 225 288 221 313 l 878 794 q 685 860 815 860 q 448 787 554 860 q 281 594 342 714 q 221 342 221 475 m 935 632 q 931 686 935 661 l 278 179 q 471 114 343 114 q 708 187 603 114 q 874 378 814 260 q 935 632 935 497 z "},"":{"ha":1078,"x_min":-10,"x_max":1164,"o":"m 1164 868 l 1053 782 q 1076 640 1076 718 q 998 309 1076 460 q 778 70 919 158 q 460 -18 638 -18 q 289 10 364 -18 q 165 92 214 39 l 61 11 l -10 106 l 103 193 q 81 331 81 260 q 159 664 81 513 q 378 903 238 815 q 696 992 518 992 q 866 964 792 992 q 990 883 940 936 l 1092 961 l 1164 868 m 221 342 q 225 288 221 313 l 878 794 q 685 860 815 860 q 448 787 554 860 q 281 594 342 714 q 221 342 221 475 m 935 632 q 931 686 935 661 l 278 179 q 471 114 343 114 q 708 187 603 114 q 874 378 814 260 q 935 632 935 497 m 943 1207 l 767 1053 l 661 1053 l 808 1207 l 943 1207 z "},"":{"ha":1078,"x_min":81,"x_max":1076,"o":"m 460 -18 q 181 76 282 -18 q 81 331 81 169 q 159 664 81 513 q 378 903 238 815 q 696 992 518 992 q 976 898 875 992 q 1076 640 1076 804 q 998 309 1076 460 q 778 70 919 158 q 460 -18 638 -18 m 471 114 q 708 187 603 114 q 874 378 814 260 q 935 632 935 497 q 872 801 935 742 q 685 860 808 860 q 448 787 554 860 q 281 594 342 714 q 221 342 221 475 q 284 174 221 233 q 471 114 347 114 z "},"":{"ha":947,"x_min":-47,"x_max":965,"o":"m 965 742 q 891 526 965 618 q 681 399 817 435 l 729 174 q 752 128 736 140 q 796 115 768 115 q 853 124 826 115 l 858 4 q 806 -10 826 -6 q 753 -14 785 -14 q 651 22 688 -14 q 599 129 614 58 l 544 379 l 518 379 l 315 379 l 240 117 l 353 117 l 319 0 l 186 0 l 86 0 l -47 0 l -12 118 l 99 118 l 310 854 l 196 854 l 231 974 l 644 974 q 883 911 800 974 q 965 742 965 849 m 531 499 q 692 531 626 499 q 790 616 758 563 q 822 733 822 669 q 635 856 822 856 l 453 856 l 350 499 l 531 499 m 865 1207 l 689 1053 l 583 1053 l 731 1207 l 865 1207 z "},"":{"ha":947,"x_min":-47,"x_max":965,"o":"m 965 742 q 891 526 965 618 q 681 399 817 435 l 729 174 q 752 128 736 140 q 796 115 768 115 q 853 124 826 115 l 858 4 q 806 -10 826 -6 q 753 -14 785 -14 q 651 22 688 -14 q 599 129 614 58 l 544 379 l 518 379 l 315 379 l 240 117 l 353 117 l 319 0 l 186 0 l 86 0 l -47 0 l -12 118 l 99 118 l 310 854 l 196 854 l 231 974 l 644 974 q 883 911 800 974 q 965 742 965 849 m 531 499 q 692 531 626 499 q 790 616 758 563 q 822 733 822 669 q 635 856 822 856 l 453 856 l 350 499 l 531 499 m 672 1117 l 768 1208 l 906 1208 l 735 1056 l 590 1056 l 506 1208 l 629 1208 l 672 1117 z "},"":{"ha":947,"x_min":-47,"x_max":965,"o":"m 965 742 q 891 526 965 618 q 681 399 817 435 l 729 174 q 752 128 736 140 q 796 115 768 115 q 853 124 826 115 l 858 4 q 806 -10 826 -6 q 753 -14 785 -14 q 651 22 688 -14 q 599 129 614 58 l 544 379 l 518 379 l 315 379 l 240 117 l 353 117 l 319 0 l 186 0 l 86 0 l -47 0 l -12 118 l 99 118 l 310 854 l 196 854 l 231 974 l 644 974 q 883 911 800 974 q 965 742 965 849 m 531 499 q 692 531 626 499 q 790 616 758 563 q 822 733 822 669 q 635 856 822 856 l 453 856 l 350 499 l 531 499 m 232 -243 q 314 -157 303 -214 l 258 -157 l 290 -50 l 400 -50 q 242 -278 379 -228 l 232 -243 z "},"":{"ha":947,"x_min":-47,"x_max":965,"o":"m 965 742 q 891 526 965 618 q 681 399 817 435 l 729 174 q 752 128 736 140 q 796 115 768 115 q 853 124 826 115 l 858 4 q 806 -10 826 -6 q 753 -14 785 -14 q 651 22 688 -14 q 599 129 614 58 l 544 379 l 518 379 l 315 379 l 240 117 l 353 117 l 319 0 l 186 0 l 86 0 l -47 0 l -12 118 l 99 118 l 310 854 l 196 854 l 231 974 l 644 974 q 883 911 800 974 q 965 742 965 849 m 531 499 q 692 531 626 499 q 790 616 758 563 q 822 733 822 669 q 635 856 822 856 l 453 856 l 350 499 l 531 499 m 343 -76 q 388 -90 372 -76 q 404 -125 404 -103 q 401 -143 404 -129 q 365 -194 392 -175 q 304 -212 339 -212 q 259 -199 275 -212 q 243 -164 243 -186 q 246 -143 243 -150 q 282 -94 256 -111 q 343 -76 308 -76 z "},"":{"ha":947,"x_min":-47,"x_max":965,"o":"m 965 742 q 891 526 965 618 q 681 399 817 435 l 729 174 q 752 128 736 140 q 796 115 768 115 q 853 124 826 115 l 858 4 q 806 -10 826 -6 q 753 -14 785 -14 q 651 22 688 -14 q 599 129 614 58 l 544 379 l 518 379 l 315 379 l 240 117 l 353 117 l 319 0 l 186 0 l 86 0 l -47 0 l -12 118 l 99 118 l 310 854 l 196 854 l 231 974 l 644 974 q 883 911 800 974 q 965 742 965 849 m 531 499 q 692 531 626 499 q 790 616 758 563 q 822 733 822 669 q 635 856 822 856 l 453 856 l 350 499 l 531 499 m 343 -76 q 388 -90 372 -76 q 404 -125 404 -103 q 401 -143 404 -129 q 365 -194 392 -175 q 304 -212 339 -212 q 259 -199 275 -212 q 243 -164 243 -186 q 246 -143 243 -150 q 282 -94 256 -111 q 343 -76 308 -76 z "},"":{"ha":947,"x_min":-47,"x_max":965,"o":"m 965 742 q 891 526 965 618 q 681 399 817 435 l 729 174 q 752 128 736 140 q 796 115 768 115 q 853 124 826 115 l 858 4 q 806 -10 826 -6 q 753 -14 785 -14 q 651 22 688 -14 q 599 129 614 58 l 544 379 l 518 379 l 315 379 l 240 117 l 353 117 l 319 0 l 186 0 l 86 0 l -47 0 l -12 118 l 99 118 l 310 854 l 196 854 l 231 974 l 644 974 q 883 911 800 974 q 965 742 965 849 m 531 499 q 692 531 626 499 q 790 616 758 563 q 822 733 822 669 q 635 856 822 856 l 453 856 l 350 499 l 531 499 z "},"":{"ha":844,"x_min":-15,"x_max":918,"o":"m 850 678 l 725 678 l 771 833 q 565 860 682 860 q 373 813 438 860 q 308 685 308 767 q 347 617 308 642 q 482 574 385 593 q 715 481 642 542 q 788 331 788 421 q 736 155 788 235 q 584 28 685 75 q 343 -19 483 -19 q 133 7 232 -19 q -15 68 35 33 l 57 324 l 181 324 l 133 157 q 354 113 242 113 q 521 142 456 113 q 615 215 586 171 q 643 310 643 260 q 598 387 643 360 q 450 435 553 414 q 233 520 300 464 q 165 664 165 576 q 213 835 165 761 q 354 950 261 908 q 578 992 447 992 q 918 918 804 992 l 850 678 m 832 1207 l 656 1053 l 550 1053 l 697 1207 l 832 1207 z "},"":{"ha":844,"x_min":-15,"x_max":918,"o":"m 850 678 l 725 678 l 771 833 q 565 860 682 860 q 373 813 438 860 q 308 685 308 767 q 347 617 308 642 q 482 574 385 593 q 715 481 642 542 q 788 331 788 421 q 736 155 788 235 q 584 28 685 75 q 343 -19 483 -19 q 133 7 232 -19 q -15 68 35 33 l 57 324 l 181 324 l 133 157 q 354 113 242 113 q 521 142 456 113 q 615 215 586 171 q 643 310 643 260 q 598 387 643 360 q 450 435 553 414 q 233 520 300 464 q 165 664 165 576 q 213 835 165 761 q 354 950 261 908 q 578 992 447 992 q 918 918 804 992 l 850 678 m 639 1117 l 735 1208 l 872 1208 l 701 1056 l 557 1056 l 472 1208 l 596 1208 l 639 1117 z "},"":{"ha":844,"x_min":-15,"x_max":918,"o":"m 850 678 l 725 678 l 771 833 q 565 860 682 860 q 373 813 438 860 q 308 685 308 767 q 347 617 308 642 q 482 574 385 593 q 715 481 642 542 q 788 331 788 421 q 738 157 788 236 q 590 30 688 78 q 356 -19 493 -18 l 342 -46 q 397 -72 378 -53 q 417 -117 417 -90 q 363 -204 417 -169 q 231 -239 310 -239 q 147 -228 181 -239 l 181 -149 q 238 -156 201 -156 q 294 -125 285 -156 q 278 -98 300 -104 q 207 -94 256 -92 l 249 -14 q 94 17 165 -6 q -15 68 24 40 l 57 324 l 181 324 l 133 157 q 354 113 242 113 q 521 142 456 113 q 615 215 586 171 q 643 310 643 260 q 598 387 643 360 q 450 435 553 414 q 233 520 300 464 q 165 664 165 576 q 213 835 165 761 q 354 950 261 908 q 578 992 447 992 q 918 918 804 992 l 850 678 z "},"":{"ha":844,"x_min":-15,"x_max":918,"o":"m 850 678 l 725 678 l 771 833 q 565 860 682 860 q 373 813 438 860 q 308 685 308 767 q 347 617 308 642 q 482 574 385 593 q 715 481 642 542 q 788 331 788 421 q 736 155 788 235 q 584 28 685 75 q 343 -19 483 -19 q 133 7 232 -19 q -15 68 35 33 l 57 324 l 181 324 l 133 157 q 354 113 242 113 q 521 142 456 113 q 615 215 586 171 q 643 310 643 260 q 598 387 643 360 q 450 435 553 414 q 233 520 300 464 q 165 664 165 576 q 213 835 165 761 q 354 950 261 908 q 578 992 447 992 q 918 918 804 992 l 850 678 m 765 1210 l 836 1051 l 713 1051 l 675 1146 l 575 1051 l 436 1051 l 617 1210 l 765 1210 z "},"":{"ha":844,"x_min":-15,"x_max":918,"o":"m 850 678 l 725 678 l 771 833 q 565 860 682 860 q 373 813 438 860 q 308 685 308 767 q 347 617 308 642 q 482 574 385 593 q 715 481 642 542 q 788 331 788 421 q 736 155 788 235 q 584 28 685 75 q 343 -19 483 -19 q 133 7 232 -19 q -15 68 35 33 l 57 324 l 181 324 l 133 157 q 354 113 242 113 q 521 142 456 113 q 615 215 586 171 q 643 310 643 260 q 598 387 643 360 q 450 435 553 414 q 233 520 300 464 q 165 664 165 576 q 213 835 165 761 q 354 950 261 908 q 578 992 447 992 q 918 918 804 992 l 850 678 m 200 -244 q 282 -158 271 -215 l 226 -158 l 258 -51 l 368 -51 q 210 -279 347 -229 l 200 -244 z "},"":{"ha":844,"x_min":-15,"x_max":918,"o":"m 850 678 l 725 678 l 771 833 q 565 860 682 860 q 373 813 438 860 q 308 685 308 767 q 347 617 308 642 q 482 574 385 593 q 715 481 642 542 q 788 331 788 421 q 736 155 788 235 q 584 28 685 75 q 343 -19 483 -19 q 133 7 232 -19 q -15 68 35 33 l 57 324 l 181 324 l 133 157 q 354 113 242 113 q 521 142 456 113 q 615 215 586 171 q 643 310 643 260 q 598 387 643 360 q 450 435 553 414 q 233 520 300 464 q 165 664 165 576 q 213 835 165 761 q 354 950 261 908 q 578 992 447 992 q 918 918 804 992 l 850 678 m 642 1044 q 597 1056 613 1044 q 581 1089 581 1067 q 610 1151 581 1125 q 682 1176 639 1176 q 727 1164 711 1176 q 743 1129 743 1151 q 740 1110 743 1117 q 704 1063 731 1081 q 642 1044 678 1044 z "},"":{"ha":844,"x_min":-15,"x_max":918,"o":"m 850 678 l 725 678 l 771 833 q 565 860 682 860 q 373 813 438 860 q 308 685 308 767 q 347 617 308 642 q 482 574 385 593 q 715 481 642 542 q 788 331 788 421 q 736 155 788 235 q 584 28 685 75 q 343 -19 483 -19 q 133 7 232 -19 q -15 68 35 33 l 57 324 l 181 324 l 133 157 q 354 113 242 113 q 521 142 456 113 q 615 215 586 171 q 643 310 643 260 q 598 387 643 360 q 450 435 553 414 q 233 520 300 464 q 165 664 165 576 q 213 835 165 761 q 354 950 261 908 q 578 992 447 992 q 918 918 804 992 l 850 678 m 311 -78 q 356 -91 340 -78 q 372 -126 372 -104 q 369 -144 372 -131 q 333 -195 360 -176 q 272 -214 307 -214 q 227 -201 243 -214 q 211 -165 211 -187 q 214 -144 211 -151 q 250 -95 224 -112 q 311 -78 276 -78 z "},"":{"ha":1053,"x_min":67,"x_max":1057,"o":"m 683 992 q 956 901 856 992 q 1057 643 1057 810 q 1026 450 1057 554 q 826 99 960 215 q 460 -18 692 -18 q 249 25 338 -18 q 114 145 161 68 q 67 325 67 222 q 85 457 67 390 q 96 490 88 468 q 108 524 104 513 l 903 524 q 917 642 917 585 q 667 860 917 860 q 322 740 457 860 l 238 836 q 439 953 329 915 q 683 992 549 992 m 458 114 q 869 406 760 114 l 218 406 q 208 319 208 350 q 458 114 208 114 z "},"":{"ha":940,"x_min":135,"x_max":1083,"o":"m 182 856 l 217 974 l 1083 974 l 1001 688 l 876 688 l 925 856 l 686 856 l 588 513 l 761 513 l 738 433 l 565 433 l 475 119 l 589 119 l 554 0 l 186 0 l 221 118 l 333 118 l 422 433 l 251 433 l 274 513 l 446 513 l 543 856 l 306 856 l 258 688 l 135 688 l 183 856 l 182 856 z "},"":{"ha":940,"x_min":135,"x_max":1083,"o":"m 182 856 l 217 974 l 1083 974 l 1001 688 l 876 688 l 925 856 l 686 856 l 475 119 l 589 119 l 554 0 l 186 0 l 221 118 l 333 118 l 543 856 l 306 856 l 258 688 l 135 688 l 183 856 l 182 856 m 686 1117 l 782 1208 l 919 1208 l 749 1056 l 604 1056 l 519 1208 l 643 1208 l 686 1117 z "},"":{"ha":940,"x_min":135,"x_max":1083,"o":"m 217 974 l 1083 974 l 1001 688 l 876 688 l 925 856 l 686 856 l 475 119 l 589 119 l 554 0 l 408 0 l 386 -44 q 442 -70 422 -51 q 461 -115 461 -89 q 408 -203 461 -168 q 275 -237 354 -237 q 192 -226 225 -237 l 225 -147 q 282 -154 246 -154 q 339 -124 329 -154 q 322 -97 344 -103 q 251 -93 300 -90 l 300 0 l 186 0 l 221 118 l 333 118 l 543 856 l 306 856 l 258 688 l 135 688 l 183 856 l 182 856 l 217 974 z "},"":{"ha":940,"x_min":135,"x_max":1083,"o":"m 182 856 l 217 974 l 1083 974 l 1001 688 l 876 688 l 925 856 l 686 856 l 475 119 l 589 119 l 554 0 l 186 0 l 221 118 l 333 118 l 543 856 l 306 856 l 258 688 l 135 688 l 183 856 l 182 856 m 244 -243 q 326 -157 315 -214 l 271 -157 l 303 -50 l 413 -50 q 254 -278 392 -228 l 244 -243 z "},"":{"ha":940,"x_min":135,"x_max":1083,"o":"m 182 856 l 217 974 l 1083 974 l 1001 688 l 876 688 l 925 856 l 686 856 l 475 119 l 589 119 l 554 0 l 186 0 l 221 118 l 333 118 l 543 856 l 306 856 l 258 688 l 135 688 l 183 856 l 182 856 m 354 -76 q 399 -90 383 -76 q 415 -125 415 -103 q 413 -143 415 -129 q 376 -194 403 -175 q 315 -212 350 -212 q 270 -199 286 -212 q 254 -164 254 -186 q 257 -143 254 -150 q 293 -94 267 -111 q 354 -76 319 -76 z "},"":{"ha":940,"x_min":124,"x_max":1083,"o":"m 182 856 l 217 974 l 1083 974 l 1001 688 l 876 688 l 925 856 l 686 856 l 475 119 l 589 119 l 554 0 l 186 0 l 221 118 l 333 118 l 543 856 l 306 856 l 258 688 l 135 688 l 183 856 l 182 856 z "},"":{"ha":1075,"x_min":133,"x_max":1235,"o":"m 461 -14 q 222 62 310 -14 q 133 275 133 138 q 157 428 133 349 l 279 854 l 165 854 l 199 974 l 567 974 l 533 856 l 421 856 l 290 403 q 272 289 272 340 q 324 160 272 203 q 474 118 376 118 q 824 428 732 118 l 946 854 l 832 854 l 865 974 l 1235 974 l 1200 856 l 1088 856 l 957 403 q 773 96 901 206 q 461 -14 644 -14 m 943 1207 l 767 1053 l 661 1053 l 808 1207 l 943 1207 z "},"":{"ha":1075,"x_min":133,"x_max":1235,"o":"m 461 -14 q 222 62 310 -14 q 133 275 133 138 q 157 428 133 349 l 279 854 l 165 854 l 199 974 l 567 974 l 533 856 l 421 856 l 290 403 q 272 289 272 340 q 324 160 272 203 q 474 118 376 118 q 824 428 732 118 l 946 854 l 832 854 l 865 974 l 1235 974 l 1200 856 l 1088 856 l 957 403 q 773 96 901 206 q 461 -14 644 -14 z "},"":{"ha":1075,"x_min":133,"x_max":1235,"o":"m 461 -14 q 222 62 310 -14 q 133 275 133 138 q 157 428 133 349 l 279 854 l 165 854 l 199 974 l 567 974 l 533 856 l 421 856 l 290 403 q 272 289 272 340 q 324 160 272 203 q 474 118 376 118 q 824 428 732 118 l 946 854 l 832 854 l 865 974 l 1235 974 l 1200 856 l 1088 856 l 957 403 q 773 96 901 206 q 461 -14 644 -14 m 751 1117 l 847 1208 l 985 1208 l 814 1056 l 669 1056 l 585 1208 l 708 1208 l 751 1117 z "},"":{"ha":1075,"x_min":133,"x_max":1235,"o":"m 461 -14 q 222 62 310 -14 q 133 275 133 138 q 157 428 133 349 l 279 854 l 165 854 l 199 974 l 567 974 l 533 856 l 421 856 l 290 403 q 272 289 272 340 q 324 160 272 203 q 474 118 376 118 q 824 428 732 118 l 946 854 l 832 854 l 865 974 l 1235 974 l 1200 856 l 1088 856 l 957 403 q 773 96 901 206 q 461 -14 644 -14 m 876 1210 l 947 1051 l 824 1051 l 786 1146 l 686 1051 l 547 1051 l 728 1210 l 876 1210 z "},"":{"ha":1075,"x_min":133,"x_max":1235,"o":"m 461 -14 q 222 62 310 -14 q 133 275 133 138 q 157 428 133 349 l 279 854 l 165 854 l 199 974 l 567 974 l 533 856 l 421 856 l 290 403 q 272 289 272 340 q 324 160 272 203 q 474 118 376 118 q 824 428 732 118 l 946 854 l 832 854 l 865 974 l 1235 974 l 1200 856 l 1088 856 l 957 403 q 773 96 901 206 q 461 -14 644 -14 m 647 1043 q 603 1054 619 1043 q 588 1086 588 1065 q 616 1148 588 1122 q 688 1174 644 1174 q 731 1162 715 1174 q 746 1128 746 1150 q 717 1067 746 1092 q 647 1043 689 1043 m 861 1043 q 817 1054 833 1043 q 801 1088 801 1065 q 804 1107 801 1100 q 838 1155 813 1136 q 900 1174 864 1174 q 944 1161 928 1174 q 960 1126 960 1149 q 957 1107 960 1121 q 922 1060 947 1078 q 861 1043 896 1043 z "},"":{"ha":1075,"x_min":133,"x_max":1235,"o":"m 461 -14 q 222 62 310 -14 q 133 275 133 138 q 157 428 133 349 l 279 854 l 165 854 l 199 974 l 567 974 l 533 856 l 421 856 l 290 403 q 272 289 272 340 q 324 160 272 203 q 474 118 376 118 q 824 428 732 118 l 946 854 l 832 854 l 865 974 l 1235 974 l 1200 856 l 1088 856 l 957 403 q 773 96 901 206 q 461 -14 644 -14 m 647 1043 q 603 1054 619 1043 q 588 1086 588 1065 q 616 1148 588 1122 q 688 1174 644 1174 q 731 1162 715 1174 q 746 1128 746 1150 q 717 1067 746 1092 q 647 1043 689 1043 m 861 1043 q 817 1054 833 1043 q 801 1088 801 1065 q 804 1107 801 1100 q 838 1155 813 1136 q 900 1174 864 1174 q 944 1161 928 1174 q 960 1126 960 1149 q 957 1107 960 1121 q 922 1060 947 1078 q 861 1043 896 1043 m 993 1382 l 817 1228 l 711 1228 l 858 1382 l 993 1382 z "},"":{"ha":1075,"x_min":133,"x_max":1235,"o":"m 461 -14 q 222 62 310 -14 q 133 275 133 138 q 157 428 133 349 l 279 854 l 165 854 l 199 974 l 567 974 l 533 856 l 421 856 l 290 403 q 272 289 272 340 q 324 160 272 203 q 474 118 376 118 q 824 428 732 118 l 946 854 l 832 854 l 865 974 l 1235 974 l 1200 856 l 1088 856 l 957 403 q 773 96 901 206 q 461 -14 644 -14 m 647 1043 q 603 1054 619 1043 q 588 1086 588 1065 q 616 1148 588 1122 q 688 1174 644 1174 q 731 1162 715 1174 q 746 1128 746 1150 q 717 1067 746 1092 q 647 1043 689 1043 m 861 1043 q 817 1054 833 1043 q 801 1088 801 1065 q 804 1107 801 1100 q 838 1155 813 1136 q 900 1174 864 1174 q 944 1161 928 1174 q 960 1126 960 1149 q 957 1107 960 1121 q 922 1060 947 1078 q 861 1043 896 1043 m 800 1292 l 896 1383 l 1033 1383 l 863 1231 l 718 1231 l 633 1383 l 757 1383 l 800 1292 z "},"":{"ha":1075,"x_min":133,"x_max":1235,"o":"m 461 -14 q 222 62 310 -14 q 133 275 133 138 q 157 428 133 349 l 279 854 l 165 854 l 199 974 l 567 974 l 533 856 l 421 856 l 290 403 q 272 289 272 340 q 324 160 272 203 q 474 118 376 118 q 824 428 732 118 l 946 854 l 832 854 l 865 974 l 1235 974 l 1200 856 l 1088 856 l 957 403 q 773 96 901 206 q 461 -14 644 -14 m 647 1043 q 603 1054 619 1043 q 588 1086 588 1065 q 616 1148 588 1122 q 688 1174 644 1174 q 731 1162 715 1174 q 746 1128 746 1150 q 717 1067 746 1092 q 647 1043 689 1043 m 861 1043 q 817 1054 833 1043 q 801 1088 801 1065 q 804 1107 801 1100 q 838 1155 813 1136 q 900 1174 864 1174 q 944 1161 928 1174 q 960 1126 960 1149 q 957 1107 960 1121 q 922 1060 947 1078 q 861 1043 896 1043 m 864 1228 l 758 1228 l 671 1382 l 806 1382 l 864 1228 z "},"":{"ha":1075,"x_min":133,"x_max":1235,"o":"m 461 -14 q 222 62 310 -14 q 133 275 133 138 q 157 428 133 349 l 279 854 l 165 854 l 199 974 l 567 974 l 533 856 l 421 856 l 290 403 q 272 289 272 340 q 324 160 272 203 q 474 118 376 118 q 824 428 732 118 l 946 854 l 832 854 l 865 974 l 1235 974 l 1200 856 l 1088 856 l 957 403 q 773 96 901 206 q 461 -14 644 -14 m 647 1043 q 603 1054 619 1043 q 588 1086 588 1065 q 616 1148 588 1122 q 688 1174 644 1174 q 731 1162 715 1174 q 746 1128 746 1150 q 717 1067 746 1092 q 647 1043 689 1043 m 861 1043 q 817 1054 833 1043 q 801 1088 801 1065 q 804 1107 801 1100 q 838 1155 813 1136 q 900 1174 864 1174 q 944 1161 928 1174 q 960 1126 960 1149 q 957 1107 960 1121 q 922 1060 947 1078 q 861 1043 896 1043 z "},"":{"ha":1075,"x_min":133,"x_max":1235,"o":"m 461 -14 q 222 62 310 -14 q 133 275 133 138 q 157 428 133 349 l 279 854 l 165 854 l 199 974 l 567 974 l 533 856 l 421 856 l 290 403 q 272 289 272 340 q 324 160 272 203 q 474 118 376 118 q 824 428 732 118 l 946 854 l 832 854 l 865 974 l 1235 974 l 1200 856 l 1088 856 l 957 403 q 773 96 901 206 q 461 -14 644 -14 m 815 1053 l 710 1053 l 622 1207 l 757 1207 l 815 1053 z "},"":{"ha":1075,"x_min":133,"x_max":1235,"o":"m 461 -14 q 222 62 310 -14 q 133 275 133 138 q 157 428 133 349 l 279 854 l 165 854 l 199 974 l 567 974 l 533 856 l 421 856 l 290 403 q 272 289 272 340 q 324 160 272 203 q 474 118 376 118 q 824 428 732 118 l 946 854 l 832 854 l 865 974 l 1235 974 l 1200 856 l 1088 856 l 957 403 q 773 96 901 206 q 461 -14 644 -14 m 842 1207 l 679 1053 l 576 1053 l 710 1207 l 842 1207 m 1050 1207 l 888 1053 l 785 1053 l 918 1207 l 1050 1207 z "},"":{"ha":1075,"x_min":133,"x_max":1235,"o":"m 461 -14 q 222 62 310 -14 q 133 275 133 138 q 157 428 133 349 l 279 854 l 165 854 l 199 974 l 567 974 l 533 856 l 421 856 l 290 403 q 272 289 272 340 q 324 160 272 203 q 474 118 376 118 q 824 428 732 118 l 946 854 l 832 854 l 865 974 l 1235 974 l 1200 856 l 1088 856 l 957 403 q 773 96 901 206 q 461 -14 644 -14 z "},"":{"ha":1075,"x_min":133,"x_max":1235,"o":"m 1200 856 l 1088 856 l 957 403 q 831 154 915 254 q 626 13 746 54 q 581 -32 597 -8 q 564 -75 564 -56 q 626 -115 564 -115 q 676 -110 653 -115 l 661 -189 q 563 -200 601 -200 q 467 -178 499 -200 q 435 -119 435 -157 q 439 -90 435 -106 q 489 -14 451 -50 l 461 -14 q 222 62 310 -14 q 133 275 133 138 q 157 428 133 349 l 279 854 l 165 854 l 199 974 l 567 974 l 533 856 l 421 856 l 290 403 q 272 289 272 340 q 324 160 272 203 q 474 118 376 118 q 824 428 732 118 l 946 854 l 832 854 l 865 974 l 1235 974 l 1200 856 z "},"":{"ha":1075,"x_min":133,"x_max":1235,"o":"m 461 -14 q 222 62 310 -14 q 133 275 133 138 q 157 428 133 349 l 279 854 l 165 854 l 199 974 l 567 974 l 533 856 l 421 856 l 290 403 q 272 289 272 340 q 324 160 272 203 q 474 118 376 118 q 824 428 732 118 l 946 854 l 832 854 l 865 974 l 1235 974 l 1200 856 l 1088 856 l 957 403 q 773 96 901 206 q 461 -14 644 -14 z "},"":{"ha":1475,"x_min":161,"x_max":1638,"o":"m 1638 974 l 1603 856 l 1471 856 l 993 0 l 828 0 l 850 738 l 450 0 l 283 0 l 294 856 l 161 856 l 196 974 l 432 974 l 414 165 l 854 974 l 979 974 l 954 165 l 1401 974 l 1638 974 m 1143 1207 l 967 1053 l 861 1053 l 1008 1207 l 1143 1207 z "},"":{"ha":1475,"x_min":161,"x_max":1638,"o":"m 1638 974 l 1603 856 l 1471 856 l 993 0 l 828 0 l 850 738 l 450 0 l 283 0 l 294 856 l 161 856 l 196 974 l 432 974 l 414 165 l 854 974 l 979 974 l 954 165 l 1401 974 l 1638 974 m 1076 1210 l 1147 1051 l 1024 1051 l 986 1146 l 886 1051 l 747 1051 l 928 1210 l 1076 1210 z "},"":{"ha":1475,"x_min":161,"x_max":1638,"o":"m 1638 974 l 1603 856 l 1471 856 l 993 0 l 828 0 l 850 738 l 450 0 l 283 0 l 294 856 l 161 856 l 196 974 l 432 974 l 414 165 l 854 974 l 979 974 l 954 165 l 1401 974 l 1638 974 m 847 1043 q 803 1054 819 1043 q 788 1086 788 1065 q 816 1148 788 1122 q 888 1174 844 1174 q 931 1162 915 1174 q 946 1128 946 1150 q 917 1067 946 1092 q 847 1043 889 1043 m 1061 1043 q 1017 1054 1033 1043 q 1001 1088 1001 1065 q 1004 1107 1001 1100 q 1038 1155 1013 1136 q 1100 1174 1064 1174 q 1144 1161 1128 1174 q 1160 1126 1160 1149 q 1157 1107 1160 1121 q 1122 1060 1147 1078 q 1061 1043 1096 1043 z "},"":{"ha":1475,"x_min":161,"x_max":1638,"o":"m 1638 974 l 1603 856 l 1471 856 l 993 0 l 828 0 l 850 738 l 450 0 l 283 0 l 294 856 l 161 856 l 196 974 l 432 974 l 414 165 l 854 974 l 979 974 l 954 165 l 1401 974 l 1638 974 m 1015 1053 l 910 1053 l 822 1207 l 957 1207 l 1015 1053 z "},"":{"ha":999,"x_min":161,"x_max":1161,"o":"m 1128 856 l 992 856 l 560 313 l 506 119 l 618 119 l 585 0 l 217 0 l 251 118 l 363 118 l 419 315 l 301 856 l 161 856 l 196 974 l 415 974 l 514 454 l 519 454 l 917 974 l 1161 974 l 1128 856 m 906 1207 l 729 1053 l 624 1053 l 771 1207 l 906 1207 z "},"":{"ha":999,"x_min":161,"x_max":1161,"o":"m 1128 856 l 992 856 l 560 313 l 506 119 l 618 119 l 585 0 l 217 0 l 251 118 l 363 118 l 419 315 l 301 856 l 161 856 l 196 974 l 415 974 l 514 454 l 519 454 l 917 974 l 1161 974 l 1128 856 m 839 1210 l 910 1051 l 786 1051 l 749 1146 l 649 1051 l 510 1051 l 690 1210 l 839 1210 z "},"":{"ha":999,"x_min":161,"x_max":1161,"o":"m 1128 856 l 992 856 l 560 313 l 506 119 l 618 119 l 585 0 l 217 0 l 251 118 l 363 118 l 419 315 l 301 856 l 161 856 l 196 974 l 415 974 l 514 454 l 519 454 l 917 974 l 1161 974 l 1128 856 m 608 1043 q 565 1054 581 1043 q 549 1086 549 1065 q 577 1148 549 1122 q 649 1174 606 1174 q 692 1162 676 1174 q 707 1128 707 1150 q 678 1067 707 1092 q 608 1043 650 1043 m 822 1043 q 778 1054 794 1043 q 763 1088 763 1065 q 765 1107 763 1100 q 799 1155 774 1136 q 861 1174 825 1174 q 905 1161 889 1174 q 921 1126 921 1149 q 918 1107 921 1121 q 883 1060 908 1078 q 822 1043 857 1043 z "},"":{"ha":999,"x_min":161,"x_max":1161,"o":"m 1128 856 l 992 856 l 560 313 l 506 119 l 618 119 l 585 0 l 217 0 l 251 118 l 363 118 l 419 315 l 301 856 l 161 856 l 196 974 l 415 974 l 514 454 l 519 454 l 917 974 l 1161 974 l 1128 856 m 717 1044 q 672 1056 688 1044 q 656 1089 656 1067 q 685 1151 656 1125 q 757 1176 714 1176 q 802 1164 786 1176 q 818 1129 818 1151 q 815 1110 818 1117 q 779 1063 806 1081 q 717 1044 753 1044 z "},"":{"ha":999,"x_min":161,"x_max":1161,"o":"m 1128 856 l 992 856 l 560 313 l 506 119 l 618 119 l 585 0 l 217 0 l 251 118 l 363 118 l 419 315 l 301 856 l 161 856 l 196 974 l 415 974 l 514 454 l 519 454 l 917 974 l 1161 974 l 1128 856 m 776 1053 l 671 1053 l 583 1207 l 718 1207 l 776 1053 z "},"":{"ha":999,"x_min":161,"x_max":1161,"o":"m 1128 856 l 992 856 l 560 313 l 506 119 l 618 119 l 585 0 l 217 0 l 251 118 l 363 118 l 419 315 l 301 856 l 161 856 l 196 974 l 415 974 l 514 454 l 519 454 l 917 974 l 1161 974 l 1128 856 z "},"":{"ha":885,"x_min":-51,"x_max":1007,"o":"m 1007 974 l 971 851 l 157 118 l 646 118 l 696 293 l 821 293 l 771 118 l 738 0 l -51 0 l -18 121 l 797 856 l 335 856 l 289 689 l 164 689 l 226 903 l 246 974 l 1007 974 m 860 1207 l 683 1053 l 578 1053 l 725 1207 l 860 1207 z "},"":{"ha":885,"x_min":-51,"x_max":1007,"o":"m 1007 974 l 971 851 l 157 118 l 646 118 l 696 293 l 821 293 l 771 118 l 738 0 l -51 0 l -18 121 l 797 856 l 335 856 l 289 689 l 164 689 l 226 903 l 246 974 l 1007 974 m 668 1117 l 764 1208 l 901 1208 l 731 1056 l 586 1056 l 501 1208 l 625 1208 l 668 1117 z "},"":{"ha":885,"x_min":-51,"x_max":1007,"o":"m 1007 974 l 971 851 l 157 118 l 646 118 l 696 293 l 821 293 l 771 118 l 738 0 l -51 0 l -18 121 l 797 856 l 335 856 l 289 689 l 164 689 l 226 903 l 246 974 l 1007 974 m 671 1044 q 626 1056 642 1044 q 610 1089 610 1067 q 639 1151 610 1125 q 711 1176 668 1176 q 756 1164 740 1176 q 772 1129 772 1151 q 769 1110 772 1117 q 733 1063 760 1081 q 671 1044 707 1044 z "},"":{"ha":885,"x_min":-51,"x_max":1007,"o":"m 1007 974 l 971 851 l 157 118 l 646 118 l 696 293 l 821 293 l 771 118 l 738 0 l -51 0 l -18 121 l 797 856 l 335 856 l 289 689 l 164 689 l 226 903 l 246 974 l 1007 974 m 338 -76 q 383 -90 367 -76 q 399 -125 399 -103 q 396 -143 399 -129 q 360 -194 386 -175 q 299 -212 333 -212 q 253 -199 269 -212 q 238 -164 238 -186 q 240 -143 238 -150 q 276 -94 250 -111 q 338 -76 303 -76 z "},"":{"ha":872,"x_min":50,"x_max":860,"o":"m 682 171 q 676 143 676 156 q 718 113 676 113 q 757 117 740 113 l 756 -6 q 663 -17 718 -17 q 581 2 614 -17 q 538 60 549 21 q 303 -17 424 -17 q 119 51 188 -17 q 50 236 50 118 q 99 457 50 347 q 240 638 147 567 q 458 710 333 710 q 590 685 532 710 q 682 622 647 660 q 786 711 719 683 l 860 674 q 819 620 835 647 q 790 550 803 593 l 682 171 m 186 244 q 223 142 186 176 q 326 108 260 108 q 447 135 392 108 q 554 206 501 161 l 633 485 q 567 558 607 531 q 461 585 528 585 q 314 532 376 585 q 219 400 251 479 q 186 244 186 321 m 788 957 l 619 801 l 489 801 l 619 957 l 788 957 z "},"":{"ha":872,"x_min":50,"x_max":860,"o":"m 682 171 q 676 143 676 156 q 718 113 676 113 q 757 117 740 113 l 756 -6 q 663 -17 718 -17 q 581 2 614 -17 q 538 60 549 21 q 303 -17 424 -17 q 119 51 188 -17 q 50 236 50 118 q 99 457 50 347 q 240 638 147 567 q 458 710 333 710 q 590 685 532 710 q 682 622 647 660 q 786 711 719 683 l 860 674 q 819 620 835 647 q 790 550 803 593 l 682 171 m 186 244 q 223 142 186 176 q 326 108 260 108 q 447 135 392 108 q 554 206 501 161 l 633 485 q 567 558 607 531 q 461 585 528 585 q 314 532 376 585 q 219 400 251 479 q 186 244 186 321 m 531 979 q 525 943 525 961 q 540 903 525 917 q 581 889 554 889 q 644 913 617 889 q 685 979 672 936 l 792 976 q 703 841 768 892 q 553 790 638 790 q 449 822 486 790 q 413 913 413 854 q 422 976 413 943 l 531 979 z "},"":{"ha":872,"x_min":50,"x_max":860,"o":"m 682 171 q 676 143 676 156 q 718 113 676 113 q 757 117 740 113 l 756 -6 q 663 -17 718 -17 q 581 2 614 -17 q 538 60 549 21 q 303 -17 424 -17 q 119 51 188 -17 q 50 236 50 118 q 99 457 50 347 q 240 638 147 567 q 458 710 333 710 q 590 685 532 710 q 682 622 647 660 q 786 711 719 683 l 860 674 q 819 620 835 647 q 790 550 803 593 l 682 171 m 186 244 q 223 142 186 176 q 326 108 260 108 q 447 135 392 108 q 554 206 501 161 l 633 485 q 567 558 607 531 q 461 585 528 585 q 314 532 376 585 q 219 400 251 479 q 186 244 186 321 m 579 876 l 672 981 l 796 981 l 628 807 l 490 807 l 421 981 l 543 981 l 579 876 z "},"":{"ha":872,"x_min":50,"x_max":860,"o":"m 682 171 q 676 143 676 156 q 718 113 676 113 q 757 117 740 113 l 756 -6 q 663 -17 718 -17 q 581 2 614 -17 q 538 60 549 21 q 303 -17 424 -17 q 119 51 188 -17 q 50 236 50 118 q 99 457 50 347 q 240 638 147 567 q 458 710 333 710 q 590 685 532 710 q 682 622 647 660 q 786 711 719 683 l 860 674 q 819 620 835 647 q 790 550 803 593 l 682 171 m 186 244 q 223 142 186 176 q 326 108 260 108 q 447 135 392 108 q 554 206 501 161 l 633 485 q 567 558 607 531 q 461 585 528 585 q 314 532 376 585 q 219 400 251 479 q 186 244 186 321 z "},"":{"ha":872,"x_min":50,"x_max":860,"o":"m 682 171 q 676 143 676 156 q 718 113 676 113 q 757 117 740 113 l 756 -6 q 663 -17 718 -17 q 581 2 614 -17 q 538 60 549 21 q 303 -17 424 -17 q 119 51 188 -17 q 50 236 50 118 q 99 457 50 347 q 240 638 147 567 q 458 710 333 710 q 590 685 532 710 q 682 622 647 660 q 786 711 719 683 l 860 674 q 819 620 835 647 q 790 550 803 593 l 682 171 m 186 244 q 223 142 186 176 q 326 108 260 108 q 447 135 392 108 q 554 206 501 161 l 633 485 q 567 558 607 531 q 461 585 528 585 q 314 532 376 585 q 219 400 251 479 q 186 244 186 321 z "},"":{"ha":872,"x_min":50,"x_max":860,"o":"m 682 171 q 676 143 676 156 q 718 113 676 113 q 757 117 740 113 l 756 -6 q 663 -17 718 -17 q 581 2 614 -17 q 538 60 549 21 q 303 -17 424 -17 q 119 51 188 -17 q 50 236 50 118 q 99 457 50 347 q 240 638 147 567 q 458 710 333 710 q 590 685 532 710 q 682 622 647 660 q 786 711 719 683 l 860 674 q 819 620 835 647 q 790 550 803 593 l 682 171 m 186 244 q 223 142 186 176 q 326 108 260 108 q 447 135 392 108 q 554 206 501 161 l 633 485 q 567 558 607 531 q 461 585 528 585 q 314 532 376 585 q 219 400 251 479 q 186 244 186 321 m 610 801 l 479 801 l 403 957 l 569 957 l 610 801 z "},"":{"ha":872,"x_min":50,"x_max":860,"o":"m 682 171 q 676 143 676 156 q 718 113 676 113 q 757 117 740 113 l 756 -6 q 663 -17 718 -17 q 581 2 614 -17 q 538 60 549 21 q 303 -17 424 -17 q 119 51 188 -17 q 50 236 50 118 q 99 457 50 347 q 240 638 147 567 q 458 710 333 710 q 590 685 532 710 q 682 622 647 660 q 786 711 719 683 l 860 674 q 819 620 835 647 q 790 550 803 593 l 682 171 m 186 244 q 223 142 186 176 q 326 108 260 108 q 447 135 392 108 q 554 206 501 161 l 633 485 q 567 558 607 531 q 461 585 528 585 q 314 532 376 585 q 219 400 251 479 q 186 244 186 321 z "},"":{"ha":872,"x_min":50,"x_max":860,"o":"m 682 171 q 676 143 676 156 q 718 113 676 113 q 757 117 740 113 l 756 -6 q 703 -15 726 -14 q 640 -67 663 -40 q 617 -118 617 -94 q 679 -158 617 -158 q 729 -153 706 -158 l 714 -232 q 615 -243 654 -243 q 519 -222 551 -243 q 488 -162 488 -200 q 519 -81 488 -121 q 604 -8 551 -40 q 538 60 551 10 q 303 -17 424 -17 q 119 51 188 -17 q 50 236 50 118 q 99 457 50 347 q 240 638 147 567 q 458 710 333 710 q 590 685 532 710 q 682 622 647 660 q 786 711 719 683 l 860 674 q 819 620 835 647 q 790 550 803 593 l 682 171 m 186 244 q 223 142 186 176 q 326 108 260 108 q 447 135 392 108 q 554 206 501 161 l 633 485 q 567 558 607 531 q 461 585 528 585 q 314 532 376 585 q 219 400 251 479 q 186 244 186 321 z "},"":{"ha":872,"x_min":50,"x_max":860,"o":"m 682 171 q 676 143 676 156 q 718 113 676 113 q 757 117 740 113 l 756 -6 q 663 -17 718 -17 q 581 2 614 -17 q 538 60 549 21 q 303 -17 424 -17 q 119 51 188 -17 q 50 236 50 118 q 99 457 50 347 q 240 638 147 567 q 458 710 333 710 q 590 685 532 710 q 682 622 647 660 q 786 711 719 683 l 860 674 q 819 620 835 647 q 790 550 803 593 l 682 171 m 186 244 q 223 142 186 176 q 326 108 260 108 q 447 135 392 108 q 554 206 501 161 l 633 485 q 567 558 607 531 q 461 585 528 585 q 314 532 376 585 q 219 400 251 479 q 186 244 186 321 m 551 782 q 463 812 496 782 q 429 890 429 842 q 436 933 429 908 q 512 1039 454 996 q 638 1082 569 1082 q 728 1051 694 1082 q 761 974 761 1021 q 756 933 761 951 q 679 826 738 869 q 551 782 621 782 m 578 875 q 625 892 603 875 q 654 933 647 908 q 656 949 656 939 q 644 978 656 967 q 611 990 632 990 q 558 967 582 990 q 533 915 533 944 q 545 885 533 896 q 578 875 557 875 z "},"":{"ha":872,"x_min":50,"x_max":883,"o":"m 682 171 q 676 143 676 156 q 718 113 676 113 q 757 117 740 113 l 756 -6 q 663 -17 718 -17 q 581 2 614 -17 q 538 60 549 21 q 303 -17 424 -17 q 119 51 188 -17 q 50 236 50 118 q 99 457 50 347 q 240 638 147 567 q 458 710 333 710 q 590 685 532 710 q 682 622 647 660 q 786 711 719 683 l 860 674 q 819 620 835 647 q 790 550 803 593 l 682 171 m 186 244 q 223 142 186 176 q 326 108 260 108 q 447 135 392 108 q 554 206 501 161 l 633 485 q 567 558 607 531 q 461 585 528 585 q 314 532 376 585 q 219 400 251 479 q 186 244 186 321 m 551 782 q 463 812 496 782 q 429 890 429 842 q 436 933 429 908 q 512 1039 454 996 q 638 1082 569 1082 q 728 1051 694 1082 q 761 974 761 1021 q 756 933 761 951 q 679 826 738 869 q 551 782 621 782 m 578 875 q 625 892 603 875 q 654 933 647 908 q 656 949 656 939 q 644 978 656 967 q 611 990 632 990 q 558 967 582 990 q 533 915 533 944 q 545 885 533 896 q 578 875 557 875 m 883 1293 l 715 1138 l 585 1138 l 715 1293 l 883 1293 z "},"":{"ha":872,"x_min":50,"x_max":860,"o":"m 682 171 q 676 143 676 156 q 718 113 676 113 q 757 117 740 113 l 756 -6 q 663 -17 718 -17 q 581 2 614 -17 q 538 60 549 21 q 303 -17 424 -17 q 119 51 188 -17 q 50 236 50 118 q 99 457 50 347 q 240 638 147 567 q 458 710 333 710 q 590 685 532 710 q 682 622 647 660 q 786 711 719 683 l 860 674 q 819 620 835 647 q 790 550 803 593 l 682 171 m 186 244 q 223 142 186 176 q 326 108 260 108 q 447 135 392 108 q 554 206 501 161 l 633 485 q 567 558 607 531 q 461 585 528 585 q 314 532 376 585 q 219 400 251 479 q 186 244 186 321 m 333 833 q 408 916 363 888 q 504 944 454 944 q 549 937 529 944 q 599 913 569 929 q 638 893 621 900 q 674 886 654 886 q 713 899 696 886 q 749 939 731 911 l 818 894 q 743 812 790 840 q 646 783 696 783 q 601 791 621 783 q 554 814 581 799 q 515 833 532 826 q 479 840 499 840 q 438 828 456 840 q 401 788 419 815 l 333 833 z "},"":{"ha":1271,"x_min":31,"x_max":1225,"o":"m 1225 535 q 1097 321 1225 388 q 763 254 968 254 q 678 257 736 254 q 735 147 683 183 q 867 111 786 111 q 1114 189 985 111 l 1139 72 q 995 9 1071 32 q 842 -14 919 -14 q 690 19 754 -14 q 589 114 625 53 q 406 15 486 43 q 238 -14 326 -14 q 88 35 144 -14 q 31 163 31 85 q 39 222 31 192 q 372 421 97 421 q 569 410 463 421 l 579 440 q 589 503 589 474 q 476 594 589 594 q 331 572 401 594 l 299 463 l 175 463 l 231 653 q 360 698 297 683 q 497 713 422 713 q 628 684 578 713 q 697 604 679 656 q 997 713 817 713 q 1169 662 1114 713 q 1225 535 1225 611 m 693 368 q 992 397 888 365 q 1096 519 1096 429 q 986 588 1096 588 q 797 524 874 588 q 693 368 721 461 m 272 100 q 553 213 388 100 q 549 268 549 240 q 550 307 549 294 q 466 318 500 315 q 382 321 432 321 q 242 292 294 321 q 172 203 189 264 q 168 172 168 186 q 196 119 168 138 q 272 100 224 100 m 958 957 l 790 801 l 660 801 l 790 957 l 958 957 z "},"":{"ha":739,"x_min":53,"x_max":776,"o":"m 704 407 l 579 407 l 625 563 q 489 588 563 588 q 328 538 396 588 q 224 410 260 488 q 189 251 189 332 q 358 111 189 111 q 610 172 483 111 l 640 63 q 340 -14 496 -14 q 131 56 208 -14 q 53 247 53 125 q 101 465 53 358 q 249 642 149 572 q 496 713 350 713 q 656 690 582 713 q 767 621 729 668 l 704 407 m 776 957 l 608 801 l 478 801 l 608 957 l 776 957 z "},"":{"ha":739,"x_min":53,"x_max":786,"o":"m 704 407 l 579 407 l 625 563 q 489 588 563 588 q 328 538 396 588 q 224 410 260 488 q 189 251 189 332 q 358 111 189 111 q 610 172 483 111 l 640 63 q 340 -14 496 -14 q 131 56 208 -14 q 53 247 53 125 q 101 465 53 358 q 249 642 149 572 q 496 713 350 713 q 656 690 582 713 q 767 621 729 668 l 704 407 m 569 876 l 663 981 l 786 981 l 618 807 l 481 807 l 411 981 l 533 981 l 569 876 z "},"":{"ha":739,"x_min":53,"x_max":767,"o":"m 704 407 l 579 407 l 625 563 q 489 588 563 588 q 328 538 396 588 q 224 410 260 488 q 189 251 189 332 q 358 111 189 111 q 610 172 483 111 l 640 63 q 347 -14 500 -11 l 332 -44 q 388 -70 368 -51 q 407 -115 407 -89 q 353 -203 407 -168 q 221 -237 300 -237 q 138 -226 171 -237 l 171 -147 q 228 -154 192 -154 q 285 -124 275 -154 q 268 -97 290 -103 q 197 -93 246 -90 l 244 -3 q 103 85 154 21 q 53 247 53 150 q 101 465 53 358 q 249 642 149 572 q 496 713 350 713 q 656 690 582 713 q 767 621 729 668 l 704 407 z "},"":{"ha":739,"x_min":53,"x_max":767,"o":"m 704 407 l 579 407 l 625 563 q 489 588 563 588 q 328 538 396 588 q 224 410 260 488 q 189 251 189 332 q 358 111 189 111 q 610 172 483 111 l 640 63 q 340 -14 496 -14 q 131 56 208 -14 q 53 247 53 125 q 101 465 53 358 q 249 642 149 572 q 496 713 350 713 q 656 690 582 713 q 767 621 729 668 l 704 407 z "},"":{"ha":739,"x_min":53,"x_max":767,"o":"m 704 407 l 579 407 l 625 563 q 489 588 563 588 q 328 538 396 588 q 224 410 260 488 q 189 251 189 332 q 358 111 189 111 q 610 172 483 111 l 640 63 q 340 -14 496 -14 q 131 56 208 -14 q 53 247 53 125 q 101 465 53 358 q 249 642 149 572 q 496 713 350 713 q 656 690 582 713 q 767 621 729 668 l 704 407 m 569 821 q 524 832 540 821 q 508 865 508 843 q 537 931 508 904 q 610 957 565 957 q 653 944 638 957 q 669 908 669 931 q 641 846 669 871 q 569 821 613 821 z "},"":{"ha":951,"x_min":50,"x_max":1114,"o":"m 649 868 l 681 974 q 911 979 771 979 l 888 897 l 681 174 q 676 147 676 160 q 687 123 676 131 q 718 115 697 115 q 757 118 735 115 l 756 -3 q 663 -14 718 -14 q 538 63 558 -14 q 428 7 485 28 q 303 -14 371 -14 q 119 53 188 -14 q 50 239 50 119 q 98 459 50 349 q 238 641 146 569 q 457 713 331 713 q 582 690 526 713 q 675 632 638 667 l 742 868 l 649 868 m 936 729 l 992 972 l 1114 972 l 1024 729 l 936 729 m 185 246 q 222 144 185 178 q 325 111 258 111 q 446 138 392 111 q 554 210 500 165 l 633 488 q 567 560 607 533 q 461 588 528 588 q 313 535 376 588 q 217 403 250 482 q 185 246 185 324 z "},"":{"ha":882,"x_min":42,"x_max":969,"o":"m 856 786 l 681 174 q 676 147 676 160 q 687 123 676 131 q 718 115 697 115 q 757 118 735 115 l 756 -3 q 663 -14 718 -14 q 574 8 608 -14 q 535 79 540 31 q 415 12 478 38 q 276 -14 353 -14 q 103 45 165 -14 q 42 214 42 104 q 63 351 42 275 q 160 547 96 465 q 308 671 225 629 q 483 713 392 713 q 676 633 606 713 l 719 786 l 532 786 l 557 869 l 743 869 l 774 974 l 910 974 l 881 869 l 969 869 l 944 786 l 856 786 m 635 488 q 567 560 606 533 q 461 588 529 588 q 304 529 372 588 q 201 351 236 471 q 183 246 183 293 q 220 144 183 178 q 325 111 257 111 q 447 139 392 111 q 554 211 503 167 l 635 488 z "},"":{"ha":872,"x_min":50,"x_max":911,"o":"m 888 897 l 681 174 q 676 147 676 160 q 687 123 676 131 q 718 115 697 115 q 757 118 735 115 l 756 -3 q 663 -14 718 -14 q 538 63 558 -14 q 428 7 485 28 q 303 -14 371 -14 q 119 53 188 -14 q 50 239 50 119 q 98 459 50 349 q 238 641 146 569 q 457 713 331 713 q 582 690 526 713 q 675 632 638 667 l 742 868 l 649 868 l 681 974 q 911 979 771 979 l 888 897 m 185 246 q 222 144 185 178 q 325 111 258 111 q 446 138 392 111 q 554 210 500 165 l 633 488 q 567 560 607 533 q 461 588 528 588 q 313 535 376 588 q 217 403 250 482 q 185 246 185 324 m 307 -76 q 352 -90 336 -76 q 368 -125 368 -103 q 365 -143 368 -129 q 329 -194 356 -175 q 268 -212 303 -212 q 223 -199 239 -212 q 207 -164 207 -186 q 210 -143 207 -150 q 246 -94 219 -111 q 307 -76 272 -76 z "},"":{"ha":872,"x_min":50,"x_max":911,"o":"m 888 897 l 681 174 q 676 147 676 160 q 687 123 676 131 q 718 115 697 115 q 757 118 735 115 l 756 -3 q 663 -14 718 -14 q 538 63 558 -14 q 428 7 485 28 q 303 -14 371 -14 q 119 53 188 -14 q 50 239 50 119 q 98 459 50 349 q 238 641 146 569 q 457 713 331 713 q 582 690 526 713 q 675 632 638 667 l 742 868 l 649 868 l 681 974 q 911 979 771 979 l 888 897 m 185 246 q 222 144 185 178 q 325 111 258 111 q 446 138 392 111 q 554 210 500 165 l 633 488 q 567 560 607 533 q 461 588 528 588 q 313 535 376 588 q 217 403 250 482 q 185 246 185 324 z "},"":{"ha":767,"x_min":56,"x_max":769,"o":"m 732 535 q 603 321 732 388 q 268 254 475 254 q 183 257 242 254 q 240 147 189 183 q 372 111 292 111 q 621 189 490 111 l 644 72 q 501 9 576 32 q 349 -14 425 -14 q 192 22 258 -14 q 90 122 125 58 q 56 268 56 186 q 107 478 56 375 q 260 647 158 581 q 504 713 361 713 q 676 662 621 713 q 732 535 732 611 m 199 368 q 498 398 393 365 q 603 519 603 431 q 492 588 603 588 q 304 525 381 588 q 199 368 228 463 m 769 957 l 601 801 l 471 801 l 601 957 l 769 957 z "},"":{"ha":767,"x_min":56,"x_max":775,"o":"m 732 535 q 603 321 732 388 q 268 254 475 254 q 183 257 242 254 q 240 147 189 183 q 372 111 292 111 q 621 189 490 111 l 644 72 q 501 9 576 32 q 349 -14 425 -14 q 192 22 258 -14 q 90 122 125 58 q 56 268 56 186 q 107 478 56 375 q 260 647 158 581 q 504 713 361 713 q 676 662 621 713 q 732 535 732 611 m 199 368 q 498 398 393 365 q 603 519 603 431 q 492 588 603 588 q 304 525 381 588 q 199 368 228 463 m 514 979 q 508 943 508 961 q 523 903 508 917 q 564 889 538 889 q 628 913 600 889 q 668 979 656 936 l 775 976 q 686 841 751 892 q 536 790 621 790 q 433 822 469 790 q 396 913 396 854 q 406 976 396 943 l 514 979 z "},"":{"ha":767,"x_min":56,"x_max":779,"o":"m 732 535 q 603 321 732 388 q 268 254 475 254 q 183 257 242 254 q 240 147 189 183 q 372 111 292 111 q 621 189 490 111 l 644 72 q 501 9 576 32 q 349 -14 425 -14 q 192 22 258 -14 q 90 122 125 58 q 56 268 56 186 q 107 478 56 375 q 260 647 158 581 q 504 713 361 713 q 676 662 621 713 q 732 535 732 611 m 199 368 q 498 398 393 365 q 603 519 603 431 q 492 588 603 588 q 304 525 381 588 q 199 368 228 463 m 563 876 l 656 981 l 779 981 l 611 807 l 474 807 l 404 981 l 526 981 l 563 876 z "},"":{"ha":767,"x_min":56,"x_max":732,"o":"m 732 535 q 603 321 732 388 q 268 254 475 254 q 183 257 242 254 q 240 147 189 183 q 372 111 292 111 q 621 189 490 111 l 644 72 q 501 9 576 32 q 349 -14 425 -14 q 192 22 258 -14 q 90 122 125 58 q 56 268 56 186 q 107 478 56 375 q 260 647 158 581 q 504 713 361 713 q 676 662 621 713 q 732 535 732 611 m 199 368 q 498 398 393 365 q 603 519 603 431 q 492 588 603 588 q 304 525 381 588 q 199 368 228 463 z "},"":{"ha":767,"x_min":56,"x_max":771,"o":"m 732 535 q 603 321 732 388 q 268 254 475 254 q 183 257 242 254 q 240 147 189 183 q 372 111 292 111 q 621 189 490 111 l 644 72 q 501 9 576 32 q 349 -14 425 -14 q 192 22 258 -14 q 90 122 125 58 q 56 268 56 186 q 107 478 56 375 q 260 647 158 581 q 504 713 361 713 q 676 662 621 713 q 732 535 732 611 m 199 368 q 498 398 393 365 q 603 519 603 431 q 492 588 603 588 q 304 525 381 588 q 199 368 228 463 z "},"":{"ha":767,"x_min":56,"x_max":732,"o":"m 732 535 q 603 321 732 388 q 268 254 475 254 q 183 257 242 254 q 240 147 189 183 q 372 111 292 111 q 621 189 490 111 l 644 72 q 501 9 576 32 q 349 -14 425 -14 q 192 22 258 -14 q 90 122 125 58 q 56 268 56 186 q 107 478 56 375 q 260 647 158 581 q 504 713 361 713 q 676 662 621 713 q 732 535 732 611 m 199 368 q 498 398 393 365 q 603 519 603 431 q 492 588 603 588 q 304 525 381 588 q 199 368 228 463 m 564 821 q 519 832 535 821 q 503 865 503 843 q 531 931 503 904 q 604 957 560 957 q 648 944 632 957 q 664 908 664 931 q 635 846 664 871 q 564 821 607 821 z "},"":{"ha":767,"x_min":56,"x_max":732,"o":"m 732 535 q 603 321 732 388 q 268 254 475 254 q 183 257 242 254 q 240 147 189 183 q 372 111 292 111 q 621 189 490 111 l 644 72 q 501 9 576 32 q 349 -14 425 -14 q 192 22 258 -14 q 90 122 125 58 q 56 268 56 186 q 107 478 56 375 q 260 647 158 581 q 504 713 361 713 q 676 662 621 713 q 732 535 732 611 m 199 368 q 498 398 393 365 q 603 519 603 431 q 492 588 603 588 q 304 525 381 588 q 199 368 228 463 m 593 801 l 463 801 l 386 957 l 553 957 l 593 801 z "},"":{"ha":767,"x_min":56,"x_max":769,"o":"m 732 535 q 603 321 732 388 q 268 254 475 254 q 183 257 242 254 q 240 147 189 183 q 372 111 292 111 q 621 189 490 111 l 644 72 q 501 9 576 32 q 349 -14 425 -14 q 192 22 258 -14 q 90 122 125 58 q 56 268 56 186 q 107 478 56 375 q 260 647 158 581 q 504 713 361 713 q 676 662 621 713 q 732 535 732 611 m 199 368 q 498 398 393 365 q 603 519 603 431 q 492 588 603 588 q 304 525 381 588 q 199 368 228 463 z "},"":{"ha":767,"x_min":56,"x_max":732,"o":"m 732 535 q 603 321 732 388 q 268 254 475 254 q 183 257 242 254 q 240 147 189 183 q 372 111 292 111 q 621 189 490 111 l 644 72 l 592 43 q 534 -6 554 19 q 514 -54 514 -32 q 576 -94 514 -94 q 626 -89 603 -94 l 611 -168 q 513 -179 551 -179 q 417 -158 449 -179 q 385 -99 385 -136 q 389 -69 385 -85 q 424 -8 397 -39 q 349 -14 390 -14 q 192 22 258 -14 q 90 122 125 58 q 56 268 56 186 q 107 478 56 375 q 260 647 158 581 q 504 713 361 713 q 676 662 621 713 q 732 535 732 611 m 199 368 q 498 398 393 365 q 603 519 603 431 q 492 588 603 588 q 304 525 381 588 q 199 368 228 463 z "},"":{"ha":776,"x_min":33,"x_max":735,"o":"m 465 713 q 665 653 594 713 q 735 482 735 594 q 714 350 735 424 q 548 83 665 179 q 271 -14 431 -14 q 96 42 158 -14 q 33 197 33 97 q 51 311 33 243 q 82 399 61 346 l 586 399 q 590 447 590 426 q 426 588 590 588 q 292 572 353 588 q 169 526 231 557 l 165 636 q 310 693 239 674 q 465 713 381 713 m 308 111 q 551 283 475 111 l 171 283 q 164 224 164 256 q 199 138 164 165 q 308 111 235 111 z "},"":{"ha":815,"x_min":-46,"x_max":854,"o":"m 854 676 q 814 624 829 650 q 785 551 799 597 l 640 51 q 497 -196 596 -110 q 246 -282 399 -282 q 76 -262 146 -282 q -46 -206 7 -243 l 15 -93 q 122 -142 71 -128 q 242 -157 172 -157 q 407 -103 343 -157 q 508 67 471 -50 q 300 10 413 10 q 122 76 190 10 q 54 257 54 143 q 101 467 54 361 q 239 643 149 574 q 449 713 329 713 q 582 688 522 713 q 675 621 642 663 q 781 714 711 686 l 854 676 m 190 263 q 228 166 190 196 q 338 136 267 136 q 554 226 457 136 l 631 493 q 467 586 588 586 q 319 538 382 586 q 224 414 257 489 q 190 263 190 339 m 532 979 q 526 943 526 961 q 541 903 526 917 q 582 889 556 889 q 646 913 618 889 q 686 979 674 936 l 793 976 q 704 841 769 892 q 554 790 639 790 q 451 822 488 790 q 414 913 414 854 q 424 976 414 943 l 532 979 z "},"":{"ha":815,"x_min":-46,"x_max":854,"o":"m 854 676 q 814 624 829 650 q 785 551 799 597 l 640 51 q 497 -196 596 -110 q 246 -282 399 -282 q 76 -262 146 -282 q -46 -206 7 -243 l 15 -93 q 122 -142 71 -128 q 242 -157 172 -157 q 407 -103 343 -157 q 508 67 471 -50 q 300 10 413 10 q 122 76 190 10 q 54 257 54 143 q 101 467 54 361 q 239 643 149 574 q 449 713 329 713 q 582 688 522 713 q 675 621 642 663 q 781 714 711 686 l 854 676 m 190 263 q 228 166 190 196 q 338 136 267 136 q 554 226 457 136 l 631 493 q 467 586 588 586 q 319 538 382 586 q 224 414 257 489 q 190 263 190 339 m 581 876 l 674 981 l 797 981 l 629 807 l 492 807 l 422 981 l 544 981 l 581 876 z "},"":{"ha":815,"x_min":-46,"x_max":854,"o":"m 854 676 q 814 624 829 650 q 785 551 799 597 l 640 51 q 497 -196 596 -110 q 246 -282 399 -282 q 76 -262 146 -282 q -46 -206 7 -243 l 15 -93 q 122 -142 71 -128 q 242 -157 172 -157 q 407 -103 343 -157 q 508 67 471 -50 q 300 10 413 10 q 122 76 190 10 q 54 257 54 143 q 101 467 54 361 q 239 643 149 574 q 449 713 329 713 q 582 688 522 713 q 675 621 642 663 q 781 714 711 686 l 854 676 m 190 263 q 228 166 190 196 q 338 136 267 136 q 554 226 457 136 l 631 493 q 467 586 588 586 q 319 538 382 586 q 224 414 257 489 q 190 263 190 339 z "},"":{"ha":815,"x_min":-46,"x_max":854,"o":"m 854 676 q 814 624 829 650 q 785 551 799 597 l 640 51 q 497 -196 596 -110 q 246 -282 399 -282 q 76 -262 146 -282 q -46 -206 7 -243 l 15 -93 q 122 -142 71 -128 q 242 -157 172 -157 q 407 -103 343 -157 q 508 67 471 -50 q 300 10 413 10 q 122 76 190 10 q 54 257 54 143 q 101 467 54 361 q 239 643 149 574 q 449 713 329 713 q 582 688 522 713 q 675 621 642 663 q 781 714 711 686 l 854 676 m 190 263 q 228 166 190 196 q 338 136 267 136 q 554 226 457 136 l 631 493 q 467 586 588 586 q 319 538 382 586 q 224 414 257 489 q 190 263 190 339 m 674 978 q 590 892 601 946 l 646 892 l 615 783 l 506 783 q 664 1013 525 960 l 674 978 z "},"":{"ha":815,"x_min":-46,"x_max":854,"o":"m 854 676 q 814 624 829 650 q 785 551 799 597 l 640 51 q 497 -196 596 -110 q 246 -282 399 -282 q 76 -262 146 -282 q -46 -206 7 -243 l 15 -93 q 122 -142 71 -128 q 242 -157 172 -157 q 407 -103 343 -157 q 508 67 471 -50 q 300 10 413 10 q 122 76 190 10 q 54 257 54 143 q 101 467 54 361 q 239 643 149 574 q 449 713 329 713 q 582 688 522 713 q 675 621 642 663 q 781 714 711 686 l 854 676 m 190 263 q 228 166 190 196 q 338 136 267 136 q 554 226 457 136 l 631 493 q 467 586 588 586 q 319 538 382 586 q 224 414 257 489 q 190 263 190 339 m 581 821 q 535 832 551 821 q 519 865 519 843 q 548 931 519 904 q 621 957 576 957 q 665 944 649 957 q 681 908 681 931 q 652 846 681 871 q 581 821 624 821 z "},"":{"ha":815,"x_min":-46,"x_max":854,"o":"m 854 676 q 814 624 829 650 q 785 551 799 597 l 640 51 q 497 -196 596 -110 q 246 -282 399 -282 q 76 -262 146 -282 q -46 -206 7 -243 l 15 -93 q 122 -142 71 -128 q 242 -157 172 -157 q 407 -103 343 -157 q 508 67 471 -50 q 300 10 413 10 q 122 76 190 10 q 54 257 54 143 q 101 467 54 361 q 239 643 149 574 q 449 713 329 713 q 582 688 522 713 q 675 621 642 663 q 781 714 711 686 l 854 676 m 190 263 q 228 166 190 196 q 338 136 267 136 q 554 226 457 136 l 631 493 q 467 586 588 586 q 319 538 382 586 q 224 414 257 489 q 190 263 190 339 z "},"":{"ha":901,"x_min":22,"x_max":804,"o":"m 713 174 q 708 147 708 160 q 719 123 708 131 q 750 115 729 115 q 788 118 768 115 l 786 -3 q 693 -14 751 -14 q 599 13 633 -14 q 564 100 564 40 q 576 179 564 133 l 640 403 q 654 486 654 449 q 532 589 654 589 q 408 563 468 589 q 300 490 349 536 l 160 0 l 22 0 l 251 799 l 143 799 l 172 896 l 279 896 l 301 974 l 439 974 l 417 896 l 599 896 l 569 799 l 389 799 l 339 625 q 468 690 397 667 q 606 713 539 713 q 757 672 710 713 q 804 551 804 631 q 785 429 804 500 l 713 174 z "},"":{"ha":932,"x_min":40,"x_max":807,"o":"m 729 174 q 725 147 725 160 q 735 123 725 131 q 767 115 746 115 q 804 118 785 115 l 803 -3 q 710 -14 768 -14 q 615 13 650 -14 q 581 100 581 40 q 593 179 581 133 l 658 407 q 674 492 674 460 q 644 564 674 542 q 556 586 615 586 q 433 560 497 586 q 319 493 369 535 l 178 0 l 40 0 l 288 863 l 196 863 l 226 974 q 458 979 318 979 l 433 894 l 365 656 q 583 713 476 713 q 749 654 692 713 q 807 500 807 596 q 792 394 807 446 l 729 174 m 361 -92 q 357 -121 357 -108 q 406 -164 357 -164 q 464 -145 439 -164 q 499 -92 489 -126 l 597 -94 q 515 -203 574 -162 q 381 -243 457 -243 q 288 -217 321 -243 q 254 -146 254 -190 q 264 -94 254 -126 l 361 -92 z "},"":{"ha":932,"x_min":40,"x_max":807,"o":"m 729 174 q 725 147 725 160 q 735 123 725 131 q 767 115 746 115 q 804 118 785 115 l 803 -3 q 710 -14 768 -14 q 615 13 650 -14 q 581 100 581 40 q 593 179 581 133 l 658 407 q 674 492 674 460 q 644 564 674 542 q 556 586 615 586 q 433 560 497 586 q 319 493 369 535 l 178 0 l 40 0 l 288 863 l 196 863 l 226 974 q 458 979 318 979 l 433 894 l 365 656 q 583 713 476 713 q 749 654 692 713 q 807 500 807 596 q 792 394 807 446 l 729 174 m 574 1208 l 644 1050 l 521 1050 l 483 1144 l 383 1050 l 244 1050 l 425 1208 l 574 1208 z "},"":{"ha":932,"x_min":40,"x_max":807,"o":"m 729 174 q 725 147 725 160 q 735 123 725 131 q 767 115 746 115 q 804 118 785 115 l 803 -3 q 710 -14 768 -14 q 615 13 650 -14 q 581 100 581 40 q 593 179 581 133 l 658 407 q 674 492 674 460 q 644 564 674 542 q 556 586 615 586 q 433 560 497 586 q 319 493 369 535 l 178 0 l 40 0 l 288 863 l 196 863 l 226 974 q 458 979 318 979 l 433 894 l 365 656 q 583 713 476 713 q 749 654 692 713 q 807 500 807 596 q 792 394 807 446 l 729 174 m 397 -76 q 442 -90 426 -76 q 458 -125 458 -103 q 456 -143 458 -129 q 419 -194 446 -175 q 358 -212 393 -212 q 313 -199 329 -212 q 297 -164 297 -186 q 300 -143 297 -150 q 336 -94 310 -111 q 397 -76 363 -76 z "},"":{"ha":419,"x_min":79,"x_max":554,"o":"m 208 589 l 115 589 l 147 699 q 379 704 238 704 l 354 619 l 228 174 q 224 147 224 160 q 234 123 224 131 q 265 115 244 115 q 303 118 283 115 l 301 -3 q 208 -14 267 -14 q 114 13 149 -14 q 79 100 79 40 q 92 179 79 133 l 208 589 m 554 957 l 386 801 l 256 801 l 386 957 l 554 957 z "},"":{"ha":419,"x_min":79,"x_max":558,"o":"m 208 589 l 115 589 l 147 699 q 379 704 238 704 l 354 619 l 228 174 q 224 147 224 160 q 234 123 224 131 q 265 115 244 115 q 303 118 283 115 l 301 -3 q 208 -14 267 -14 q 114 13 149 -14 q 79 100 79 40 q 92 179 79 133 l 208 589 m 297 979 q 292 943 292 961 q 306 903 292 917 q 347 889 321 889 q 411 913 383 889 q 451 979 439 936 l 558 976 q 469 841 535 892 q 319 790 404 790 q 216 822 253 790 q 179 913 179 854 q 189 976 179 943 l 297 979 z "},"":{"ha":419,"x_min":79,"x_max":564,"o":"m 208 589 l 115 589 l 147 699 q 379 704 238 704 l 354 619 l 228 174 q 224 147 224 160 q 234 123 224 131 q 265 115 244 115 q 303 118 283 115 l 301 -3 q 208 -14 267 -14 q 114 13 149 -14 q 79 100 79 40 q 92 179 79 133 l 208 589 m 347 876 l 440 981 l 564 981 l 396 807 l 258 807 l 189 981 l 311 981 l 347 876 z "},"":{"ha":419,"x_min":79,"x_max":508,"o":"m 208 589 l 115 589 l 147 699 q 379 704 238 704 l 354 619 l 228 174 q 224 147 224 160 q 234 123 224 131 q 265 115 244 115 q 303 118 283 115 l 301 -3 q 208 -14 267 -14 q 114 13 149 -14 q 79 100 79 40 q 92 179 79 133 l 208 589 z "},"":{"ha":419,"x_min":79,"x_max":554,"o":"m 208 589 l 115 589 l 147 699 q 379 704 238 704 l 354 619 l 228 174 q 224 147 224 160 q 234 123 224 131 q 265 115 244 115 q 303 118 283 115 l 301 -3 q 208 -14 267 -14 q 114 13 149 -14 q 79 100 79 40 q 92 179 79 133 l 208 589 z "},"":{"ha":419,"x_min":79,"x_max":379,"o":"m 208 589 l 115 589 l 147 699 q 379 704 238 704 l 354 619 l 228 174 q 224 147 224 160 q 234 123 224 131 q 265 115 244 115 q 303 118 283 115 l 301 -3 q 208 -14 267 -14 q 114 13 149 -14 q 79 100 79 40 q 92 179 79 133 l 208 589 m 376 801 l 246 801 l 169 957 l 336 957 l 376 801 z "},"":{"ha":779,"x_min":79,"x_max":839,"o":"m 208 589 l 115 589 l 147 699 q 379 704 238 704 l 354 619 l 228 174 q 224 147 224 160 q 234 123 224 131 q 265 115 244 115 q 303 118 283 115 l 301 -3 q 208 -14 267 -14 q 114 13 149 -14 q 79 100 79 40 q 92 179 79 133 l 208 589 m 329 815 q 279 828 297 815 q 261 865 261 842 q 294 938 261 908 q 374 967 326 967 q 424 953 406 967 q 442 913 442 939 q 438 890 442 903 q 399 836 428 857 q 329 815 369 815 m 324 -194 q 389 -141 360 -178 q 432 -58 418 -104 l 617 589 l 525 589 l 556 699 q 788 704 646 704 l 763 619 l 575 -35 q 480 -210 543 -146 q 322 -283 417 -274 l 324 -194 m 729 821 q 678 835 697 821 q 660 874 660 849 q 692 942 660 913 q 772 972 725 972 q 821 958 803 972 q 839 918 839 943 q 836 897 839 911 q 797 842 825 863 q 729 821 768 821 z "},"":{"ha":419,"x_min":79,"x_max":553,"o":"m 208 589 l 115 589 l 147 699 q 379 704 238 704 l 354 619 l 228 174 q 224 147 224 160 q 234 123 224 131 q 265 115 244 115 q 303 118 283 115 l 301 -3 q 208 -14 267 -14 q 114 13 149 -14 q 79 100 79 40 q 92 179 79 133 l 208 589 z "},"":{"ha":419,"x_min":33,"x_max":442,"o":"m 374 967 q 424 953 406 967 q 442 913 442 939 q 438 890 442 903 q 399 836 428 857 q 329 815 369 815 q 279 828 297 815 q 261 865 261 842 q 294 938 261 908 q 374 967 326 967 m 115 589 l 147 699 q 379 704 238 704 l 354 619 l 228 174 q 224 147 224 160 q 234 123 224 131 q 265 115 244 115 q 303 118 283 115 l 301 -3 q 246 -12 279 -10 q 185 -65 207 -37 q 163 -114 163 -92 q 225 -154 163 -154 q 275 -149 251 -154 l 260 -228 q 161 -239 200 -239 q 65 -217 97 -239 q 33 -158 33 -196 q 65 -76 33 -117 q 149 -6 96 -36 q 79 100 79 19 q 92 179 79 133 l 208 589 l 115 589 z "},"":{"ha":360,"x_min":-97,"x_max":488,"o":"m -96 -194 q -31 -141 -60 -178 q 13 -58 -1 -104 l 197 589 l 106 589 l 136 699 q 368 704 226 704 l 343 619 l 156 -35 q 60 -210 124 -146 q -97 -283 -3 -274 l -96 -194 z "},"":{"ha":822,"x_min":42,"x_max":785,"o":"m 651 108 q 690 110 676 108 q 719 119 704 113 l 724 7 q 629 -14 678 -14 q 460 75 531 -14 l 353 210 l 289 304 q 506 344 425 308 q 618 427 586 381 q 650 513 650 474 q 621 568 650 549 q 542 588 592 588 q 408 546 472 588 q 300 429 344 504 l 178 0 l 42 0 l 288 863 l 196 863 l 226 974 q 458 979 318 979 l 433 894 l 360 638 q 582 713 461 713 q 728 663 672 713 q 785 536 785 614 q 758 424 785 482 q 667 315 731 367 q 499 235 603 264 l 560 156 q 600 119 579 131 q 651 108 621 108 m 229 -243 q 311 -157 300 -214 l 256 -157 l 288 -50 l 397 -50 q 239 -278 376 -228 l 229 -243 z "},"":{"ha":822,"x_min":57,"x_max":879,"o":"m 726 699 l 879 699 l 850 599 l 779 599 q 747 585 765 599 l 524 408 l 628 161 q 658 111 642 128 q 699 94 674 94 q 757 106 728 94 l 736 10 q 683 -8 707 -1 q 633 -14 660 -14 q 514 86 540 -14 l 415 324 l 251 193 l 196 0 l 57 0 l 208 525 q 213 551 213 540 q 202 576 213 568 q 171 583 192 583 q 133 581 153 583 l 135 701 q 228 713 169 713 q 322 685 288 713 q 357 599 357 658 q 344 519 357 565 l 293 340 l 726 699 z "},"":{"ha":428,"x_min":82,"x_max":608,"o":"m 313 3 q 215 -14 261 -14 q 116 18 150 -14 q 82 111 82 50 q 94 192 82 149 l 288 863 l 196 863 l 226 974 q 458 979 318 979 l 433 894 l 228 174 q 224 146 224 157 q 258 115 224 115 q 314 122 286 115 l 313 3 m 608 1226 l 440 1071 l 310 1071 l 440 1226 l 608 1226 z "},"":{"ha":503,"x_min":82,"x_max":668,"o":"m 313 3 q 215 -14 261 -14 q 116 18 150 -14 q 82 111 82 50 q 94 192 82 149 l 288 863 l 196 863 l 226 974 q 458 979 318 979 l 433 894 l 228 174 q 224 146 224 157 q 258 115 224 115 q 314 122 286 115 l 313 3 m 492 729 l 546 972 l 668 972 l 578 729 l 492 729 z "},"":{"ha":428,"x_min":54,"x_max":458,"o":"m 313 3 q 215 -14 261 -14 q 116 18 150 -14 q 82 111 82 50 q 94 192 82 149 l 288 863 l 196 863 l 226 974 q 458 979 318 979 l 433 894 l 228 174 q 224 146 224 157 q 258 115 224 115 q 314 122 286 115 l 313 3 m 54 -243 q 136 -157 125 -214 l 81 -157 l 113 -50 l 222 -50 q 64 -278 201 -228 l 54 -243 z "},"":{"ha":665,"x_min":82,"x_max":640,"o":"m 313 3 q 215 -14 261 -14 q 116 18 150 -14 q 82 111 82 50 q 94 192 82 149 l 288 863 l 196 863 l 226 974 q 458 979 318 979 l 433 894 l 228 174 q 224 146 224 157 q 258 115 224 115 q 314 122 286 115 l 313 3 m 513 415 q 540 454 521 443 q 588 465 558 465 q 626 454 611 465 q 640 421 640 443 q 639 406 640 411 q 613 365 631 376 q 565 354 594 354 q 526 365 542 354 q 510 397 510 376 q 513 415 510 401 z "},"":{"ha":428,"x_min":65,"x_max":458,"o":"m 313 3 q 215 -14 261 -14 q 116 18 150 -14 q 82 111 82 50 q 94 192 82 149 l 288 863 l 196 863 l 226 974 q 458 979 318 979 l 433 894 l 228 174 q 224 146 224 157 q 258 115 224 115 q 314 122 286 115 l 313 3 m 165 -76 q 210 -90 194 -76 q 226 -125 226 -103 q 224 -143 226 -129 q 188 -194 214 -175 q 126 -212 161 -212 q 81 -199 97 -212 q 65 -164 65 -186 q 68 -143 65 -150 q 104 -94 78 -111 q 165 -76 131 -76 z "},"":{"ha":428,"x_min":65,"x_max":593,"o":"m 313 3 q 215 -14 261 -14 q 116 18 150 -14 q 82 111 82 50 q 94 192 82 149 l 288 863 l 196 863 l 226 974 q 458 979 318 979 l 433 894 l 228 174 q 224 146 224 157 q 258 115 224 115 q 314 122 286 115 l 313 3 m 165 -76 q 210 -90 194 -76 q 226 -125 226 -103 q 224 -143 226 -129 q 188 -194 214 -175 q 126 -212 161 -212 q 81 -199 97 -212 q 65 -164 65 -186 q 68 -143 65 -150 q 104 -94 78 -111 q 165 -76 131 -76 z "},"":{"ha":428,"x_min":-65,"x_max":458,"o":"m 313 3 q 215 -14 261 -14 q 116 18 150 -14 q 82 111 82 50 q 94 192 82 149 l 288 863 l 196 863 l 226 974 q 458 979 318 979 l 433 894 l 228 174 q 224 146 224 157 q 258 115 224 115 q 314 122 286 115 l 313 3 z "},"":{"ha":428,"x_min":39,"x_max":458,"o":"m 315 482 l 228 174 q 224 146 224 157 q 258 115 224 115 q 314 122 286 115 l 313 3 q 215 -14 261 -14 q 116 18 150 -14 q 82 111 82 50 q 94 192 82 149 l 156 406 l 54 357 l 39 426 l 182 494 l 288 863 l 196 863 l 226 974 q 458 979 318 979 l 433 894 l 340 571 l 432 614 l 450 546 l 315 482 z "},"":{"ha":1382,"x_min":58,"x_max":1261,"o":"m 1179 174 q 1175 147 1175 160 q 1185 123 1175 131 q 1217 115 1196 115 q 1256 118 1233 115 l 1254 -3 q 1160 -14 1217 -14 q 1065 13 1100 -14 q 1031 100 1031 40 q 1043 179 1031 133 l 1108 406 q 1124 497 1124 457 q 1097 565 1124 543 q 1017 586 1071 586 q 796 493 907 586 q 779 393 794 447 l 667 0 l 529 0 l 646 407 q 661 492 661 460 q 632 564 661 542 q 544 586 603 586 q 338 496 449 586 l 196 0 l 58 0 l 208 525 q 213 551 213 540 q 202 576 213 568 q 171 583 192 583 q 133 581 153 583 l 135 701 q 228 713 169 713 q 354 632 335 713 q 468 692 408 671 q 586 713 528 713 q 703 686 656 713 q 775 613 751 660 q 906 686 836 660 q 1047 713 975 713 q 1203 660 1146 713 q 1261 513 1261 607 q 1244 406 1261 464 l 1179 174 m 583 -76 q 628 -90 613 -76 q 644 -125 644 -103 q 642 -143 644 -129 q 606 -194 632 -175 q 544 -212 579 -212 q 499 -199 515 -212 q 483 -164 483 -186 q 486 -143 483 -150 q 522 -94 496 -111 q 583 -76 549 -76 z "},"":{"ha":951,"x_min":58,"x_max":835,"o":"m 749 174 q 744 147 744 160 q 755 123 744 131 q 786 115 765 115 q 825 118 803 115 l 824 -3 q 731 -14 786 -14 q 635 13 671 -14 q 600 100 600 40 q 613 179 600 133 l 679 407 q 693 490 693 454 q 664 564 693 542 q 575 586 635 586 q 451 560 517 586 q 336 493 386 533 l 196 0 l 58 0 l 208 525 q 213 551 213 540 q 202 576 213 568 q 171 583 192 583 q 133 581 153 583 l 135 701 q 228 713 169 713 q 351 638 331 713 q 476 693 411 674 q 603 713 542 713 q 770 654 713 713 q 828 500 828 596 q 811 394 828 451 l 749 174 m 835 957 l 667 801 l 536 801 l 667 957 l 835 957 z "},"":{"ha":951,"x_min":58,"x_max":844,"o":"m 749 174 q 744 147 744 160 q 755 123 744 131 q 786 115 765 115 q 825 118 803 115 l 824 -3 q 731 -14 786 -14 q 635 13 671 -14 q 600 100 600 40 q 613 179 600 133 l 679 407 q 693 490 693 454 q 664 564 693 542 q 575 586 635 586 q 451 560 517 586 q 336 493 386 533 l 196 0 l 58 0 l 208 525 q 213 551 213 540 q 202 576 213 568 q 171 583 192 583 q 133 581 153 583 l 135 701 q 228 713 169 713 q 351 638 331 713 q 476 693 411 674 q 603 713 542 713 q 770 654 713 713 q 828 500 828 596 q 811 394 828 451 l 749 174 m 628 876 l 721 981 l 844 981 l 676 807 l 539 807 l 469 981 l 592 981 l 628 876 z "},"":{"ha":951,"x_min":58,"x_max":828,"o":"m 749 174 q 744 147 744 160 q 755 123 744 131 q 786 115 765 115 q 825 118 803 115 l 824 -3 q 731 -14 786 -14 q 635 13 671 -14 q 600 100 600 40 q 613 179 600 133 l 679 407 q 693 490 693 454 q 664 564 693 542 q 575 586 635 586 q 451 560 517 586 q 336 493 386 533 l 196 0 l 58 0 l 208 525 q 213 551 213 540 q 202 576 213 568 q 171 583 192 583 q 133 581 153 583 l 135 701 q 228 713 169 713 q 351 638 331 713 q 476 693 411 674 q 603 713 542 713 q 770 654 713 713 q 828 500 828 596 q 811 394 828 451 l 749 174 m 249 -243 q 331 -157 319 -214 l 275 -157 l 307 -50 l 417 -50 q 258 -278 396 -228 l 249 -243 z "},"":{"ha":951,"x_min":58,"x_max":828,"o":"m 749 174 q 744 147 744 160 q 755 123 744 131 q 786 115 765 115 q 825 118 803 115 l 824 -3 q 731 -14 786 -14 q 635 13 671 -14 q 600 100 600 40 q 613 179 600 133 l 679 407 q 693 490 693 454 q 664 564 693 542 q 575 586 635 586 q 451 560 517 586 q 336 493 386 533 l 196 0 l 58 0 l 208 525 q 213 551 213 540 q 202 576 213 568 q 171 583 192 583 q 133 581 153 583 l 135 701 q 228 713 169 713 q 351 638 331 713 q 476 693 411 674 q 603 713 542 713 q 770 654 713 713 q 828 500 828 596 q 811 394 828 451 l 749 174 m 628 821 q 583 832 599 821 q 567 865 567 843 q 595 931 567 904 q 668 957 624 957 q 712 944 696 957 q 728 908 728 931 q 699 846 728 871 q 628 821 671 821 z "},"":{"ha":951,"x_min":58,"x_max":828,"o":"m 749 174 q 744 147 744 160 q 755 123 744 131 q 786 115 765 115 q 825 118 803 115 l 824 -3 q 731 -14 786 -14 q 635 13 671 -14 q 600 100 600 40 q 613 179 600 133 l 679 407 q 693 490 693 454 q 664 564 693 542 q 575 586 635 586 q 451 560 517 586 q 336 493 386 533 l 196 0 l 58 0 l 208 525 q 213 551 213 540 q 202 576 213 568 q 171 583 192 583 q 133 581 153 583 l 135 701 q 228 713 169 713 q 351 638 331 713 q 476 693 411 674 q 603 713 542 713 q 770 654 713 713 q 828 500 828 596 q 811 394 828 451 l 749 174 m 358 -76 q 403 -90 388 -76 q 419 -125 419 -103 q 417 -143 419 -129 q 381 -194 407 -175 q 319 -212 354 -212 q 274 -199 290 -212 q 258 -164 258 -186 q 261 -143 258 -150 q 297 -94 271 -111 q 358 -76 324 -76 z "},"":{"ha":890,"x_min":57,"x_max":840,"o":"m 642 713 q 792 672 744 713 q 840 553 840 632 q 821 429 840 500 l 713 57 l 679 -60 q 599 -210 650 -165 q 471 -254 549 -254 q 382 -237 424 -254 l 421 -121 q 461 -125 436 -125 q 513 -112 494 -125 q 542 -65 532 -99 l 576 57 l 588 96 l 676 403 q 689 485 689 451 q 568 589 689 589 q 444 563 504 589 q 336 490 383 536 l 196 0 l 57 0 l 208 525 q 213 551 213 540 q 202 576 213 568 q 171 583 192 583 q 133 581 153 583 l 135 701 q 228 713 169 713 q 318 688 283 713 q 357 611 353 664 q 492 685 415 658 q 642 713 568 713 z "},"":{"ha":953,"x_min":-119,"x_max":843,"o":"m 750 174 q 746 147 746 160 q 756 123 746 131 q 788 115 767 115 q 825 118 806 115 l 824 -3 q 731 -14 789 -14 q 636 13 671 -14 q 601 100 601 40 q 614 179 601 133 l 678 403 q 692 486 692 449 q 569 589 692 589 q 445 562 506 589 q 338 488 385 535 l 210 46 l 181 -61 q 99 -211 150 -167 q -29 -256 49 -256 q -119 -239 -76 -256 l -78 -122 q -39 -126 -57 -126 q 13 -113 -6 -126 q 42 -67 32 -100 l 82 74 l 211 525 q 215 551 215 540 q 205 576 215 568 q 174 583 194 583 q 135 581 157 583 l 136 701 q 229 713 174 713 q 319 688 285 713 q 358 610 354 663 q 494 685 418 657 q 643 713 571 713 q 795 672 747 713 q 843 551 843 631 q 824 429 843 500 l 750 174 z "},"":{"ha":951,"x_min":58,"x_max":828,"o":"m 749 174 q 744 147 744 160 q 755 123 744 131 q 786 115 765 115 q 825 118 803 115 l 824 -3 q 731 -14 786 -14 q 635 13 671 -14 q 600 100 600 40 q 613 179 600 133 l 679 407 q 693 490 693 454 q 664 564 693 542 q 575 586 635 586 q 451 560 517 586 q 336 493 386 533 l 196 0 l 58 0 l 208 525 q 213 551 213 540 q 202 576 213 568 q 171 583 192 583 q 133 581 153 583 l 135 701 q 228 713 169 713 q 351 638 331 713 q 476 693 411 674 q 603 713 542 713 q 770 654 713 713 q 828 500 828 596 q 811 394 828 451 l 749 174 z "},"":{"ha":951,"x_min":58,"x_max":865,"o":"m 749 174 q 744 147 744 160 q 755 123 744 131 q 786 115 765 115 q 825 118 803 115 l 824 -3 q 731 -14 786 -14 q 635 13 671 -14 q 600 100 600 40 q 613 179 600 133 l 679 407 q 693 490 693 454 q 664 564 693 542 q 575 586 635 586 q 451 560 517 586 q 336 493 386 533 l 196 0 l 58 0 l 208 525 q 213 551 213 540 q 202 576 213 568 q 171 583 192 583 q 133 581 153 583 l 135 701 q 228 713 169 713 q 351 638 331 713 q 476 693 411 674 q 603 713 542 713 q 770 654 713 713 q 828 500 828 596 q 811 394 828 451 l 749 174 m 381 833 q 456 916 410 888 q 551 944 501 944 q 597 937 576 944 q 646 913 617 929 q 685 893 668 900 q 721 886 701 886 q 760 899 743 886 q 796 939 778 911 l 865 894 q 790 812 838 840 q 693 783 743 783 q 648 791 668 783 q 601 814 628 799 q 563 833 579 826 q 526 840 546 840 q 485 828 503 840 q 449 788 467 815 l 381 833 z "},"":{"ha":835,"x_min":50,"x_max":785,"o":"m 340 -14 q 125 54 200 -14 q 50 243 50 122 q 99 457 50 349 q 248 639 147 565 q 494 713 349 713 q 710 644 635 713 q 785 457 785 576 q 735 243 785 353 q 586 60 686 133 q 340 -14 486 -14 m 350 111 q 512 164 444 111 q 614 293 579 217 q 649 438 649 369 q 608 547 649 507 q 486 588 567 588 q 324 535 392 588 q 222 407 257 483 q 188 263 188 331 q 228 151 188 192 q 350 111 269 111 m 776 957 l 608 801 l 478 801 l 608 957 l 776 957 z "},"":{"ha":835,"x_min":50,"x_max":785,"o":"m 340 -14 q 125 54 200 -14 q 50 243 50 122 q 99 457 50 349 q 248 639 147 565 q 494 713 349 713 q 710 644 635 713 q 785 457 785 576 q 735 243 785 353 q 586 60 686 133 q 340 -14 486 -14 m 350 111 q 512 164 444 111 q 614 293 579 217 q 649 438 649 369 q 608 547 649 507 q 486 588 567 588 q 324 535 392 588 q 222 407 257 483 q 188 263 188 331 q 228 151 188 192 q 350 111 269 111 m 521 979 q 515 943 515 961 q 530 903 515 917 q 571 889 544 889 q 635 913 607 889 q 675 979 663 936 l 782 976 q 693 841 758 892 q 543 790 628 790 q 440 822 476 790 q 403 913 403 854 q 413 976 403 943 l 521 979 z "},"":{"ha":835,"x_min":50,"x_max":786,"o":"m 340 -14 q 125 54 200 -14 q 50 243 50 122 q 99 457 50 349 q 248 639 147 565 q 494 713 349 713 q 710 644 635 713 q 785 457 785 576 q 735 243 785 353 q 586 60 686 133 q 340 -14 486 -14 m 350 111 q 512 164 444 111 q 614 293 579 217 q 649 438 649 369 q 608 547 649 507 q 486 588 567 588 q 324 535 392 588 q 222 407 257 483 q 188 263 188 331 q 228 151 188 192 q 350 111 269 111 m 569 876 l 663 981 l 786 981 l 618 807 l 481 807 l 411 981 l 533 981 l 569 876 z "},"":{"ha":835,"x_min":50,"x_max":785,"o":"m 340 -14 q 125 54 200 -14 q 50 243 50 122 q 99 457 50 349 q 248 639 147 565 q 494 713 349 713 q 710 644 635 713 q 785 457 785 576 q 735 243 785 353 q 586 60 686 133 q 340 -14 486 -14 m 350 111 q 512 164 444 111 q 614 293 579 217 q 649 438 649 369 q 608 547 649 507 q 486 588 567 588 q 324 535 392 588 q 222 407 257 483 q 188 263 188 331 q 228 151 188 192 q 350 111 269 111 z "},"":{"ha":835,"x_min":50,"x_max":785,"o":"m 340 -14 q 125 54 200 -14 q 50 243 50 122 q 99 457 50 349 q 248 639 147 565 q 494 713 349 713 q 710 644 635 713 q 785 457 785 576 q 735 243 785 353 q 586 60 686 133 q 340 -14 486 -14 m 350 111 q 512 164 444 111 q 614 293 579 217 q 649 438 649 369 q 608 547 649 507 q 486 588 567 588 q 324 535 392 588 q 222 407 257 483 q 188 263 188 331 q 228 151 188 192 q 350 111 269 111 z "},"":{"ha":835,"x_min":50,"x_max":785,"o":"m 340 -14 q 125 54 200 -14 q 50 243 50 122 q 99 457 50 349 q 248 639 147 565 q 494 713 349 713 q 710 644 635 713 q 785 457 785 576 q 735 243 785 353 q 586 60 686 133 q 340 -14 486 -14 m 350 111 q 512 164 444 111 q 614 293 579 217 q 649 438 649 369 q 608 547 649 507 q 486 588 567 588 q 324 535 392 588 q 222 407 257 483 q 188 263 188 331 q 228 151 188 192 q 350 111 269 111 m 600 801 l 469 801 l 393 957 l 560 957 l 600 801 z "},"":{"ha":835,"x_min":50,"x_max":793,"o":"m 340 -14 q 125 54 200 -14 q 50 243 50 122 q 99 457 50 349 q 248 639 147 565 q 494 713 349 713 q 710 644 635 713 q 785 457 785 576 q 735 243 785 353 q 586 60 686 133 q 340 -14 486 -14 m 350 111 q 512 164 444 111 q 614 293 579 217 q 649 438 649 369 q 608 547 649 507 q 486 588 567 588 q 324 535 392 588 q 222 407 257 483 q 188 263 188 331 q 228 151 188 192 q 350 111 269 111 m 606 957 l 451 801 l 331 801 l 451 957 l 606 957 m 793 957 l 639 801 l 518 801 l 639 957 l 793 957 z "},"":{"ha":835,"x_min":50,"x_max":785,"o":"m 340 -14 q 125 54 200 -14 q 50 243 50 122 q 99 457 50 349 q 248 639 147 565 q 494 713 349 713 q 710 644 635 713 q 785 457 785 576 q 735 243 785 353 q 586 60 686 133 q 340 -14 486 -14 m 350 111 q 512 164 444 111 q 614 293 579 217 q 649 438 649 369 q 608 547 649 507 q 486 588 567 588 q 324 535 392 588 q 222 407 257 483 q 188 263 188 331 q 228 151 188 192 q 350 111 269 111 z "},"":{"ha":835,"x_min":50,"x_max":785,"o":"m 474 6 q 417 -45 438 -19 q 397 -92 397 -71 q 460 -132 397 -132 q 510 -126 486 -132 l 494 -206 q 396 -217 435 -217 q 300 -195 332 -217 q 268 -136 268 -174 q 339 -14 268 -75 q 125 54 200 -14 q 50 243 50 122 q 99 457 50 349 q 248 639 147 565 q 494 713 349 713 q 710 644 635 713 q 785 457 785 576 q 751 278 785 371 q 647 111 717 186 q 474 6 576 36 m 188 263 q 228 151 188 192 q 350 111 269 111 q 512 164 444 111 q 614 293 579 217 q 649 438 649 369 q 608 547 649 507 q 486 588 567 588 q 324 535 392 588 q 222 407 257 483 q 188 263 188 331 z "},"":{"ha":835,"x_min":-58,"x_max":893,"o":"m 893 644 l 771 550 q 785 457 785 510 q 735 243 785 353 q 586 60 686 133 q 340 -14 486 -14 q 129 51 206 -14 l 18 -35 l -58 54 l 64 149 q 50 243 50 190 q 99 457 50 349 q 248 639 147 565 q 494 713 349 713 q 706 649 628 713 l 815 733 l 893 644 m 188 246 l 592 560 q 486 588 553 588 q 324 535 392 588 q 222 407 257 483 q 188 263 188 331 l 188 246 m 649 454 l 243 140 q 350 111 283 111 q 512 164 444 111 q 614 293 579 217 q 649 438 649 369 l 649 454 z "},"":{"ha":835,"x_min":-58,"x_max":893,"o":"m 893 644 l 771 550 q 785 457 785 510 q 735 243 785 353 q 586 60 686 133 q 340 -14 486 -14 q 129 51 206 -14 l 18 -35 l -58 54 l 64 149 q 50 243 50 190 q 99 457 50 349 q 248 639 147 565 q 494 713 349 713 q 706 649 628 713 l 815 733 l 893 644 m 188 246 l 592 560 q 486 588 553 588 q 324 535 392 588 q 222 407 257 483 q 188 263 188 331 l 188 246 m 649 454 l 243 140 q 350 111 283 111 q 512 164 444 111 q 614 293 579 217 q 649 438 649 369 l 649 454 m 779 957 l 611 801 l 481 801 l 611 957 l 779 957 z "},"":{"ha":835,"x_min":50,"x_max":807,"o":"m 340 -14 q 125 54 200 -14 q 50 243 50 122 q 99 457 50 349 q 248 639 147 565 q 494 713 349 713 q 710 644 635 713 q 785 457 785 576 q 735 243 785 353 q 586 60 686 133 q 340 -14 486 -14 m 350 111 q 512 164 444 111 q 614 293 579 217 q 649 438 649 369 q 608 547 649 507 q 486 588 567 588 q 324 535 392 588 q 222 407 257 483 q 188 263 188 331 q 228 151 188 192 q 350 111 269 111 m 322 833 q 397 916 351 888 q 493 944 443 944 q 538 937 518 944 q 588 913 558 929 q 626 893 610 900 q 663 886 643 886 q 702 899 685 886 q 738 939 719 911 l 807 894 q 732 812 779 840 q 635 783 685 783 q 590 791 610 783 q 543 814 569 799 q 504 833 521 826 q 468 840 488 840 q 426 828 444 840 q 390 788 408 815 l 322 833 z "},"":{"ha":664,"x_min":58,"x_max":736,"o":"m 725 693 l 656 451 l 531 451 l 569 588 q 441 565 496 589 q 336 489 386 542 l 196 0 l 58 0 l 194 475 l 208 525 q 213 551 213 540 q 202 576 213 568 q 171 583 192 583 q 133 581 153 583 l 135 701 q 228 713 169 713 q 356 626 339 713 q 599 713 476 713 q 724 693 657 713 l 725 693 m 736 957 l 568 801 l 438 801 l 568 957 l 736 957 z "},"":{"ha":664,"x_min":58,"x_max":746,"o":"m 725 693 l 656 451 l 531 451 l 569 588 q 441 565 496 589 q 336 489 386 542 l 196 0 l 58 0 l 194 475 l 208 525 q 213 551 213 540 q 202 576 213 568 q 171 583 192 583 q 133 581 153 583 l 135 701 q 228 713 169 713 q 356 626 339 713 q 599 713 476 713 q 724 693 657 713 l 725 693 m 529 876 l 622 981 l 746 981 l 578 807 l 440 807 l 371 981 l 493 981 l 529 876 z "},"":{"ha":664,"x_min":-1,"x_max":725,"o":"m 725 693 l 656 451 l 531 451 l 569 588 q 441 565 496 589 q 336 489 386 542 l 196 0 l 58 0 l 194 475 l 208 525 q 213 551 213 540 q 202 576 213 568 q 171 583 192 583 q 133 581 153 583 l 135 701 q 228 713 169 713 q 356 626 339 713 q 599 713 476 713 q 724 693 657 713 l 725 693 m -1 -243 q 81 -157 69 -214 l 25 -157 l 57 -50 l 167 -50 q 8 -278 146 -228 l -1 -243 z "},"":{"ha":664,"x_min":10,"x_max":725,"o":"m 725 693 l 656 451 l 531 451 l 569 588 q 441 565 496 589 q 336 489 386 542 l 196 0 l 58 0 l 194 475 l 208 525 q 213 551 213 540 q 202 576 213 568 q 171 583 192 583 q 133 581 153 583 l 135 701 q 228 713 169 713 q 356 626 339 713 q 599 713 476 713 q 724 693 657 713 l 725 693 m 110 -76 q 155 -90 139 -76 q 171 -125 171 -103 q 168 -143 171 -129 q 132 -194 158 -175 q 71 -212 106 -212 q 26 -199 42 -212 q 10 -164 10 -186 q 13 -143 10 -150 q 49 -94 22 -111 q 110 -76 75 -76 z "},"":{"ha":664,"x_min":10,"x_max":736,"o":"m 725 693 l 656 451 l 531 451 l 569 588 q 441 565 496 589 q 336 489 386 542 l 196 0 l 58 0 l 194 475 l 208 525 q 213 551 213 540 q 202 576 213 568 q 171 583 192 583 q 133 581 153 583 l 135 701 q 228 713 169 713 q 356 626 339 713 q 599 713 476 713 q 724 693 657 713 l 725 693 m 110 -76 q 155 -90 139 -76 q 171 -125 171 -103 q 168 -143 171 -129 q 132 -194 158 -175 q 71 -212 106 -212 q 26 -199 42 -212 q 10 -164 10 -186 q 13 -143 10 -150 q 49 -94 22 -111 q 110 -76 75 -76 z "},"":{"ha":664,"x_min":-121,"x_max":725,"o":"m 725 693 l 656 451 l 531 451 l 569 588 q 441 565 496 589 q 336 489 386 542 l 196 0 l 58 0 l 194 475 l 208 525 q 213 551 213 540 q 202 576 213 568 q 171 583 192 583 q 133 581 153 583 l 135 701 q 228 713 169 713 q 356 626 339 713 q 599 713 476 713 q 724 693 657 713 l 725 693 z "}}}
